<svg xmlns="http://www.w3.org/2000/svg" width="18" height="18" viewBox="0 0 18 18">
    <g fill="none" fill-rule="evenodd">
        <g>
            <g>
                <g>
                    <g>
                        <path d="M0 0H18V18H0z" transform="translate(-188 -2382) translate(0 2379) translate(188) translate(0 3)"/>
                        <path fill="#FFF" d="M14.098 2.03H3.902c-1.034 0-1.872.837-1.872 1.871v10.196c0 1.033.838 1.872 1.872 1.872h10.196c1.034 0 1.872-.839 1.872-1.872V3.9c0-1.034-.838-1.872-1.872-1.872z" transform="translate(-188 -2382) translate(0 2379) translate(188) translate(0 3)"/>
                        <path fill="#80858C" d="M14.098 2.03H3.902c-1.034 0-1.872.837-1.872 1.871v10.196c0 1.033.838 1.872 1.872 1.872h10.196c1.034 0 1.872-.839 1.872-1.872V3.9c0-1.034-.838-1.872-1.872-1.872zm-10.196.93h10.196c.519 0 .94.422.94.941v10.196c0 .519-.421.94-.94.94H3.902c-.519 0-.94-.421-.94-.94V3.9c0-.52.421-.94.94-.94z" transform="translate(-188 -2382) translate(0 2379) translate(188) translate(0 3)"/>
                    </g>
                </g>
            </g>
        </g>
    </g>
</svg>
