<svg width="36" height="15" viewBox="0 0 36 15" fill="none" xmlns="http://www.w3.org/2000/svg">
<path fill-rule="evenodd" clip-rule="evenodd" d="M4.77633 2.59961L9.2368 8.97511V2.59961H11.3956V12.6926H9.42054L4.9056 6.22485V12.6926H2.7605V2.59961H4.77633ZM20.7024 2.59961V4.47365H15.2645V6.58863H20.3745V8.46267H15.2645V10.8186H20.9347V12.6926H13.1194V2.59961H20.7024ZM25.2738 9.151L23.4069 2.59961H21.2433L24.2011 12.6926H26.326L27.5076 6.19837L29.2234 12.6926H31.3347L33.7605 2.59961H31.6044L30.276 9.151L28.5396 2.59961H26.4636L25.2738 9.151Z" fill="#FFFF00"/>
<path fill-rule="evenodd" clip-rule="evenodd" d="M4.9056 12.6926H2.7605V2.59961H4.77633L9.2368 8.97511V2.59961H11.3956V12.6926H9.42054L4.9056 6.22485V12.6926ZM12.2575 14.4979C11.9965 14.6227 11.7042 14.6926 11.3956 14.6926H9.42054C8.76699 14.6926 8.15468 14.3733 7.78059 13.8374L6.9056 12.584V12.6926C6.9056 13.7972 6.01017 14.6926 4.9056 14.6926H2.7605C1.65593 14.6926 0.760498 13.7972 0.760498 12.6926V2.59961C0.760498 1.49504 1.65593 0.599609 2.7605 0.599609H4.77633C5.42913 0.599609 6.04085 0.918203 6.41508 1.4531L7.2368 2.62761V2.59961C7.2368 1.49504 8.13223 0.599609 9.2368 0.599609H11.3956C11.7042 0.599609 11.9965 0.669514 12.2575 0.794354C12.5185 0.669514 12.8108 0.599609 13.1194 0.599609H20.7024C20.7944 0.599609 20.885 0.605821 20.9736 0.617846C21.0624 0.605777 21.1524 0.599609 21.2433 0.599609H23.4069C24.01 0.599609 24.5637 0.869659 24.9353 1.30948C25.3051 0.871775 25.8571 0.599609 26.4636 0.599609H28.5396C29.1456 0.599609 29.7008 0.872023 30.072 1.31425C30.4422 0.873316 30.9965 0.599609 31.6044 0.599609H33.7605C34.3732 0.599609 34.952 0.880427 35.3313 1.36162C35.7105 1.8428 35.8483 2.47127 35.7051 3.06698L33.2794 13.16C33.0633 14.0589 32.2593 14.6926 31.3347 14.6926H29.2234C28.6614 14.6926 28.1431 14.4583 27.7747 14.0716C27.4076 14.457 26.8903 14.6926 26.326 14.6926H24.2011C23.5386 14.6926 22.9353 14.3667 22.5679 13.8473C22.2056 14.3588 21.6091 14.6926 20.9347 14.6926H13.1194C12.8108 14.6926 12.5185 14.6227 12.2575 14.4979ZM24.2011 12.6926H26.326L27.5076 6.19837L29.2234 12.6926H31.3347L33.7605 2.59961H31.6044L30.276 9.151L28.5396 2.59961H26.4636L25.2738 9.151L23.4069 2.59961H21.2433L24.2011 12.6926ZM20.7024 4.47365V2.59961H13.1194V12.6926H20.9347V10.8186H15.2645V8.46267H20.3745V6.58863H15.2645V4.47365H20.7024Z" fill="#2B3340"/>
</svg>
