<svg width="259" height="101" viewBox="0 0 259 101" fill="none" xmlns="http://www.w3.org/2000/svg">
<path d="M214.037 30.7517H218.908V24.7432H214.037V7.00841H219.059V1H197.875V4.90547C197.875 5.4632 198.097 5.9981 198.493 6.39247C198.888 6.78685 199.425 7.00841 199.984 7.00841H203.49V24.7432H197.875V30.7517H203.49V55.0757H199.984C199.425 55.0757 198.888 55.2973 198.493 55.6916C198.097 56.086 197.875 56.6209 197.875 57.1787V61.0841H214.67L216.166 55.0757H214.037V30.7517Z" fill="white"/>
<path d="M233.845 1H223.258V1.15021C223.207 1.98137 223.207 6.77809 223.207 12.8566H217.462V16.7621C217.462 17.3198 217.684 17.8547 218.08 18.2491C218.475 18.6435 219.012 18.865 219.571 18.865H223.217C223.217 26.5858 223.278 34.8874 223.288 39.544C223.302 42.0002 223.012 44.4489 222.424 46.8342L218.908 61.0841H229.495L233.031 46.8242C233.632 44.4036 233.926 41.9174 233.905 39.4238C233.845 29.8304 233.684 4.88544 233.845 1Z" fill="white"/>
<path d="M156.441 52.0703H145.854V61.0829H156.441V52.0703Z" fill="white"/>
<path d="M171.508 52.0703H160.961V61.0829H171.508V52.0703Z" fill="white"/>
<path d="M146.065 5.50631V7.00841H140.329L141.524 1H130.947L128.567 13.0168H156.612V3.40336H148.174C147.615 3.40336 147.078 3.62492 146.682 4.0193C146.287 4.41368 146.065 4.94857 146.065 5.50631Z" fill="white"/>
<path d="M187.348 36.5892L188.835 30.5808H171.508V28.6381C171.508 28.0804 171.286 27.5455 170.89 27.1511C170.494 26.7567 169.958 26.5352 169.398 26.5352H160.961V48.1654H187.077L188.835 40.9553H171.508V36.5892H187.348Z" fill="white"/>
<path d="M187.348 11.014L188.835 5.00561H171.508V3.10294C171.508 2.54521 171.286 2.01032 170.89 1.61594C170.494 1.22156 169.958 1 169.398 1H160.961V22.6303H187.077L188.835 15.4202H171.508V11.014H187.348Z" fill="white"/>
<path d="M145.894 16.9219H128.567V48.1656H137.004C137.564 48.1656 138.1 47.9441 138.496 47.5497C138.892 47.1553 139.114 46.6204 139.114 46.0627V43.3589H145.894V48.1656H156.441V16.9219H145.894ZM145.894 22.9303V27.1362H139.114V22.9303H145.894ZM139.114 37.3505V33.1446H145.894V37.3505H139.114Z" fill="white"/>
<path d="M256.033 7.00841C256.593 7.00841 257.129 6.78685 257.525 6.39247C257.92 5.9981 258.143 5.4632 258.143 4.90547V1H237.953V7.00841H241.971V24.7432H237.953V30.7517H241.971V55.0757H234.94L233.443 61.0841H258.143V57.1787C258.143 56.6209 257.92 56.086 257.525 55.6916C257.129 55.2973 256.593 55.0757 256.033 55.0757H252.528V30.7517H258.143V24.7432H252.528V7.00841H256.033Z" fill="white"/>
<path d="M128.567 61.0829H137.507C137.971 61.0725 138.42 60.91 138.783 60.6205C139.146 60.3309 139.403 59.9304 139.516 59.4807L141.334 52.0703H130.787L128.567 61.0829Z" fill="white"/>
<path d="M176.028 52.0703L177.846 59.4807C177.958 59.9304 178.216 60.3309 178.579 60.6205C178.942 60.91 179.39 61.0725 179.855 61.0829H188.835L186.615 52.0703H176.028Z" fill="white"/>
<path d="M22.0938 18.0235H21.7924L23.5 11.5645L9.63839 18.384L7.02679 28.1377C8.67753 27.17 10.5104 26.5515 12.4113 26.3207C14.3122 26.0898 16.2404 26.2515 18.0759 26.7958L18.7489 27.0161C19.6798 27.2995 20.576 27.6858 21.4208 28.1677C21.8767 28.4185 22.3132 28.703 22.7266 29.0189L23.279 29.4495C26.9554 32.3736 28.8036 36.8499 27.6083 41.0858C26.4129 45.3217 22.6562 48.0956 18.1161 48.7365C17.0156 48.9343 15.8917 48.9681 14.7812 48.8366C13.8336 48.7565 12.8954 48.5889 11.9788 48.3359C8.49659 47.4075 5.50496 45.1813 3.62165 42.1172L3.41071 41.7567L2.18527 46.5935L1 51.1298L1.1808 51.4002C3.18906 54.4018 5.91984 56.8538 9.12359 58.5321C12.3273 60.2104 15.9019 61.0614 19.5206 61.0075C23.1393 60.9536 26.6867 59.9964 29.8387 58.2234C32.9908 56.4504 35.6468 53.9182 37.5642 50.8581C39.4816 47.798 40.5991 44.3076 40.8147 40.7059C41.0303 37.1043 40.3371 33.5062 38.7984 30.2404C37.2597 26.9747 34.9246 24.1455 32.0065 22.0113C29.0884 19.8772 25.6803 18.5061 22.0938 18.0235Z" fill="white"/>
<path opacity="0.6" d="M14.2589 1L9.64844 18.3843L23.5 11.5948H36.1462L45.6283 1H14.2589Z" fill="white"/>
<path d="M47.627 11.5848L55.2508 11.5948L50.329 61.0641H62.6939L68.6705 1H57.089L47.627 11.5848Z" fill="white"/>
<path d="M112.877 24.3122C113.978 21.768 114.427 18.9912 114.184 16.2312C113.942 13.4711 113.015 10.8144 111.488 8.49971C109.961 6.185 107.881 4.28485 105.435 2.97C102.988 1.65515 100.253 0.966797 97.4738 0.966797C94.6947 0.966797 91.9592 1.65515 89.513 2.97C87.0668 4.28485 84.9867 6.185 83.4594 8.49971C81.9321 10.8144 81.0057 13.4711 80.7632 16.2312C80.5207 18.9912 80.9699 21.768 82.0703 24.3122C78.0552 28.346 75.8053 33.8006 75.8125 39.4834C75.8965 44.9854 78.0844 50.2478 81.9294 54.1955C85.7744 58.1432 90.9863 60.4783 96.5002 60.7238C102.014 60.9692 107.414 59.1065 111.597 55.5161C115.779 51.9258 118.429 46.8787 119.004 41.4061C119.004 40.7652 119.095 40.1243 119.095 39.4834C119.108 33.8071 116.874 28.355 112.877 24.3122ZM87.4342 39.4934C87.4342 36.8376 88.4924 34.2904 90.3762 32.4125C92.2599 30.5345 94.8148 29.4794 97.4788 29.4794C100.143 29.4794 102.698 30.5345 104.581 32.4125C106.465 34.2904 107.523 36.8376 107.523 39.4934C107.523 39.5635 107.523 39.6236 107.523 39.6937C107.523 42.3496 106.465 44.8967 104.581 46.7747C102.698 48.6527 100.143 49.7077 97.4788 49.7077C94.8148 49.7077 92.2599 48.6527 90.3762 46.7747C88.4924 44.8967 87.4342 42.3496 87.4342 39.6937C87.4442 39.5936 87.4342 39.5435 87.4342 39.4934ZM91.6429 17.4025C91.7053 15.9025 92.347 14.4846 93.4336 13.4453C94.5203 12.406 95.9679 11.8257 97.4738 11.8257C98.9797 11.8257 100.427 12.406 101.514 13.4453C102.601 14.4846 103.242 15.9025 103.305 17.4025C103.304 17.8237 103.257 18.2435 103.164 18.6543C102.879 19.9474 102.16 21.1047 101.125 21.9345C100.09 22.7642 98.8018 23.2165 97.4738 23.2165C96.1458 23.2165 94.8576 22.7642 93.8227 21.9345C92.7878 21.1047 92.0684 19.9474 91.7835 18.6543C91.6904 18.2435 91.6433 17.8237 91.6429 17.4025Z" fill="white"/>
<path d="M12.8125 91.5859V93.5887H1.14062V91.5859H12.8125Z" fill="white"/>
<path d="M36.1563 81.7517H44.5838V83.8646H27.7791V88.6613C27.7054 93.7284 26.8751 97.7808 25.288 100.818L23.6206 99.3463C24.8929 96.7827 25.5626 93.2211 25.6295 88.6613V81.7517H33.8963C33.5868 81.1188 33.231 80.5097 32.8315 79.9291L35.1519 79.5586C35.5281 80.2701 35.8634 81.0023 36.1563 81.7517ZM36.7088 84.5856V87.1192H44.0815V89.122H36.6686V92.0461H42.6954V100.888H40.5559V99.8871H31.4554V100.888H29.2757V92.0661H34.4789V84.5856H36.7088ZM40.5961 97.8442V94.129H31.4554V97.8843L40.5961 97.8442Z" fill="white"/>
<path d="M61.6293 87.1198H72.6182V88.9624H61.6293V90.4044H75.9932V92.4072H61.1371V98.5258C63.0422 98.1543 64.9185 97.649 66.7521 97.0137L67.1438 98.9464C64.5497 99.7902 61.8931 100.43 59.1985 100.859L58.3447 99.0365C58.8068 98.8262 59.0378 98.5558 59.0378 98.1853V92.4373H56.0244V90.4345H59.54V80.3203H73.7934V82.3231H61.6293V83.8152H72.5981V85.6578H61.6293V87.1198ZM69.4742 95.5216C70.915 94.8421 72.2189 93.9054 73.3213 92.7577L74.7275 94.2098C73.6873 95.273 72.4664 96.1443 71.1215 96.7834C72.8201 97.8913 74.6949 98.7039 76.6662 99.1867L75.4407 100.999C70.8202 99.7075 67.5456 97.3141 65.607 93.7691L67.3146 92.7677C67.8987 93.7839 68.6259 94.7113 69.4742 95.5216Z" fill="white"/>
<path d="M87.9665 100.678L87.4743 98.5549C88.0743 98.6285 88.6779 98.6686 89.2824 98.675C89.3977 98.6925 89.5154 98.6834 89.6266 98.6484C89.7378 98.6134 89.8395 98.5535 89.9239 98.4733C90.0083 98.393 90.0731 98.2946 90.1134 98.1855C90.1536 98.0764 90.1683 97.9595 90.1563 97.8439V92.8969C89.2824 93.2374 88.3984 93.5579 87.5246 93.8983L86.9219 91.6152C88.0199 91.3489 89.1001 91.0144 90.1563 90.6137V85.807H87.3839V83.7341H90.1563V79.7285H92.3259V83.7341H94.8672V85.827H92.3259V89.7425C93.0893 89.372 93.8326 89.0015 94.5658 88.5909V90.804C93.8326 91.2146 93.0692 91.5851 92.3259 91.9456V98.3946C92.3733 98.7044 92.3471 99.021 92.2494 99.3189C92.1518 99.6168 91.9854 99.8876 91.7636 100.11C91.5418 100.332 91.2708 100.499 90.9725 100.598C90.6741 100.696 90.3567 100.724 90.0458 100.678H87.9665ZM95.8415 82.5324V80.4595H107.594C107.594 84.9759 107.292 87.6696 106.79 88.5609C106.493 89.0026 106.083 89.3578 105.603 89.59C105.123 89.8223 104.59 89.9233 104.058 89.8827C103.474 89.8722 102.89 89.8321 102.31 89.7626L101.778 87.8499C102.511 87.8499 103.114 87.94 103.576 87.9901C103.896 88.008 104.215 87.9274 104.488 87.759C104.761 87.5906 104.976 87.3427 105.103 87.0488C105.382 85.5601 105.506 84.0466 105.474 82.5324H101.587C101.304 84.0713 100.793 85.5597 100.07 86.9486C99.1272 88.3745 97.8827 89.5776 96.4241 90.4736L95.0781 88.7511C96.2879 88.0579 97.3358 87.1157 98.1518 85.9873C98.7707 84.9152 99.2053 83.7475 99.4375 82.5324H95.8415ZM107.202 100.888H105.032V100.077H98.433V100.888H96.2333V91.0043H107.202V100.888ZM105.032 97.9841V93.1273H98.433V97.9841H105.032Z" fill="white"/>
<path d="M119.457 91.1954L118.733 88.8621C121.153 86.1687 122.964 82.9896 124.047 79.5391L126.056 80.5405C125.465 82.3277 124.684 84.0466 123.726 85.6676V100.929H121.536V88.792C120.903 89.6232 120.19 90.4043 119.457 91.1954ZM126.558 89.1225L124.65 87.9208C126.357 85.4137 127.602 82.6227 128.326 79.6793L130.335 80.1199C130.134 80.8709 129.923 81.612 129.692 82.3029H139.395V83.7349C139.022 85.1391 138.566 86.5201 138.029 87.8707L135.93 87.2799C136.426 86.3725 136.827 85.416 137.125 84.4259H128.969C128.313 86.0626 127.506 87.6349 126.558 89.1225ZM129.923 89.6532C129.226 92.553 128.17 95.3551 126.779 97.9949L124.77 97.2539C126.156 94.6809 127.225 91.9507 127.954 89.1225L129.923 89.6532ZM128.668 100.769L128.185 98.6959C129.13 98.786 130.034 98.8561 130.887 98.8561C131.44 98.8561 131.721 98.5557 131.721 97.9649V86.1183H133.841V98.5357C133.879 98.8397 133.846 99.1485 133.746 99.4381C133.645 99.7277 133.48 99.9905 133.261 100.206C133.043 100.422 132.778 100.585 132.486 100.682C132.195 100.78 131.885 100.809 131.58 100.769H128.668ZM140.008 97.4742L138.089 98.3554C137.319 95.3361 136.346 92.372 135.176 89.483L137.125 88.8421C138.275 91.6533 139.238 94.5369 140.008 97.4742Z" fill="white"/>
<path d="M160.247 84.1161H151.961V82.0032H160.247V79.75H162.467V82.0032H170.754V84.1161H162.437V90.2647C164.913 93.5656 168.199 96.1761 171.98 97.8453L170.774 99.8481C167.588 98.2716 164.753 96.0715 162.437 93.3791V100.84H160.217V93.4292C157.92 96.1329 155.102 98.3497 151.931 99.9483L150.775 97.9455C154.51 96.2282 157.755 93.6088 160.217 90.3248L160.247 84.1161ZM152.905 92.618L151.539 90.9557C153.471 89.3567 154.814 87.1616 155.356 84.717L157.365 85.0674C157.088 86.1389 156.718 87.1844 156.26 88.1918C157.278 88.731 158.243 89.3647 159.143 90.0845L157.987 91.907C157.156 91.1516 156.251 90.4807 155.285 89.9042C154.626 90.9113 153.824 91.8186 152.905 92.598V92.618ZM165.029 91.9471L163.723 90.2247C165.31 88.764 166.408 86.8515 166.867 84.747L168.876 85.0875C168.634 86.085 168.298 87.0574 167.871 87.9915C169.049 88.6477 170.162 89.4121 171.196 90.2747L170.001 92.1273C169.081 91.2201 168.071 90.4081 166.987 89.7039C166.44 90.5313 165.781 91.2794 165.029 91.9271V91.9471Z" fill="white"/>
<path d="M193.194 79.6797V86.6094H201.742V88.7223H193.194V97.9853H203.52V100.138H182.808V97.9853H190.924V79.6797H193.194Z" fill="white"/>
<path d="M214.589 83.2251V81.2223H221.701V83.2251H219.21V88.5927H221.4V90.5955H219.21V96.0331C220.084 95.6826 220.938 95.3121 221.791 94.9015V97.1346C219.534 98.1398 217.204 98.9734 214.821 99.6281L214.268 97.5252C215.217 97.3378 216.156 97.1004 217.081 96.8142V90.5955H214.8V88.5927H217.081V83.2251H214.589ZM226.713 79.6602V86.3796C226.643 93.0389 225.287 97.8957 222.605 100.96L220.978 99.528C222.913 97.2915 224.068 93.9535 224.443 89.5139C223.523 88.4925 222.481 87.5878 221.339 86.8202L222.264 85.0677C223.104 85.6158 223.873 86.265 224.554 87.0004C224.554 86.7701 224.554 86.5698 224.554 86.3595V79.6602H226.713ZM227.637 83.0449V81.0421H235.211V83.0449H232.469V88.9832H234.87V90.986H232.469V98.136H235.563V100.139H226.834V98.136H230.339V91.006H227.889V89.0032H230.339V83.0449H227.637Z" fill="white"/>
<path d="M257.992 91.5859V93.5887H246.331V91.5859H257.992Z" fill="white"/>
</svg>
