<svg width="24" height="24" xmlns="http://www.w3.org/2000/svg">
    <g fill="none" fill-rule="evenodd">
        <path d="M0 0h24v24H0z"/>
        <path d="M10.195 2.66a2.496 2.496 0 0 1 2.496 2.455V7.73a.621.621 0 0 1-1.242.01V5.156c0-.685-.55-1.242-1.233-1.253H4.992c-.685 0-1.242.55-1.254 1.233v13.731c0 .686.55 1.243 1.233 1.254h2.91a.621.621 0 0 1 .01 1.242H4.993a2.496 2.496 0 0 1-2.496-2.455V5.156A2.496 2.496 0 0 1 4.951 2.66h5.244zm9.094 6.914a2.496 2.496 0 0 1 2.496 2.496v6.797a2.496 2.496 0 0 1-2.496 2.496h-7.36a2.496 2.496 0 0 1-2.495-2.496V12.07a2.496 2.496 0 0 1 2.496-2.496zm0 1.242h-7.36c-.692 0-1.253.562-1.253 1.254v6.797c0 .693.561 1.254 1.254 1.254h7.36c.692 0 1.253-.561 1.253-1.254V12.07c0-.692-.561-1.254-1.254-1.254zm-5.437 5.438c.34 0 .615.272.62.61v1.066a.621.621 0 0 1-1.241.01v-1.065c0-.343.278-.621.62-.621zm3.515 0c.34 0 .616.272.621.61v1.066a.621.621 0 0 1-1.242.01v-1.065c0-.343.278-.621.621-.621zm0-3.867c.34 0 .616.272.621.61v1.066a.621.621 0 0 1-1.242.01v-1.065c0-.343.278-.621.621-.621zm-3.515 0c.34 0 .615.272.62.61v1.066a.621.621 0 0 1-1.241.01v-1.065c0-.343.278-.621.62-.621zM7.605 9.34c.34 0 .616.272.621.61v1.066a.621.621 0 0 1-1.242.01V9.96c0-.343.278-.621.621-.621zm0-3.867c.34 0 .616.272.621.61v1.065a.621.621 0 0 1-1.242.01V6.095c0-.343.278-.621.621-.621z" fill="#353D49"/>
    </g>
</svg>
