<svg width="12" height="12" viewBox="0 0 12 12" fill="none" xmlns="http://www.w3.org/2000/svg">
<path fill-rule="evenodd" clip-rule="evenodd" d="M10.9229 0.408648C11.1051 0.232002 11.3959 0.233559 11.5762 0.413503C11.7582 0.595265 11.7585 0.890206 11.5767 1.07227L6.6714 5.98584L11.5767 10.8994C11.7585 11.0815 11.7582 11.3764 11.5762 11.5582C11.3959 11.7381 11.1051 11.7397 10.9229 11.563L10.9174 11.5576L6.01318 6.64516L1.10896 11.5576L1.10347 11.563C0.921309 11.7397 0.630435 11.7381 0.450189 11.5582C0.268122 11.3764 0.267874 11.0815 0.449636 10.8994L5.35497 5.98584L0.449636 1.07227C0.267875 0.890206 0.268122 0.595265 0.450189 0.413503C0.630435 0.233559 0.921309 0.232002 1.10347 0.408648L1.10896 0.414056L6.01318 5.32652L10.9174 0.414056L10.9229 0.408648Z" fill="#fff"/>
</svg>
