<?xml version="1.0" encoding="UTF-8"?>
<svg width="512px" height="512px" viewBox="0 0 512 512" version="1.1" xmlns="http://www.w3.org/2000/svg" xmlns:xlink="http://www.w3.org/1999/xlink">
    <title>app/ic_bearworks_hire</title>
    <defs>
        <rect id="path-1" x="8" y="8" width="496" height="496" rx="101.052632"></rect>
    </defs>
    <g id="app/ic_bearworks_hire" stroke="none" stroke-width="1" fill="none" fill-rule="evenodd">
        <mask id="mask-2" fill="white">
            <use xlink:href="#path-1"></use>
        </mask>
        <use id="mask" stroke="#EBEBEB" stroke-width="16" fill-rule="nonzero" xlink:href="#path-1"></use>
        <rect id="Rectangle" fill="#FFFFFF" mask="url(#mask-2)" x="0" y="0" width="512" height="512"></rect>
        <g id="Group" mask="url(#mask-2)">
            <g>
                <rect id="Mask" fill="#FFFFFF" x="0" y="0" width="512" height="512"></rect>
                <path d="M0,325.772353 C49.2876617,313.390784 135.295026,307.2 258.022093,307.2 C380.749161,307.2 465.408463,313.390784 512,325.772353 L512,511.974713 L0,511.974713 L0,325.772353 Z" id="Rectangle" fill="#2369FF"></path>
                <path d="M330.417572,93.867008 L330.417572,110.933675 L315.92195,110.933675 L315.92195,161.299833 L330.049091,161.299833 L330.049091,178.366466 L315.92195,178.366466 L315.92195,247.354914 L322.101428,247.354914 L317.770467,264.533333 L269.097796,264.421547 L269.097796,253.328236 C269.097796,250.303388 271.397983,247.804845 274.380827,247.409427 L275.21004,247.354914 L285.360731,247.354914 L285.360731,178.366466 L269.097796,178.366466 L269.097796,161.299833 L285.360731,161.299833 L285.360731,110.933675 L275.21004,110.933675 C272.116444,110.933675 269.558458,108.686456 269.15361,105.770865 L269.097796,104.960319 L269.097796,93.867008 L330.417572,93.867008 Z M342.637083,93.8666667 L373.32142,93.8666667 L373.185356,101.336448 L373.185356,101.336448 L373.128062,115.910195 L373.128062,115.910195 L373.204499,149.905499 L373.204499,149.905499 L373.510899,202.996688 L373.510899,202.996688 C373.552375,208.90601 372.965649,214.795183 371.762341,220.578283 L370.96646,224.034726 L360.73369,264.532992 L330.04848,264.532992 L340.227986,224.06118 C341.933302,217.280607 342.779411,210.323394 342.749723,203.341434 L342.5874,159.347128 L342.5874,159.347128 L342.547146,144.621978 L331.966852,144.621978 C328.872455,144.621978 326.315136,142.375506 325.910405,139.459382 L325.854608,138.648657 L325.854608,127.555346 L342.514838,127.555346 L342.561894,98.306477 L342.561894,98.306477 L342.637083,93.8666667 Z M149.039794,238.933043 L149.039794,264.533043 L118.354584,264.533043 L118.354584,238.933043 L149.039794,238.933043 Z M192.706537,238.933043 L192.706537,264.533043 L162.145318,264.533043 L162.145318,238.933043 L192.706537,238.933043 Z M443.733333,93.9783678 L443.733333,105.071679 C443.733333,108.095744 441.433881,110.594968 438.450486,110.990504 L437.62109,111.045034 L427.470399,111.045034 L427.470399,161.30026 L443.733333,161.30026 L443.733333,178.366892 L427.470399,178.366892 L427.470399,247.354488 L437.62109,247.354488 C440.715486,247.354488 443.272805,249.60096 443.677536,252.517084 L443.733333,253.327809 L443.733333,264.42112 L372.086485,264.532907 L376.418319,247.354488 L396.90918,247.354488 L396.90918,178.366892 L385.230428,178.366892 L385.230428,161.30026 L396.90918,161.30026 L396.90918,111.045034 L385.230428,111.045034 L385.230428,93.9783678 L443.733333,93.9783678 Z M105.386585,238.933043 L100.095128,259.984734 C99.498263,262.358893 97.4960342,264.106051 95.0819243,264.464997 L94.1592665,264.533043 L68.2669286,264.533043 L74.701375,238.933043 L105.386585,238.933043 Z M236.468194,238.933043 L242.90264,264.533043 L217.010302,264.533043 C214.509522,264.533043 212.295057,263.049681 211.362843,260.844166 L211.075314,259.984734 L205.783857,238.933043 L236.468194,238.933043 Z M186.594118,166.399428 C189.688514,166.399428 192.245834,168.646618 192.650565,171.562204 L192.706362,172.37275 L192.706362,177.902339 L242.902728,177.902339 L238.599708,194.968118 L192.706362,194.968118 L192.706362,207.359346 L242.902728,207.359346 L237.738755,227.839305 L162.145143,227.839305 L162.145143,166.399428 L186.594118,166.399428 Z M149.038921,139.093243 L149.038921,227.839732 L118.477702,227.839732 L118.477702,214.185573 L98.8285842,214.185573 L98.8285842,221.866411 C98.8285842,224.890476 96.5291314,227.389671 93.5457369,227.785203 L92.7163404,227.839732 L68.2673652,227.839732 L68.2673652,139.093243 L149.038921,139.093243 Z M118.478575,185.172297 L98.8285842,185.172297 L98.8285842,197.120647 L118.478575,197.120647 L118.478575,185.172297 Z M118.477702,156.159875 L98.827711,156.159875 L98.827711,168.106518 L118.477702,168.106518 L118.477702,156.159875 Z M186.594468,93.8666667 C189.688063,93.8666667 192.246049,96.1138562 192.650897,99.0294425 L192.706711,99.8399881 L192.706711,105.368724 L242.902204,105.368724 L238.600057,122.435356 L192.706711,122.435356 L192.706711,134.826585 L242.902204,134.826585 L237.738231,155.306544 L162.145492,155.306544 L162.145492,93.8666667 L186.594468,93.8666667 Z M105.813307,93.8666667 L102.358143,110.933333 L118.957251,110.933333 L118.957251,106.666667 C118.957251,103.642578 121.256704,101.143381 124.240098,100.747849 L125.069495,100.69332 L149.51847,100.69332 L149.51847,128 L68.2666667,128 L75.1769949,93.8666667 L105.813307,93.8666667 Z" id="Shape" fill="#2B3340"></path>
                <path d="M175.398927,384.762706 C176.823693,381.209394 180.080302,377.063863 183.031604,374.596285 C168.580402,369.661129 154.434506,362.949317 141.102763,349.328286 L143.239913,346.564599 L143.239913,346.564599 L132.350626,341.333333 C122.173723,356.138801 103.54999,367.884472 85.3333333,374.793691 C88.3864043,377.458675 91.8465514,381.702909 93.5766249,384.762706 C108.333135,378.2483 122.784337,368.970207 134.0807,357.323239 C147.921288,371.635191 161.3548,378.840519 175.398927,384.762706 Z M177.536076,431.745391 L177.536076,421.184157 L141.102763,421.184157 L141.102763,401.443533 L168.275094,401.443533 L168.275094,390.882299 L141.102763,390.882299 L141.102763,370.549457 L128.279865,370.549457 L128.279865,421.184157 L114.0322,421.184157 L114.0322,386.736768 L102.023455,386.736768 L102.023455,421.184157 L91.0323991,421.184157 L91.0323991,431.745391 L177.536076,431.745391 Z M262.106142,434.509078 L262.106142,412.004767 L301.592526,412.004767 L301.592526,402.331861 L262.106142,402.331861 L262.106142,397.988924 L292.636852,397.988924 L292.636852,389.500456 L262.106142,389.500456 L262.106142,385.058815 L297.419996,385.058815 L297.419996,376.175535 L277.778573,376.175535 C279.610415,374.398878 281.747565,372.22741 283.986484,369.858535 L274.420195,367.48966 L301.287219,367.48966 L301.287219,358.31027 L288.159014,358.31027 C290.70324,354.855661 293.451004,350.41402 296.300537,345.873677 L283.579408,343.011286 C282.154641,347.255521 279.406877,353.276411 277.06619,357.224536 L280.729875,358.31027 L271.672431,358.31027 L271.672431,342.221661 L260.274299,342.221661 L260.274299,358.31027 L252.641622,358.31027 L252.641622,342.221661 L241.447028,342.221661 L241.447028,358.31027 L232.084277,358.31027 L236.969191,356.533614 C235.646194,352.782895 232.287816,346.860708 229.234745,342.715177 L218.854303,346.071083 C221.194991,349.821802 223.840986,354.559551 225.367521,358.31027 L211.526933,358.31027 L211.526933,367.48966 L237.478036,367.48966 L230.659511,368.970207 C231.982508,371.141675 233.509044,373.905363 234.424965,376.175535 L215.699463,376.175535 L215.699463,385.058815 L250.097396,385.058815 L250.097396,389.500456 L220.787915,389.500456 L220.787915,397.988924 L250.097396,397.988924 L250.097396,402.331861 L211.323395,402.331861 L211.323395,412.004767 L250.097396,412.004767 L250.097396,434.509078 L262.106142,434.509078 Z M269.229974,376.175535 L241.447028,376.175535 L246.942556,374.892394 C246.128404,372.819628 244.500099,369.957238 242.871795,367.48966 L270.75651,367.48966 C269.331743,369.858535 267.194594,372.819628 265.566289,375.0898 L269.229974,376.175535 Z M292.84039,432.140203 L301.388988,425.724501 C294.87577,422.566001 282.867024,417.630845 274.623733,414.669751 L266.48221,420.197126 C275.030809,423.651735 286.937786,428.883 292.84039,432.140203 Z M218.040151,432.140203 C228.522361,429.771328 240.734645,424.638766 247.654939,419.012688 L239.106341,415.26197 C232.89843,418.913985 221.093222,422.269891 210.916319,423.651735 C213.358776,425.823204 216.513616,429.672625 218.040151,432.140203 Z M338.534685,434.903891 C343.826675,425.527094 346.065593,412.695689 346.981515,399.864283 L356.649573,399.864283 L356.649573,434.114266 L367.640628,434.114266 L367.640628,389.500456 L347.388591,389.500456 C347.49036,386.934175 347.49036,384.466597 347.49036,381.999019 L347.49036,381.4068 L368.353011,381.4068 L368.353011,345.084052 L357.463725,345.084052 L357.463725,371.141675 L347.49036,371.141675 L347.49036,343.011286 L336.804611,343.011286 L336.804611,381.999019 C336.804611,396.409674 336.092228,415.558079 330.189624,427.797266 C332.632081,429.376516 336.601073,432.831125 338.534685,434.903891 Z M377.308686,435.2 C379.03876,432.436313 380.463526,429.376516 381.582985,426.119313 C383.923673,428.488188 386.671437,432.0415 388.096204,434.607781 C393.897038,431.251875 399.087259,426.810235 403.565096,421.677673 C407.839396,426.612829 412.724309,430.75836 418.423375,433.916859 C420.255218,430.955766 423.918903,426.415422 426.666667,424.243954 C420.560525,421.28286 415.166766,417.038626 410.688929,411.906064 C416.89684,401.640939 421.171139,388.908237 423.410058,373.609253 L415.980918,371.339082 L413.945538,371.733894 L387.282051,371.733894 L387.282051,358.408973 L421.985291,358.408973 L421.985291,347.847739 L375.985689,347.847739 L375.985689,382.68994 C375.985689,396.310971 375.171536,416.249001 367.945935,428.883 C370.795468,430.166141 375.171536,433.225938 377.308686,435.2 Z M403.259789,401.34483 C400.104949,395.521346 397.458954,389.105643 395.525343,382.393831 L410.281853,382.393831 C408.653548,389.204346 406.31286,395.620049 403.259789,401.34483 Z M382.295369,424.046547 C385.755516,413.485314 386.874975,400.950018 387.180282,389.993971 C389.724508,397.890221 392.67581,405.194252 396.543033,411.708658 C392.370503,416.84122 387.689127,421.085454 382.295369,424.046547 Z" id="企業版" fill="#FFFFFF" fill-rule="nonzero"></path>
            </g>
        </g>
    </g>
</svg>