<svg width="18" height="18" viewBox="0 0 18 18" fill="none" xmlns="http://www.w3.org/2000/svg">
<path fill-rule="evenodd" clip-rule="evenodd" d="M10.4102 3.67061H7.5847L7.58797 3.61396C7.64229 3.14625 8.03978 2.7832 8.52207 2.7832H9.47129L9.58096 2.78953C10.0314 2.84185 10.3848 3.21248 10.4102 3.67061ZM14.4492 3.67061H11.3413L11.3377 3.57733C11.2631 2.61179 10.456 1.85156 9.47129 1.85156H8.52207L8.37577 1.85719C7.42762 1.93049 6.67745 2.71012 6.65074 3.67061H3.55078C3.29352 3.67061 3.08496 3.87916 3.08496 4.13643C3.08496 4.36511 3.24975 4.5553 3.46705 4.59474L3.55078 4.60225H14.4492C14.7065 4.60225 14.915 4.39369 14.915 4.13643C14.915 3.90775 14.7503 3.71755 14.533 3.67811L14.4492 3.67061ZM14.0325 5.73592C14.0049 5.51679 13.824 5.34192 13.5956 5.3295C13.3387 5.31552 13.1192 5.51244 13.1052 5.76932L12.6515 14.1073L12.6383 14.2326C12.5547 14.7664 12.1342 15.1726 11.6785 15.1726H6.32149L6.21709 15.1655C5.7686 15.1046 5.37851 14.659 5.34849 14.1073L4.89482 5.76932L4.88278 5.68612C4.83159 5.47128 4.63272 5.31707 4.40438 5.3295C4.14749 5.34347 3.95058 5.56305 3.96456 5.81994L4.41823 14.158L4.43272 14.3168C4.5606 15.3125 5.36458 16.1042 6.32149 16.1042H11.6785L11.8283 16.0977C12.7676 16.016 13.5265 15.1735 13.5818 14.158L14.0354 5.81994L14.0325 5.73592ZM7.54707 6.95156C7.77575 6.95156 7.96594 7.11635 8.00539 7.33365L8.01289 7.41738V13.0065C8.01289 13.2637 7.80434 13.4723 7.54707 13.4723C7.31839 13.4723 7.1282 13.3075 7.08876 13.0902L7.08125 13.0065V7.41738C7.08125 7.16012 7.2898 6.95156 7.54707 6.95156ZM10.9937 7.33365C10.9542 7.11635 10.764 6.95156 10.5354 6.95156C10.2781 6.95156 10.0695 7.16012 10.0695 7.41738V13.0065L10.077 13.0902C10.1165 13.3075 10.3067 13.4723 10.5354 13.4723C10.7926 13.4723 11.0012 13.2637 11.0012 13.0065V7.41738L10.9937 7.33365Z" fill="#80858C"/>
</svg>
