<svg width="18" height="18" xmlns="http://www.w3.org/2000/svg">
    <g fill="none" fill-rule="evenodd">
        <path d="M18 0v18H0V0z"/>
        <path d="m11.19 9.918-.015.016-2.745 2.703a.466.466 0 0 1-.659-.659l.006-.005 2.554-2.515-8.221.008a.466.466 0 0 1-.009-.932h.008l8.187-.008-2.52-2.5a.466.466 0 0 1 .65-.667l.006.006 2.743 2.722c.505.505.51 1.32.015 1.831zm5.123 4.044c-.017 1.017-.83 1.841-1.837 1.841H9.423a.466.466 0 0 1 .008-.932h5.06c.49-.008.89-.423.89-.94V4.036c-.009-.514-.413-.924-.905-.924H9.423a.466.466 0 0 1 .007-.932h5.076c1.003.017 1.806.851 1.806 1.872z" fill="#80858C"/>
    </g>
</svg>
