<svg xmlns="http://www.w3.org/2000/svg" width="24" height="24" viewBox="0 0 24 24">
    <g fill="none" fill-rule="evenodd">
        <g fill="#2B3340" fill-rule="nonzero">
            <g>
                <g>
                    <path d="M12 3c2.761 0 5 2.239 5 5s-2.239 5-5 5-5-2.239-5-5 2.239-5 5-5zm0 2c-1.657 0-3 1.343-3 3s1.343 3 3 3 3-1.343 3-3-1.343-3-3-3zM16.5 14c1.933 0 3.5 1.567 3.5 3.5v1.9c0 .884-.716 1.6-1.6 1.6H5.6c-.884 0-1.6-.716-1.6-1.6v-1.9C4 15.567 5.567 14 7.5 14h9zm0 2h-9c-.78 0-1.42.595-1.493 1.356L6 17.5V19h12v-1.5c0-.78-.595-1.42-1.356-1.493L16.5 16z" transform="translate(-304 -109) translate(0 93) translate(304 16)"/>
                </g>
            </g>
        </g>
    </g>
</svg>
