<svg width="18" height="18" xmlns="http://www.w3.org/2000/svg">
    <g fill="none" fill-rule="evenodd">
        <path d="M0 0h18v18H0z"/>
        <path d="M9 9.114c1.26 0 2.472.342 3.53.979a.466.466 0 0 1-.475.802l-.007-.004a5.916 5.916 0 0 0-8.944 4.585v.02h11.793l-.002-.028a5.882 5.882 0 0 0-1.28-3.207l-.025-.031a.466.466 0 1 1 .723-.588 6.82 6.82 0 0 1 1.534 4.319.466.466 0 0 1-.458.466H2.619a.466.466 0 0 1-.466-.466A6.847 6.847 0 0 1 9 9.114zm0-7.611A3.454 3.454 0 1 1 9 8.41a3.454 3.454 0 0 1 0-6.908zm0 .932a2.522 2.522 0 1 0 0 5.044 2.522 2.522 0 0 0 0-5.044z" fill="#80858C"/>
    </g>
</svg>
