<svg width="24" height="24" viewBox="0 0 24 24" fill="none" xmlns="http://www.w3.org/2000/svg">
<path d="M9.60938 12.2627C9.60938 12.8452 9.13718 13.3174 8.55469 13.3174C7.9722 13.3174 7.5 12.8452 7.5 12.2627C7.5 11.6802 7.9722 11.208 8.55469 11.208C9.13718 11.208 9.60938 11.6802 9.60938 12.2627Z" fill="#2369FF"/>
<path d="M16.4766 12.2627C16.4766 12.8452 16.0044 13.3174 15.4219 13.3174C14.8394 13.3174 14.3672 12.8452 14.3672 12.2627C14.3672 11.6802 14.8394 11.208 15.4219 11.208C16.0044 11.208 16.4766 11.6802 16.4766 12.2627Z" fill="#2369FF"/>
<path d="M10.2666 14.5852C10.2035 14.2501 9.88159 14.0282 9.54548 14.0891C9.20796 14.1503 8.98394 14.4735 9.04511 14.811L9.65625 14.7002C9.04511 14.811 9.04517 14.8113 9.04523 14.8116L9.04535 14.8123L9.04563 14.8138C9.04583 14.8149 9.04605 14.8161 9.0463 14.8174L9.04694 14.8207C9.04728 14.8225 9.04766 14.8244 9.04808 14.8265C9.04947 14.8336 9.05129 14.8424 9.05357 14.8529C9.05814 14.874 9.06459 14.9019 9.07331 14.9357C9.09069 15.0032 9.11728 15.0951 9.15616 15.2033C9.23331 15.4179 9.36237 15.7068 9.57157 15.9992C10.0035 16.6027 10.7653 17.1963 12 17.1963C13.2347 17.1963 13.9965 16.6027 14.4284 15.9992C14.6376 15.7068 14.7667 15.4179 14.8438 15.2033C14.8827 15.0951 14.9093 15.0032 14.9267 14.9357C14.9354 14.9019 14.9419 14.874 14.9464 14.8529C14.9474 14.8483 14.9483 14.8441 14.9491 14.8402L14.9498 14.837C14.9506 14.8332 14.9513 14.8297 14.9519 14.8265C14.9522 14.8251 14.9525 14.8237 14.9527 14.8225C14.9531 14.8206 14.9534 14.8189 14.9537 14.8174C14.9539 14.8161 14.9542 14.8149 14.9544 14.8138L14.9546 14.8123L14.9548 14.8116C14.9548 14.8113 14.9549 14.811 14.3437 14.7002L14.9549 14.811C15.0161 14.4735 14.792 14.1503 14.4545 14.0891C14.1184 14.0282 13.7965 14.2501 13.7334 14.5852C13.7332 14.586 13.7329 14.5875 13.7325 14.5896C13.7311 14.5961 13.7283 14.6084 13.7238 14.6259C13.7147 14.6609 13.6991 14.7156 13.6748 14.7831C13.6256 14.9201 13.5445 15.0999 13.4183 15.2763C13.1792 15.6103 12.7692 15.9541 12 15.9541C11.2308 15.9541 10.8207 15.6103 10.5817 15.2763C10.4555 15.0999 10.3744 14.9201 10.3252 14.7831C10.3009 14.7156 10.2853 14.6609 10.2762 14.6259C10.2717 14.6084 10.2689 14.5961 10.2675 14.5896C10.2671 14.5875 10.2668 14.586 10.2666 14.5852Z" fill="#2369FF"/>
<path fill-rule="evenodd" clip-rule="evenodd" d="M12.6211 4.22851C13.0193 4.00915 13.2891 3.58541 13.2891 3.09866C13.2891 2.38673 12.7119 1.8096 12 1.8096C11.2881 1.8096 10.7109 2.38673 10.7109 3.09866C10.7109 3.58541 10.9807 4.00915 11.3789 4.22851V5.47757H6C4.62145 5.47757 3.50391 6.59511 3.50391 7.97366V18.6612C3.50391 20.0397 4.62145 21.1573 6 21.1573H18C19.3786 21.1573 20.4961 20.0397 20.4961 18.6612V7.97366C20.4961 6.59511 19.3786 5.47757 18 5.47757H12.6211V4.22851ZM6 6.71976C5.30749 6.71976 4.74609 7.28115 4.74609 7.97366V18.6612C4.74609 19.3537 5.30749 19.9151 6 19.9151H18C18.6925 19.9151 19.2539 19.3537 19.2539 18.6612V7.97366C19.2539 7.28115 18.6925 6.71976 18 6.71976H6Z" fill="#2369FF"/>
<path d="M2.87109 11.208C2.87109 10.865 2.59302 10.5869 2.25 10.5869C1.90698 10.5869 1.62891 10.865 1.62891 11.208V15.4268C1.62891 15.7698 1.90698 16.0479 2.25 16.0479C2.59302 16.0479 2.87109 15.7698 2.87109 15.4268V11.208Z" fill="#2369FF"/>
<path d="M21.75 10.5869C22.093 10.5869 22.3711 10.865 22.3711 11.208V15.4268C22.3711 15.7698 22.093 16.0479 21.75 16.0479C21.407 16.0479 21.1289 15.7698 21.1289 15.4268V11.208C21.1289 10.865 21.407 10.5869 21.75 10.5869Z" fill="#2369FF"/>
</svg>
