<svg width="24" height="25" viewBox="0 0 24 25" fill="none" xmlns="http://www.w3.org/2000/svg">
<path fill-rule="evenodd" clip-rule="evenodd" d="M18.578 17.918L21.318 20.658C21.638 20.978 21.638 21.498 21.318 21.818C21.001 22.135 20.489 22.138 20.168 21.828L17.428 19.088C17.108 18.768 17.108 18.248 17.428 17.928C17.745 17.611 18.258 17.608 18.578 17.918ZM10.672 2.5C15.462 2.5 19.344 6.383 19.344 11.172C19.344 15.962 15.461 19.844 10.672 19.844C5.882 19.844 2 15.96 2 11.172C2 6.382 5.883 2.5 10.672 2.5ZM10.672 4.14C6.789 4.14 3.641 7.289 3.641 11.172C3.641 15.055 6.789 18.203 10.671 18.203C14.555 18.203 17.703 15.055 17.703 11.172C17.703 7.289 14.555 4.141 10.672 4.141V4.14Z" fill="#353D49"/>
</svg>
