<svg width="18" height="18" xmlns="http://www.w3.org/2000/svg">
    <g fill="none" fill-rule="evenodd">
        <path d="M0 0h18v18H0z"/>
        <path d="M14.522 2.32c.67 0 1.248.473 1.38 1.13l.636 3.182c.02.099.029.197.028.293h.003a1.872 1.872 0 0 1-.862 1.415v5.652a1.872 1.872 0 0 1-1.842 1.872H4.184a1.872 1.872 0 0 1-1.872-1.84L2.31 8.34a1.872 1.872 0 0 1-.862-1.415l.001-.017c0-.097.01-.193.03-.288l.667-3.182A1.406 1.406 0 0 1 3.523 2.32h11zM13.28 7.974a1.868 1.868 0 0 1-1.424.657c-.57 0-1.08-.255-1.423-.657a1.868 1.868 0 0 1-1.424.657c-.57 0-1.08-.255-1.424-.657a1.868 1.868 0 0 1-1.424.657c-.57 0-1.08-.255-1.424-.657a1.868 1.868 0 0 1-1.424.657l-.07-.004v5.365a.94.94 0 0 0 .925.94h2.635v-2.873c0-.777.63-1.407 1.406-1.407h1.582c.777 0 1.406.63 1.406 1.407v2.873h2.637a.94.94 0 0 0 .94-.924V8.63h-.07c-.57 0-1.08-.254-1.424-.656zM9.8 11.584h-1.59c-.26 0-.47.208-.475.467v2.873h2.532v-2.865c0-.26-.209-.47-.467-.475zM4.546 3.251l-1.023.001a.475.475 0 0 0-.463.37l-.001.007-.667 3.182a.475.475 0 0 0-.01.097l.001.017.005.001a.94.94 0 0 0 1.634.451l.007-.008.268-.315.249-3.803zm2.573 0h-1.64l-.252 3.862.219.256c.176.206.43.327.705.33h.01c.276 0 .53-.118.709-.322l.007-.008.25-.295-.008-3.823zm2.848 0H8.059l.009 3.854.225.264c.176.206.43.327.705.33h.01c.277 0 .531-.118.71-.322l.006-.008.25-.293-.007-3.825zm2.588 0h-1.648l.009 3.854.225.264c.176.206.43.327.705.33h.01c.276 0 .531-.118.71-.322l.006-.008.234-.274-.251-3.844zm1.974.001h-1.04l.25 3.825.25.292c.176.206.43.327.704.33h.011a.94.94 0 0 0 .926-.773h.004a.475.475 0 0 0-.008-.103l-.001-.008-.637-3.182a.475.475 0 0 0-.459-.381z" fill="#80858C"/>
    </g>
</svg>
