<svg width="307" height="39" viewBox="0 0 307 39" fill="none" xmlns="http://www.w3.org/2000/svg">
<g clip-path="url(#clip0_1109_23075)">
<path d="M165.21 36.8922C172.687 34.5863 178.465 31.2322 182.544 26.813L181.107 38.4989H187.16L188.58 26.9459C191.649 31.0604 196.579 34.3503 203.355 36.8242L203.805 33.1772C201.96 32.0721 200.6 31.2219 199.725 30.6184C197.914 29.3687 196.129 27.7705 194.369 25.8237C192.966 24.268 191.938 23.0184 191.283 22.0747C192.312 21.7432 193.391 21.2501 194.505 20.604C196.154 19.6689 197.412 18.6658 198.279 17.6031C198.56 18.4363 198.841 19.6094 199.096 21.1141H204.698C203.559 18.4873 202.02 16.0729 200.082 13.8797C200.116 13.7266 200.141 13.5736 200.158 13.4121L200.566 10.1052H195.347L194.998 12.97C194.794 14.6108 194.284 15.9709 193.468 17.0591C192.89 17.8327 192.108 18.5808 191.13 19.3204L190.867 21.4967C190.297 20.6551 189.855 19.924 189.523 19.3204L190.798 8.94051H205.556L206.032 5.0895H191.275L191.81 0.711426H185.766L185.23 5.0895H170.515L170.039 8.94051H184.754L183.564 18.6403C183.258 19.0823 183.02 19.4139 182.858 19.6264C182.102 17.8497 180.81 15.8604 178.999 13.6586L179.033 13.4206L179.441 10.1137H174.196L173.847 12.9785C173.601 14.9763 172.912 16.6425 171.781 17.9772C171.059 18.8103 169.971 19.7284 168.5 20.7401L168.143 23.6644C172.351 22.2703 175.394 20.2895 177.282 17.7392C177.503 18.4958 177.715 19.6519 177.928 21.2076H181.677C180.138 23.1544 178.633 24.8036 177.18 26.1468C174.281 28.8246 170.438 31.1879 165.661 33.2452L165.21 36.8922Z" fill="white"/>
<path d="M41.9948 4.8005H28.5716C28.4015 3.46582 28.0105 2.11414 27.3984 0.745463H21.8727C22.0937 2.24166 22.1532 3.59334 22.0427 4.8005H6.35815L4.36038 21.0461C3.83332 25.3732 3.22974 28.5186 2.55815 30.4824C2.14159 31.7235 1.4615 33.0412 0.526381 34.4099L0.0078125 38.6604C1.92056 37.5043 3.39976 36.3652 4.43689 35.2345C6.33264 33.1942 7.67582 31.1115 8.47493 28.9862C9.43555 26.3933 10.0731 23.8005 10.3962 21.2077L11.9349 8.6515H41.5188L41.9948 4.8005Z" fill="white"/>
<path fill-rule="evenodd" clip-rule="evenodd" d="M32.5671 22.8059H25.8342L25.8257 22.8144L26.3783 18.3343H38.8579L39.334 14.4833H26.8543L27.4239 9.86716H21.0906L19.5009 22.8144H12.0029L10.2007 37.5298H34.6159L35.925 26.8439C36.0356 25.9258 36.0356 25.2627 35.925 24.8461C35.704 23.996 35.2109 23.4094 34.4288 23.0694C34.0633 22.8909 33.4427 22.8059 32.5671 22.8059ZM17.3161 26.6569H30.1613L29.3027 33.6703H16.4575L17.3161 26.6569Z" fill="white"/>
<path d="M54.6692 23.0949L53.3526 33.8318H61.1906L59.6519 37.6828H50.9213C49.9777 37.6828 49.3146 37.6063 48.915 37.4448C48.0989 37.1047 47.5719 36.5096 47.3423 35.651C47.2318 35.2515 47.2318 34.5799 47.3423 33.6533L48.643 23.0864H43.4403L43.9164 19.2354H49.7821L51.8309 2.52217H79.8336L79.3575 6.37317H57.3991L57.1951 8.03089H77.3173L76.8412 11.8819H56.7191L56.515 13.5566H76.6372L76.1611 17.4076H56.039L55.8179 19.2439H81.5593L81.0833 23.0949H54.6692Z" fill="white"/>
<path d="M73.0922 24.2765C71.7915 26.1723 70.2103 27.779 68.3231 29.1137L68.3146 29.1222C67.4475 28.0765 66.4868 26.3423 65.4412 23.9195H59.0484C59.3204 24.4466 59.6774 25.1521 60.1025 26.0363C61.5392 28.9096 63.3839 31.1964 65.6537 32.8882C69.1562 35.4725 73.6448 37.1472 79.128 37.9123L79.5446 34.5034C76.5182 33.8148 74.3759 33.1857 73.1262 32.6246C72.2166 32.1911 71.4005 31.7405 70.6949 31.273C71.9701 30.6694 73.0327 30.0743 73.8998 29.4962C75.7361 28.2721 77.4363 26.5378 79.0005 24.2765H73.0922Z" fill="white"/>
<path d="M96.5979 7.70784H100.755L100.279 11.5588H96.1218L95.2717 18.4533L99.3692 17.6286L98.9102 21.3351L94.7616 22.6273L93.3844 33.8573C93.1464 35.804 92.4153 37.0792 91.1997 37.6658C90.358 38.0653 89.0659 38.2694 87.3316 38.2694H84.1097L83.6762 34.4184H87.8077L89.0404 24.3955L83.8887 25.9852L84.5518 20.604L89.6355 19.5754L90.6216 11.5503H86.065L86.541 7.69934H91.0976L91.9393 0.86444H97.4395L96.5979 7.69934V7.70784Z" fill="white"/>
<path fill-rule="evenodd" clip-rule="evenodd" d="M98.2726 37.3852L100.321 20.672H116.754C117.672 20.672 118.327 20.7486 118.718 20.9186C119.508 21.2671 120.027 21.8622 120.273 22.7123C120.384 23.1204 120.384 23.7835 120.273 24.7101L118.718 37.3937H98.2726V37.3852ZM104.257 33.5342H113.694L114.799 24.5231H105.363L104.257 33.5342Z" fill="white"/>
<path d="M112.223 6.09263C111.866 8.915 110.982 11.3038 109.588 13.2676C108.423 14.8913 106.859 16.3025 104.912 17.5011C103.807 18.1897 102.192 18.9038 100.066 19.6604L100.5 16.1324C102.897 14.6703 104.563 12.8595 105.499 10.7087C105.983 9.59509 106.366 8.05639 106.629 6.09263H101.894L102.37 2.24162H119.304C120.222 2.24162 120.877 2.32663 121.268 2.47965C122.076 2.8282 122.594 3.43178 122.841 4.27339C122.951 4.67294 122.951 5.34453 122.841 6.27115L121.829 14.5342C121.719 15.4524 121.557 16.1154 121.345 16.532C120.92 17.3821 120.282 17.9772 119.432 18.3257C119.024 18.4873 118.378 18.5723 117.485 18.5723H111.135L110.514 14.7213H116.303L117.366 6.09263H112.223Z" fill="white"/>
<path d="M125.808 20.6891C127.789 19.6944 129.225 18.8698 130.126 18.2068L127.61 38.7285H133.11L136.443 11.6099C137.548 9.93516 138.44 8.20943 139.112 6.4327C139.571 5.19154 140.141 3.33829 140.804 0.864469H135.278C134.343 5.14053 132.702 8.93203 130.33 12.239C129.2 13.7947 127.865 15.1719 126.335 16.3705L125.808 20.6891Z" fill="white"/>
<path d="M135.178 33.3417L135.176 33.3642L135.167 33.3472L135.178 33.3417Z" fill="white"/>
<path d="M135.178 33.3417L135.508 30.0148C137.199 28.2551 138.491 26.3423 139.376 24.285C140.243 22.2703 140.829 19.924 141.144 17.2461H146.125C145.641 21.1056 144.57 24.2936 142.912 26.8014C141.773 28.5356 140.362 30.0233 138.67 31.273C137.856 31.8666 136.695 32.5534 135.178 33.3417Z" fill="white"/>
<path d="M143.635 12.9191C144.561 12.0349 145.42 10.9978 146.21 9.81615L146.219 9.82465H158.979L158.18 16.294H163.68L164.454 10.0032C164.564 9.08505 164.564 8.42196 164.454 8.00541C164.241 7.1553 163.748 6.56022 162.983 6.21167C162.618 6.04165 161.997 5.96514 161.121 5.96514H148.302C148.982 4.47744 149.577 2.75172 150.087 0.787959H144.357C143.448 4.09489 142.623 6.46671 141.892 7.9204C140.948 9.79064 139.724 11.4314 138.219 12.8595L137.718 16.9741C140.2 15.6649 142.172 14.3132 143.635 12.9191Z" fill="white"/>
<path d="M140.294 34.3759L140.727 38.2269H147.783C149.959 38.2269 151.175 37.1897 151.43 35.124L154.321 11.5759H148.82L146.023 34.3759H140.294Z" fill="white"/>
<path d="M162.499 32.3611C161.793 26.7929 160.526 21.7772 158.682 17.2971L158.673 17.3056L155.086 17.3226C156.182 22.2108 156.828 27.2264 157.032 32.3611H162.499Z" fill="white"/>
<path d="M244.942 12.9276H230.456L231.935 0.847473H225.322L221.309 33.4153H207.197L206.721 37.2663H244.5L244.976 33.4153H227.923L230.346 13.6757L230.975 16.7786H244.466L244.942 12.9276Z" fill="white"/>
<path d="M252.755 29.2922L253.996 19.1929H250.511L250.987 15.3249H254.472L255.526 6.73873H251.854L252.33 2.88772H264.707L264.231 6.73873H260.482L259.428 15.3249H262.854L262.378 19.1929H258.952L257.864 28.0425L262.14 27.0139L261.681 30.7629L248.173 35.685L248.836 30.2613L252.746 29.2922H252.755Z" fill="white"/>
<path d="M270.454 0.728436H275.41L273.447 16.6935C272.784 22.1258 271.075 26.6739 268.32 30.3378C267.232 31.7745 265.974 33.0837 264.554 34.2653C263.271 35.328 261.29 36.7392 258.612 38.4989L259.088 34.6479C261.443 32.8627 263.101 31.2815 264.061 29.9128C265.677 27.6005 266.833 25.1862 267.53 22.6528C267.802 21.6752 268.125 19.6264 268.508 16.5235L270.446 0.719935L270.454 0.728436Z" fill="white"/>
<path d="M268.763 7.76736C267.938 13.4801 267.105 18.4618 266.263 22.7293H261.826C263.381 18.1727 264.656 13.1911 265.66 7.76736H268.763Z" fill="white"/>
<path d="M276.499 33.2877L278.029 20.8081H274.28L274.756 16.9571H278.505L279.763 6.69622H275.546L276.022 2.84521H289.633L289.157 6.69622H284.719L283.461 16.9571H287.21L286.734 20.8081H282.985L281.455 33.2877H286.377L285.901 37.1387H270.905L271.381 33.2877H276.499Z" fill="white"/>
<path d="M296.493 37.3003H302.342L303.056 31.4515H297.207L296.493 37.3003Z" fill="white"/>
<path d="M304.646 18.4703L306.49 3.44881H300.642L298.797 18.4703L298.78 28.5611H302.189L304.646 18.4703Z" fill="white"/>
</g>
<defs>
<clipPath id="clip0_1109_23075">
<rect width="306.499" height="38" fill="white" transform="translate(0 0.728455)"/>
</clipPath>
</defs>
</svg>
