<svg xmlns="http://www.w3.org/2000/svg" width="141" height="36" viewBox="0 0 141 36">
    <g fill="none" fill-rule="evenodd">
        <g>
            <g transform="translate(-659 -4282) translate(659 4282)">
                <rect width="140.488" height="36" fill="#000" rx="18"/>
                <g fill="#FFF" fill-rule="nonzero">
                    <g>
                        <g>
                            <path d="M16.244 13.178c.036-1.882 1.01-3.617 2.59-4.61-1.007-1.458-2.635-2.347-4.39-2.401-1.844-.2-3.633 1.111-4.566 1.111-.933 0-2.404-1.111-3.962-1.111-2.06.081-3.924 1.255-4.906 3.089-2.108 3.722-.538 9.19 1.492 12.19 1.021 1.477 2.196 3.122 3.765 3.055 1.57-.066 2.096-.978 3.93-.978 1.832 0 2.348.978 3.94.945 1.591-.033 2.667-1.478 3.643-2.967.731-1.049 1.294-2.207 1.669-3.433-1.941-.83-3.204-2.756-3.205-4.89zM13.248 4.19c.889-1.084 1.326-2.475 1.218-3.879-1.349.157-2.592.814-3.49 1.845-.901 1.022-1.364 2.365-1.285 3.733 1.38.016 2.691-.611 3.557-1.7z" transform="translate(15.366 4.39)"/>
                        </g>
                        <path d="M35.998 20.785h-5.276l-1.272 3.8h-2.23l4.997-14.048h2.298l4.997 14.048h-2.23l-1.284-3.8zm-4.73-1.754h4.184l-2.053-6.153h-.055l-2.075 6.153zM50.049 19.501c0 3.048-1.71 5.012-4.28 5.012-1.33.068-2.583-.598-3.227-1.714v4.86H40.39V14.587h2.038v1.638c.671-1.11 1.924-1.776 3.261-1.735 2.639 0 4.36 1.974 4.36 5.011zm-2.163 0c0-1.985-1.076-3.254-2.706-3.254s-2.684 1.334-2.684 3.254 1.133 3.254 2.695 3.254c1.563 0 2.695-1.247 2.695-3.254zM61.024 19.501c0 3.048-1.71 5.012-4.28 5.012-1.33.068-2.582-.598-3.227-1.714v4.86h-2.151V14.587h2.038v1.638c.67-1.11 1.923-1.776 3.261-1.735 2.65 0 4.36 1.974 4.36 5.011zm-2.162 0c0-1.985-1.076-3.254-2.707-3.254-1.63 0-2.683 1.334-2.683 3.254s1.132 3.254 2.695 3.254c1.562 0 2.695-1.247 2.695-3.254zM67.945 20.888c.155 1.39 1.473 2.26 3.32 2.26 1.85 0 2.978-.915 2.978-2.17 0-1.254-.753-1.74-2.534-2.192l-1.816-.384c-2.523-.622-3.696-1.83-3.696-3.786 0-2.418 2.07-4.08 5.002-4.08 2.933 0 4.892 1.662 4.959 4.08h-2.07c-.122-1.401-1.262-2.26-2.91-2.26-1.65 0-2.79.859-2.79 2.102 0 .994.72 1.57 2.49 2.023l1.517.384c2.822.678 3.995 1.842 3.995 3.888 0 2.621-2.047 4.271-5.301 4.271-3.044 0-5.103-1.604-5.235-4.147l2.091.011zM80.68 12.293v2.342h1.857v1.61H80.68v5.472c0 .854.365 1.248 1.18 1.248.219.012.437.012.655 0v1.522c-.353.068-.713.101-1.073.098-1.963 0-2.736-.755-2.736-2.67v-5.66h-1.438v-1.62h1.417v-2.342h1.995zM83.854 19.537c0-3.101 1.89-5.05 4.829-5.05 2.938 0 4.83 1.949 4.83 5.05 0 3.1-1.88 5.048-4.819 5.048-2.938 0-4.84-1.936-4.84-5.048zm7.542 0c0-2.177-1.013-3.384-2.702-3.384-1.688 0-2.69 1.273-2.69 3.384 0 2.11 1.002 3.384 2.701 3.384 1.7 0 2.69-1.252 2.69-3.384zM94.83 14.6h2.045v1.7c.28-1.098 1.321-1.854 2.491-1.81.246-.001.492.025.732.077v1.92c-.308-.09-.628-.131-.949-.122-.625-.026-1.23.213-1.656.654-.427.442-.632 1.041-.561 1.641v5.925h-2.103V14.6zM109.645 21.571c-.28 1.785-2.063 3.014-4.348 3.014-2.932 0-4.76-1.915-4.76-5.005s1.828-5.092 4.67-5.092c2.843 0 4.55 1.871 4.55 4.864v.696h-7.125v.12c-.064.733.197 1.458.717 1.99.52.534 1.25.823 2.004.795 1.008.11 1.966-.457 2.33-1.382h1.962zm-7.001-2.938h5.05c.037-.659-.209-1.303-.678-1.778-.47-.475-1.121-.737-1.797-.724-.683-.006-1.34.255-1.824.726-.484.47-.754 1.11-.751 1.776zM30.37.447c.84-.065 1.665.269 2.242.908s.844 1.514.727 2.38c0 2.094-1.057 3.29-2.97 3.29h-2.271V.446h2.271zm-1.29 5.624h1.194c.602.046 1.192-.193 1.603-.652.411-.458.6-1.086.51-1.705.082-.616-.11-1.237-.52-1.69-.41-.454-.995-.69-1.593-.645H29.08V6.07zM35.122 4.538c0-1.294 1.08-2.343 2.412-2.343 1.332 0 2.412 1.05 2.412 2.343.06.868-.38 1.696-1.145 2.148-.765.451-1.725.451-2.49 0-.764-.452-1.205-1.28-1.144-2.148h-.045zm3.7 0c0-1.092-.496-1.693-1.361-1.693-.866 0-1.305.6-1.305 1.693s.484 1.693 1.36 1.693c.878 0 1.305-.6 1.305-1.693zM46.01 7.024L44.976 7.024 43.931 3.461 43.852 3.461 42.807 7.024 41.784 7.024 40.39 2.195 41.402 2.195 42.312 5.887 42.391 5.887 43.436 2.195 44.391 2.195 45.437 5.887 45.515 5.887 46.414 2.195 47.415 2.195zM48.327 1.853h.974v.828h.08c.261-.602.87-.971 1.517-.92.502-.04.996.154 1.34.528.344.373.501.886.427 1.391v3.344h-1.008v-3.09c0-.828-.351-1.242-1.133-1.242-.345-.032-.686.099-.925.354-.238.256-.348.608-.298.956v3.022h-1.008l.034-5.17zM54.01 0L54.878 0 54.878 7.024 54 7.024zM56.64 4.61c-.062-.843.383-1.647 1.154-2.086.77-.439 1.739-.439 2.51 0 .77.439 1.216 1.243 1.154 2.086.062.842-.384 1.647-1.154 2.085-.771.44-1.74.44-2.51 0-.77-.438-1.216-1.243-1.154-2.085zm3.775 0c0-1.061-.499-1.645-1.372-1.645-.873 0-1.372.584-1.372 1.645 0 1.06.488 1.644 1.372 1.644.884 0 1.372-.583 1.372-1.644zM61.902 5.507c0-.912.697-1.442 1.94-1.51l1.417-.078v-.462c0-.54-.36-.834-1.069-.834-.708 0-.975.203-1.091.564h-1c.105-.868.953-1.43 2.138-1.43s2.056.63 2.056 1.7v3.47h-1v-.71h-.08c-.337.52-.936.825-1.568.8-.443.044-.884-.095-1.215-.382-.332-.287-.523-.697-.528-1.128zm3.357-.428v-.44l-1.278.08c-.72 0-1.045.281-1.045.732 0 .45.407.72.964.72.334.035.669-.065.925-.275.257-.211.414-.514.434-.84v.023zM68.049 4.431c0-1.573.837-2.57 2.145-2.57.659-.03 1.276.311 1.583.875h.08V0h1.021v6.935h-.975v-.787h-.08c-.329.56-.952.897-1.618.875-1.33-.01-2.156-1.008-2.156-2.592zm1.055 0c0 1.108.516 1.695 1.377 1.695.86 0 1.388-.587 1.388-1.695s-.54-1.695-1.388-1.695c-.85 0-1.388.654-1.388 1.695h.011zM76.396 4.61c-.062-.843.383-1.647 1.154-2.086.77-.439 1.739-.439 2.51 0 .77.439 1.216 1.243 1.154 2.086.062.842-.384 1.647-1.154 2.085-.771.44-1.74.44-2.51 0-.77-.438-1.216-1.243-1.154-2.085zm3.775 0c0-1.061-.499-1.645-1.372-1.645-.873 0-1.36.584-1.36 1.645 0 1.06.487 1.644 1.372 1.644.884 0 1.36-.583 1.36-1.644zM82.098 1.866h.974v.826h.079c.263-.618.89-.993 1.552-.929.502-.04.995.153 1.34.526.344.373.5.884.427 1.388v3.347h-1.008V3.941c0-.825-.351-1.238-1.133-1.238-.345-.032-.686.099-.925.353-.238.255-.348.607-.298.954v3.014h-1.008V1.866zM91.617.439v1.334h1.017v.877h-1.017v2.702c0 .55.193.795.651.795h.346v.866c-.163.015-.326.015-.488 0-1.017 0-1.404-.41-1.404-1.427V2.65H90v-.877h.722V.439h.895zM94.435 0h.985v2.783h.078c.27-.596.882-.958 1.533-.91.494-.027.975.168 1.31.533.336.365.492.861.424 1.353v3.265h-.996V4.006c0-.808-.37-1.212-1.119-1.212-.345-.028-.684.098-.928.345-.244.247-.367.588-.336.934v2.951h-.996L94.435 0zM104.868 5.538c-.299.98-1.3 1.604-2.354 1.468-.697.017-1.366-.262-1.827-.763-.462-.501-.667-1.173-.563-1.834-.092-.673.125-1.352.595-1.861.47-.509 1.145-.798 1.854-.792 1.471 0 2.354.971 2.354 2.563v.35h-3.743c-.034.377.1.75.37 1.028.269.277.647.433 1.042.428.505.064 1-.167 1.26-.587h1.012zm-3.684-1.592h2.672c.026-.345-.1-.686-.35-.937-.248-.252-.596-.39-.957-.384-.365-.003-.716.136-.973.385-.257.248-.399.586-.392.936z" transform="translate(15.366 4.39)"/>
                    </g>
                </g>
            </g>
        </g>
    </g>
</svg>
