<svg xmlns="http://www.w3.org/2000/svg" width="141" height="36" viewBox="0 0 141 36">
    <defs>
        <linearGradient id="oa3fsba1ua" x1="61.102%" x2="26.49%" y1="4.946%" y2="71.879%">
            <stop offset="0%" stop-color="#00A0FF"/>
            <stop offset="1%" stop-color="#00A1FF"/>
            <stop offset="26%" stop-color="#00BEFF"/>
            <stop offset="51%" stop-color="#00D2FF"/>
            <stop offset="76%" stop-color="#00DFFF"/>
            <stop offset="100%" stop-color="#00E3FF"/>
        </linearGradient>
        <linearGradient id="m9nwq7v6sb" x1="107.677%" x2="-130.512%" y1="49.942%" y2="49.942%">
            <stop offset="0%" stop-color="#FFE000"/>
            <stop offset="41%" stop-color="#FFBD00"/>
            <stop offset="78%" stop-color="orange"/>
            <stop offset="100%" stop-color="#FF9C00"/>
        </linearGradient>
        <linearGradient id="p1g7dj8hsc" x1="86.252%" x2="-49.791%" y1="30.965%" y2="135.62%">
            <stop offset="0%" stop-color="#FF3A44"/>
            <stop offset="100%" stop-color="#C31162"/>
        </linearGradient>
        <linearGradient id="t45s3qabvd" x1="-18.814%" x2="42.061%" y1="-11.857%" y2="35.106%">
            <stop offset="0%" stop-color="#32A071"/>
            <stop offset="7%" stop-color="#2DA771"/>
            <stop offset="48%" stop-color="#15CF74"/>
            <stop offset="80%" stop-color="#06E775"/>
            <stop offset="100%" stop-color="#00F076"/>
        </linearGradient>
    </defs>
    <g fill="none" fill-rule="evenodd">
        <g>
            <g transform="translate(-659 -4330) translate(659 4330)">
                <rect width="140.488" height="36" fill="#000" rx="18"/>
                <g fill-rule="nonzero">
                    <g>
                        <path fill="#FFF" stroke="#FFF" stroke-width=".5" d="M35.647 3.537c.033.695-.222 1.373-.703 1.876-.538.559-1.289.862-2.064.835-1.19-.01-2.257-.73-2.71-1.83-.452-1.1-.201-2.364.637-3.208C31.35.654 32.102.35 32.88.366c.397-.001.79.078 1.154.234.34.137.641.353.882.629l-.498.497c-.38-.451-.95-.698-1.538-.666-.592-.003-1.16.236-1.572.66-.413.425-.634 1-.614 1.591-.012.895.514 1.709 1.335 2.064.82.355 1.775.18 2.418-.44.288-.313.455-.72.469-1.145h-2.017v-.676h2.748c.013.14.013.282 0 .423zM39.991 1.191L37.43 1.191 37.43 2.974 39.737 2.974 39.737 3.649 37.43 3.649 37.43 5.432 39.991 5.432 39.991 6.126 36.707 6.126 36.707.497 39.991.497zM43.039 6.126L42.317 6.126 42.317 1.191 40.75 1.191 40.75.497 44.615.497 44.615 1.191 43.039 1.191zM47.411 6.126L47.411.497 48.133.497 48.133 6.126zM51.341 6.126L50.657 6.126 50.657 1.191 49.053 1.191 49.053.497 52.917.497 52.917 1.191 51.341 1.191zM60.235 5.394c-1.142 1.135-2.986 1.135-4.128 0C55 4.223 55 2.391 56.107 1.22c.546-.55 1.289-.86 2.064-.86.775 0 1.518.31 2.064.86 1.11 1.17 1.11 3.004 0 4.174h0zm-3.593-.469c.845.842 2.212.842 3.058 0 .83-.915.83-2.312 0-3.227-.846-.842-2.213-.842-3.058 0-.83.915-.83 2.312 0 3.227h0zM62.083 6.126L62.083.497 62.964.497 65.666 4.878 65.666 4.878 65.666 3.752 65.666.497 66.388.497 66.388 6.126 65.666 6.126 62.852 1.538 62.852 1.538 62.852 2.627 62.852 6.135z" transform="translate(15.366 4.83)"/>
                        <path fill="#FFF" d="M55.103 14.334c-2.2.005-3.98 1.792-3.977 3.993.003 2.2 1.789 3.982 3.99 3.98 2.2-.001 3.983-1.786 3.983-3.986.016-1.064-.4-2.088-1.154-2.84-.753-.75-1.778-1.165-2.842-1.147zm0 6.407c-.991.07-1.924-.474-2.353-1.371-.428-.897-.265-1.964.412-2.692.677-.727 1.73-.967 2.655-.605.926.363 1.535 1.254 1.538 2.248.03.621-.192 1.23-.616 1.685-.424.456-1.014.72-1.636.735zm-8.733-6.407c-2.2.01-3.975 1.8-3.968 4 .006 2.199 1.793 3.977 3.993 3.974 2.199-.004 3.98-1.788 3.98-3.987.016-1.065-.402-2.091-1.157-2.843-.755-.752-1.783-1.164-2.848-1.144zm0 6.407c-.992.07-1.925-.474-2.353-1.371-.428-.897-.265-1.964.412-2.692.677-.727 1.73-.967 2.655-.605.925.363 1.535 1.254 1.537 2.248.03.621-.191 1.23-.615 1.685-.424.456-1.014.72-1.636.735zm-10.394-5.178v1.688h4.052c-.063.796-.394 1.546-.938 2.13-.814.84-1.945 1.296-3.114 1.257-2.487 0-4.503-2.016-4.503-4.503s2.016-4.503 4.503-4.503c1.136-.013 2.231.421 3.048 1.21l1.192-1.191c-1.13-1.118-2.661-1.734-4.25-1.707-2.27-.089-4.408 1.073-5.57 3.026-1.162 1.953-1.162 4.386 0 6.34 1.162 1.953 3.3 3.114 5.57 3.026 1.645.08 3.243-.565 4.372-1.764.983-1.08 1.507-2.5 1.463-3.958.003-.356-.028-.711-.094-1.06l-5.731.009zm42.504 1.323c-.5-1.484-1.868-2.501-3.433-2.552-1.037-.002-2.029.425-2.74 1.18-.71.756-1.077 1.772-1.012 2.807-.023 1.06.385 2.082 1.132 2.834.746.752 1.767 1.168 2.826 1.153 1.333.007 2.58-.656 3.321-1.764l-1.36-.938c-.413.689-1.158 1.109-1.96 1.107-.832.032-1.599-.448-1.933-1.21l5.338-2.205-.179-.412zm-5.44 1.332c-.039-.587.16-1.163.552-1.601.392-.438.943-.7 1.53-.726.618-.04 1.202.292 1.482.844l-3.565 1.483zm-4.335 3.865h1.745V10.319h-1.754l.01 11.764zm-2.87-6.848h-.056c-.535-.598-1.3-.94-2.102-.939-2.129.104-3.802 1.86-3.802 3.992 0 2.132 1.673 3.888 3.802 3.992.805.013 1.574-.33 2.102-.939h.056v.573c0 1.529-.816 2.345-2.13 2.345-.894-.021-1.687-.58-2.007-1.417l-1.53.638c.59 1.433 1.989 2.364 3.537 2.355 2.055 0 3.753-1.21 3.753-4.156v-7.101h-1.632l.009.657zM63.79 20.74c-1.172-.195-2.032-1.208-2.032-2.397 0-1.188.86-2.202 2.032-2.397.608.031 1.177.307 1.578.765.402.458.6 1.058.551 1.665.036.597-.17 1.184-.57 1.628-.4.444-.962.71-1.56.736zM86.689 10.32h-4.194v11.726h1.755v-4.418h2.448c1.363.098 2.666-.574 3.377-1.74.711-1.167.711-2.633 0-3.8-.711-1.166-2.014-1.838-3.377-1.74l-.01-.028zm0 5.628h-2.486V11.98h2.486c1.11 0 2.012.901 2.012 2.013 0 1.11-.901 2.012-2.012 2.012v-.057zm10.872-1.632c-1.305-.078-2.532.626-3.124 1.792l1.557.647c.314-.578.94-.916 1.595-.863.45-.052.902.078 1.255.362.353.284.577.698.621 1.149v.121c-.585-.31-1.241-.465-1.904-.45-1.68 0-3.377.938-3.377 2.636.033.732.361 1.418.909 1.904s1.269.73 1.999.676c.897.054 1.752-.385 2.233-1.145h.112v.939h1.689V17.56c-.01-2.083-1.567-3.246-3.565-3.246zm-.216 6.426c-.572 0-1.37-.29-1.37-.994 0-.938.995-1.248 1.877-1.248.557-.014 1.108.122 1.595.394-.137 1.056-1.037 1.847-2.102 1.848zm9.925-6.173l-2.007 5.132h-.057l-2.082-5.085h-1.876l3.123 7.111-1.782 3.95h1.83l4.812-11.06-1.96-.048zM91.5 22.073h1.755V10.32h-1.754v11.754z" transform="translate(15.366 4.83)"/>
                        <path fill="url(#oa3fsba1ua)" d="M.938 1.004c-.306.367-.46.836-.431 1.313v20.75c-.031.48.123.954.431 1.323l.066.066 11.66-11.623v-.272L1.041.938l-.103.066z" transform="translate(15.366 4.83)"/>
                        <path fill="url(#m9nwq7v6sb)" d="M16.538 16.707l-3.874-3.874v-.272l3.874-3.874.085.047 4.587 2.607c1.313.742 1.313 1.961 0 2.712l-4.587 2.607-.085.047z" transform="translate(15.366 4.83)"/>
                        <path fill="url(#p1g7dj8hsc)" d="M16.632 16.651l-3.968-3.959L.938 24.39c.552.486 1.372.51 1.951.057l13.706-7.787" transform="translate(15.366 4.83)"/>
                        <path fill="url(#t45s3qabvd)" d="M16.632 8.734L2.927.938c-.58-.453-1.4-.43-1.951.056l11.688 11.698 3.968-3.958z" transform="translate(15.366 4.83)"/>
                        <path fill="#000" d="M16.538 16.567L2.927 24.306c-.556.416-1.32.416-1.876 0l-.113.084.066.066c.555.419 1.32.419 1.876 0l13.705-7.786-.047-.103z" opacity=".2" transform="translate(15.366 4.83)"/>
                        <path fill="#000" d="M.938 24.25c-.306-.367-.46-.837-.431-1.314v.14c-.029.478.125.947.431 1.314l.066-.065-.066-.075zM21.22 13.912l-4.69 2.655.084.084 4.606-2.58c.531-.25.89-.765.938-1.35-.115.519-.46.957-.938 1.19z" opacity=".12" transform="translate(15.366 4.83)"/>
                        <path fill="#FFF" d="M2.927 1.079L21.22 11.473c.484.239.83.69.938 1.22-.049-.586-.407-1.102-.938-1.352L2.927.938C1.614.197.544.816.544 2.318v.14c0-1.52 1.07-2.12 2.383-1.38z" opacity=".25" transform="translate(15.366 4.83)"/>
                    </g>
                </g>
            </g>
        </g>
    </g>
</svg>
