<svg width="24" height="24" xmlns="http://www.w3.org/2000/svg">
    <g fill="none" fill-rule="evenodd">
        <path d="M0 0h24v24H0z"/>
        <path d="M13.125 2.267a2.496 2.496 0 0 1 2.496 2.454V5.78h3.457a2.496 2.496 0 0 1 2.489 2.302l.007.195V18.66a2.496 2.496 0 0 1-2.3 2.488l-.196.008H4.922a2.496 2.496 0 0 1-2.489-2.301l-.007-.195V8.277a2.496 2.496 0 0 1 2.3-2.489l.196-.007 3.456-.001V4.763a2.496 2.496 0 0 1 2.456-2.496h2.291zm5.953 4.756H4.922c-.643 0-1.173.484-1.246 1.108l-.008.146V18.66c0 .643.484 1.173 1.108 1.245l.146.009h14.156c.643 0 1.173-.485 1.246-1.108l.008-.146V8.277c0-.643-.484-1.173-1.108-1.246l-.146-.008zm-.848 4.512a.621.621 0 0 1 .54 1.111l-.1.05-5.783 2.25a2.496 2.496 0 0 1-1.573.067l-.22-.074-5.765-2.243a.621.621 0 0 1 .343-1.189l.108.031 5.78 2.249c.23.087.48.103.719.048l.176-.054 5.775-2.246zm-5.084-8.026h-2.271c-.686 0-1.243.55-1.254 1.233V5.78h4.757V4.763c0-.686-.55-1.243-1.232-1.254z" fill="#353D49"/>
    </g>
</svg>
