<?xml version="1.0" encoding="UTF-8"?>
<svg width="160px" height="41px" viewBox="0 0 160 41" version="1.1" xmlns="http://www.w3.org/2000/svg" xmlns:xlink="http://www.w3.org/1999/xlink">
    <title>A9A6E063-D45C-4660-B01D-0D0D200C277A</title>
    <defs>
        <linearGradient x1="61.0211022%" y1="4.94615078%" x2="26.6600257%" y2="71.8787395%" id="linearGradient-1">
            <stop stop-color="#00A0FF" offset="0%"></stop>
            <stop stop-color="#00A1FF" offset="1%"></stop>
            <stop stop-color="#00BEFF" offset="26%"></stop>
            <stop stop-color="#00D2FF" offset="51%"></stop>
            <stop stop-color="#00DFFF" offset="76%"></stop>
            <stop stop-color="#00E3FF" offset="100%"></stop>
        </linearGradient>
        <linearGradient x1="107.677165%" y1="49.9415205%" x2="-130.511811%" y2="49.9415205%" id="linearGradient-2">
            <stop stop-color="#FFE000" offset="0%"></stop>
            <stop stop-color="#FFBD00" offset="41%"></stop>
            <stop stop-color="#FFA500" offset="78%"></stop>
            <stop stop-color="#FF9C00" offset="100%"></stop>
        </linearGradient>
        <linearGradient x1="86.2522415%" y1="30.8256346%" x2="-49.790795%" y2="136.245829%" id="linearGradient-3">
            <stop stop-color="#FF3A44" offset="0%"></stop>
            <stop stop-color="#C31162" offset="100%"></stop>
        </linearGradient>
        <linearGradient x1="-18.8136609%" y1="-12.3083605%" x2="42.0611144%" y2="34.9975415%" id="linearGradient-4">
            <stop stop-color="#32A071" offset="0%"></stop>
            <stop stop-color="#2DA771" offset="7%"></stop>
            <stop stop-color="#15CF74" offset="48%"></stop>
            <stop stop-color="#06E775" offset="80%"></stop>
            <stop stop-color="#00F076" offset="100%"></stop>
        </linearGradient>
    </defs>
    <g id="Page-1" stroke="none" stroke-width="1" fill="none" fill-rule="evenodd">
        <g id="PC_企業轉職潮活動主頁--v-全展開" transform="translate(-1033.000000, -7009.000000)">
            <g id="1-01)-Icon/3)-Social/3)-Store/ic_googleplay" transform="translate(1033.000000, 7009.000000)">
                <rect id="button-area" fill="#000000" x="0" y="0" width="159.418786" height="41" rx="20.5"></rect>
                <g id="obj-googleplay-icon" transform="translate(17.436430, 5.500000)" fill-rule="nonzero">
                    <g id="Shape">
                        <path d="M40.4508137,4.02777778 C40.4873829,4.81969129 40.1988132,5.59201591 39.6524424,6.16452991 C39.0419009,6.80107181 38.1903411,7.14682244 37.3105531,7.11538462 C35.9611356,7.104785 34.7495357,6.28335062 34.2359633,5.03088961 C33.7223908,3.7784286 34.0069304,2.33901972 34.958019,1.37820513 C35.5759935,0.745006375 36.4276384,0.396918191 37.3105531,0.416666667 C37.7605766,0.415161786 38.2061511,0.506055898 38.6198821,0.683760684 C39.0050744,0.839693975 39.3479798,1.08499632 39.6205075,1.39957265 L39.0563251,1.96581197 C38.6255738,1.4515774 37.9789335,1.17060883 37.3105531,1.20726496 C36.6386964,1.20395713 35.9944959,1.47552101 35.5264977,1.95933669 C35.0584996,2.44315238 34.8071037,3.09745448 34.8302796,3.77136752 C34.8160174,4.78973258 35.4135979,5.71670888 36.3449851,6.12100246 C37.2763722,6.52529604 38.3586471,6.32750603 39.0882599,5.61965812 C39.4158152,5.26339382 39.6047349,4.80074925 39.6205075,4.31623932 L37.331843,4.31623932 L37.331843,3.54700855 L40.4508137,3.54700855 C40.4649859,3.70694934 40.4649859,3.86783699 40.4508137,4.02777778 Z" stroke="#FFFFFF" stroke-width="0.567375887" fill="#FFFFFF"></path>
                        <polygon stroke="#FFFFFF" stroke-width="0.567375887" fill="#FFFFFF" points="45.379426 1.35683761 42.4733544 1.35683761 42.4733544 3.38675214 45.0920123 3.38675214 45.0920123 4.15598291 42.4733544 4.15598291 42.4733544 6.18589744 45.379426 6.18589744 45.379426 6.97649573 41.6536931 6.97649573 41.6536931 0.566239316 45.379426 0.566239316"></polygon>
                        <polygon stroke="#FFFFFF" stroke-width="0.567375887" fill="#FFFFFF" points="48.839035 6.97649573 48.0193738 6.97649573 48.0193738 1.35683761 46.241667 1.35683761 46.241667 0.566239316 50.6273868 0.566239316 50.6273868 1.35683761 48.839035 1.35683761"></polygon>
                        <polygon stroke="#FFFFFF" stroke-width="0.567375887" fill="#FFFFFF" points="53.7995822 6.97649573 53.7995822 0.566239316 54.6192434 0.566239316 54.6192434 6.97649573"></polygon>
                        <polygon stroke="#FFFFFF" stroke-width="0.567375887" fill="#FFFFFF" points="58.2598166 6.97649573 57.4827352 6.97649573 57.4827352 1.35683761 55.6624486 1.35683761 55.6624486 0.566239316 60.0481684 0.566239316 60.0481684 1.35683761 58.2598166 1.35683761"></polygon>
                        <path d="M68.3512302,6.14316239 C67.0557288,7.4361409 64.9629531,7.4361409 63.6674517,6.14316239 C62.4116338,4.80901055 62.4116338,2.72304073 63.6674517,1.38888889 C64.2869862,0.762549883 65.1299784,0.410291631 66.0093409,0.410291631 C66.8887035,0.410291631 67.7316957,0.762549883 68.3512302,1.38888889 C69.6124073,2.72089727 69.6124073,4.81115401 68.3512302,6.14316239 L68.3512302,6.14316239 Z M64.2742139,5.60897436 C65.2336689,6.5679114 66.785013,6.5679114 67.744468,5.60897436 C68.6867572,4.56642215 68.6867572,2.97631289 67.744468,1.93376068 C66.785013,0.974823643 65.2336689,0.974823643 64.2742139,1.93376068 C63.3319247,2.97631289 63.3319247,4.56642215 64.2742139,5.60897436 L64.2742139,5.60897436 Z" stroke="#FFFFFF" stroke-width="0.567375887" fill="#FFFFFF"></path>
                        <polygon stroke="#FFFFFF" stroke-width="0.567375887" fill="#FFFFFF" points="70.4482855 6.97649573 70.4482855 0.566239316 71.4489109 0.566239316 74.5146568 5.55555556 74.5146568 5.55555556 74.5146568 4.27350427 74.5146568 0.566239316 75.334318 0.566239316 75.334318 6.97649573 74.5146568 6.97649573 71.3211715 1.75213675 71.3211715 1.75213675 71.3211715 2.99145299 71.3211715 6.98717949"></polygon>
                        <path d="M62.528442,16.3247863 C60.0312424,16.3306835 58.0110734,18.3661825 58.0149826,20.8724904 C58.0189032,23.3787982 60.0454212,25.4079301 62.5426269,25.4059704 C65.0398326,25.4040078 67.0631842,23.3716955 67.0631911,20.8653846 C67.0806473,19.6539961 66.6081379,18.487235 65.7535768,17.6315716 C64.8990157,16.7759082 63.7353857,16.3044195 62.528442,16.3247863 Z M62.528442,23.6217949 C61.4035127,23.7007535 60.3448144,23.0815315 59.858711,22.060296 C59.3726075,21.0390605 59.5579001,19.8233791 60.3259653,18.9946987 C61.0940305,18.1660184 62.288758,17.8927696 63.3387227,18.3056443 C64.3886874,18.718519 65.0804826,19.7335998 65.0832302,20.8653846 C65.1178718,21.5733674 64.866108,22.2653769 64.3850708,22.7843772 C63.9040336,23.3033775 63.2345132,23.6053594 62.528442,23.6217949 Z M52.6179926,16.3247863 C50.122204,16.3365742 48.1073798,18.3746593 48.1151779,20.8795626 C48.1230214,23.3844659 50.1505326,25.4098379 52.6463458,25.4059327 C55.142159,25.4020163 57.1633591,23.3703002 57.1633867,20.8653846 C57.1809221,19.6521087 56.7069648,18.4836642 55.8500713,17.6276749 C54.9931778,16.7716855 53.8267655,16.3014911 52.6179926,16.3247863 L52.6179926,16.3247863 Z M52.6179926,23.6217949 C51.4930633,23.7007535 50.4343651,23.0815315 49.9482616,22.060296 C49.4621582,21.0390605 49.6474508,19.8233791 50.4155159,18.9946987 C51.1835811,18.1660184 52.3783086,17.8927696 53.4282733,18.3056443 C54.4782381,18.718519 55.1700333,19.7335998 55.1727809,20.8653846 C55.2074225,21.5733674 54.9556587,22.2653769 54.4746215,22.7843772 C53.9935843,23.3033775 53.3240638,23.6053594 52.6179926,23.6217949 L52.6179926,23.6217949 Z M40.823387,17.724359 L40.823387,19.6474359 L45.4220058,19.6474359 C45.3499005,20.5532092 44.9747524,21.4079001 44.3575107,22.0726496 C43.4333862,23.0287803 42.149887,23.5487078 40.823387,23.5042735 C38.0014458,23.5042735 35.7138105,21.2082979 35.7138105,18.3760684 C35.7138105,15.5438389 38.0014458,13.2478632 40.823387,13.2478632 C42.1123866,13.2323093 43.3555028,13.7275297 44.282996,14.6260684 L45.6349048,13.2692308 C44.3539068,11.9959286 42.6154097,11.294913 40.812742,11.3247863 C38.2355576,11.2241229 35.810034,12.5466579 34.4916148,14.7714285 C33.1731955,16.9961991 33.1731955,19.7666214 34.4916148,21.991392 C35.810034,24.2161626 38.2355576,25.5386976 40.812742,25.4380342 C42.6794138,25.5291568 44.4921993,24.7951521 45.7732892,23.4294872 C46.8885349,22.1997026 47.4839787,20.5830782 47.4339015,18.9209402 C47.4373365,18.516013 47.4016869,18.1117039 47.327452,17.7136752 L40.823387,17.724359 Z M89.0556598,19.2307692 C88.4881324,17.5412515 86.9351369,16.3829049 85.1596077,16.3247781 C83.9826631,16.3224768 82.8572592,16.8091961 82.0506214,17.6693735 C81.2439836,18.5295508 80.8280659,19.6864563 80.9016273,20.8653846 C80.8754844,22.0718976 81.3393098,23.2372098 82.1865285,24.093562 C83.0337471,24.9499143 84.1915114,25.4236739 85.3937967,25.4059829 C86.9062935,25.4141656 88.321843,24.659664 89.1621093,23.3974359 L87.6185914,22.3290598 C87.1499432,23.1131861 86.3048515,23.5920588 85.3937967,23.5897436 C84.4502191,23.6258388 83.5805797,23.0792733 83.2009368,22.2115385 L89.2579139,19.7008547 L89.0556598,19.2307692 Z M82.8815882,20.7478632 C82.8379992,20.0803037 83.0639636,19.4232318 83.5085403,18.9247768 C83.9531171,18.4263219 84.5788833,18.1284419 85.2447673,18.0982906 C85.9466633,18.0518714 86.6084562,18.4302164 86.9266696,19.0598291 L82.8815882,20.7478632 Z M77.9636209,25.1495726 L79.9435818,25.1495726 L79.9435818,11.7521368 L77.9529759,11.7521368 L77.9636209,25.1495726 Z M74.7062659,17.3504274 L74.6423962,17.3504274 C74.0355936,16.6695265 73.1681314,16.2808547 72.2579272,16.2820485 C69.8416796,16.3996492 67.9428229,18.400085 67.9428229,20.8279915 C67.9428229,23.2558979 69.8416796,25.2563337 72.2579272,25.3739316 C73.1710819,25.3893416 74.0441669,24.9981505 74.6423962,24.3055556 L74.7062659,24.3055556 L74.7062659,24.957265 C74.7062659,26.6987179 73.7801552,27.6282051 72.289862,27.6282051 C71.2746562,27.6043562 70.3745459,26.9669161 70.0118425,26.0149573 L68.2767155,26.741453 C68.9448795,28.3726613 70.5326263,29.4336093 72.289862,29.4231546 C74.6211063,29.4231546 76.5478424,28.0448718 76.5478424,24.6901709 L76.5478424,16.6025641 L74.6956209,16.6025641 L74.7062659,17.3504274 Z M72.3856666,23.6217949 C71.0555491,23.4000741 70.0803454,22.2453481 70.0803454,20.892094 C70.0803454,19.53884 71.0555491,18.3841139 72.3856666,18.1623932 C73.0754566,18.197694 73.7216151,18.5117996 74.1768609,19.0331148 C74.6321068,19.55443 74.8576459,20.2385306 74.8020704,20.9294872 C74.8426635,21.6094318 74.6097398,22.2772933 74.1554992,22.7833989 C73.7012587,23.2895044 73.0636862,23.591532 72.3856666,23.6217949 L72.3856666,23.6217949 Z M98.3699919,11.7521368 L93.6116988,11.7521368 L93.6116988,25.1068376 L95.6023046,25.1068376 L95.6023046,20.0747863 L98.3806368,20.0747863 C99.9270118,20.1862861 101.405904,19.4214839 102.212958,18.0929198 C103.020011,16.7643558 103.020011,15.0946186 102.212958,13.7660545 C101.405904,12.4374904 99.9270118,11.6726882 98.3806368,11.784188 L98.3699919,11.7521368 Z M98.3699919,18.1623932 L95.5490799,18.1623932 L95.5490799,13.6431624 L98.3699919,13.6431624 C99.6310468,13.6431624 100.653334,14.6691765 100.653334,15.9348291 C100.653334,17.2004816 99.6310468,18.2264957 98.3699919,18.2264957 L98.3699919,18.1623932 Z M110.70749,16.3034188 C109.226472,16.2145715 107.834084,17.0161197 107.162721,18.3440171 L108.929783,19.0811966 C109.285757,18.4227224 109.995476,18.0372389 110.739425,18.0982906 C111.24988,18.0384558 111.762888,18.1869339 112.163217,18.5103741 C112.563547,18.8338144 112.817637,19.3051014 112.868415,19.8183761 L112.868415,19.957265 C112.203694,19.6035636 111.459653,19.4269914 110.70749,19.4444444 C108.802044,19.4444444 106.875308,20.5128205 106.875308,22.4465812 C106.913297,23.2796034 107.285394,24.0617837 107.906943,24.6151681 C108.528492,25.1685526 109.346638,25.4460819 110.175243,25.3846154 C111.193245,25.4456931 112.163811,24.9463622 112.708741,24.0811966 L112.83648,24.0811966 L112.83648,25.1495726 L114.752571,25.1495726 L114.752571,20 C114.741926,17.6282051 112.974865,16.3034188 110.70749,16.3034188 Z M110.462656,23.6217949 C109.813314,23.6217949 108.908493,23.2905983 108.908493,22.4893162 C108.908493,21.4209402 110.036858,21.0683761 111.037484,21.0683761 C111.669838,21.0527157 112.294791,21.2076788 112.847125,21.517094 C112.692015,22.7202616 111.671446,23.6210881 110.462656,23.6217949 Z M121.725014,16.5918803 L119.446995,22.4358974 L119.383125,22.4358974 L117.019946,16.6452991 L114.890956,16.6452991 L118.435724,24.7435897 L116.413184,29.241453 L118.488949,29.241453 L123.949809,16.6452991 L121.725014,16.5918803 Z M103.830852,25.1388889 L105.821458,25.1388889 L105.821458,11.7521368 L103.830852,11.7521368 L103.830852,25.1388889 Z" fill="#FFFFFF"></path>
                        <path d="M1.0644951,1.14316239 C0.717538841,1.56101318 0.542417362,2.09593474 0.574827352,2.63888889 L0.574827352,26.2713675 C0.539653361,26.8179324 0.714940623,27.3571848 1.0644951,27.7777778 L1.13900975,27.8525641 L14.3706838,14.6153846 L14.3706838,14.3055556 L1.18158956,1.06837607 L1.0644951,1.14316239 Z" fill="url(#linearGradient-1)"></path>
                        <path d="M18.7670486,19.0277778 L14.3706838,14.6153846 L14.3706838,14.3055556 L18.7670486,9.89316239 L18.8628531,9.9465812 L24.0682341,12.9166667 C25.5585273,13.7606838 25.5585273,15.1495726 24.0682341,16.0042735 L18.8628531,18.974359 L18.7670486,19.0277778 Z" fill="url(#linearGradient-2)"></path>
                        <path d="M18.8734981,18.9636752 L14.3706838,14.4551282 L1.0644951,27.7777778 C1.69118223,28.3306863 2.62124356,28.3576128 3.2786449,27.8418803 L18.8309183,18.974359" fill="url(#linearGradient-3)"></path>
                        <path d="M18.8734981,9.9465812 L3.3212247,1.06837607 C2.66382336,0.55264358 1.73376204,0.579570085 1.1070749,1.13247863 L14.3706838,14.4551282 L18.8734981,9.9465812 Z" fill="url(#linearGradient-4)"></path>
                        <path d="M18.7670486,18.8675214 L3.3212247,27.6816239 C2.69002013,28.155274 1.82343908,28.155274 1.19223451,27.6816239 L1.19223451,27.6816239 L1.0644951,27.7777778 L1.0644951,27.7777778 L1.13900975,27.8525641 L1.13900975,27.8525641 C1.76902669,28.3297855 2.63798301,28.3297855 3.26799995,27.8525641 L18.8202733,18.9850427 L18.7670486,18.8675214 Z" fill="#000000" opacity="0.2"></path>
                        <path d="M1.0644951,27.6175214 C0.717538841,27.1996706 0.542417362,26.664749 0.574827352,26.1217949 L0.574827352,26.2820513 C0.542417362,26.8250054 0.717538841,27.359927 1.0644951,27.7777778 L1.13900975,27.7029915 L1.0644951,27.6175214 Z" fill="#000000" opacity="0.12"></path>
                        <path d="M24.0788791,15.8440171 L18.7564036,18.8675214 L18.8522082,18.9636752 L24.0788791,16.025641 C24.6825224,15.7410397 25.088519,15.1542731 25.1433742,14.4871795 L25.1433742,14.4871795 C25.0131376,15.0786542 24.6212138,15.5782121 24.0788791,15.8440171 Z" fill="#000000" opacity="0.12"></path>
                        <path d="M3.3212247,1.22863248 L24.0788791,13.0662393 C24.62891,13.3387195 25.0220531,13.8516689 25.1433742,14.4551282 L25.1433742,14.4551282 C25.088519,13.7880345 24.6825224,13.201268 24.0788791,12.9166667 L3.3212247,1.06837607 C1.83093157,0.224358974 0.617407156,0.929487179 0.617407156,2.63888889 L0.617407156,2.7991453 C0.617407156,1.06837607 1.83093157,0.384615385 3.3212247,1.22863248 Z" fill="#FFFFFF" opacity="0.25"></path>
                    </g>
                </g>
            </g>
        </g>
    </g>
</svg>