<svg xmlns="http://www.w3.org/2000/svg" width="18" height="18" viewBox="0 0 18 18">
    <g fill="#95999F">
        <circle cx="9.041" cy="12.141" r="1" fill-opacity=".89"/>
        <path d="M9 2C5.131 2 2 5.13 2 9c0 3.869 3.13 7 7 7 3.869 0 7-3.13 7-7 0-3.869-3.13-7-7-7zm0 12.906c-3.264 0-5.906-2.641-5.906-5.906 0-3.264 2.641-5.906 5.906-5.906 3.264 0 5.906 2.641 5.906 5.906 0 3.264-2.641 5.906-5.906 5.906z"/>
        <path fill-opacity=".89" d="M9.052 5.5C7.921 5.5 7 6.42 7 7.552c0 .283.23.513.513.513.283 0 .513-.23.513-.513 0-.566.46-1.026 1.026-1.026.566 0 1.026.46 1.026 1.026 0 .566-.46 1.026-1.026 1.026-.283 0-.513.23-.513.513v1.283c0 .283.23.512.513.512.283 0 .513-.23.513-.512v-.835c.884-.228 1.539-1.033 1.539-1.987 0-1.131-.92-2.052-2.052-2.052z"/>
    </g>
</svg>
