<svg width="19" height="19" viewBox="0 0 19 19" fill="none" xmlns="http://www.w3.org/2000/svg">
<path fill-rule="evenodd" clip-rule="evenodd" d="M9.0358 3.52944C8.7988 3.76816 8.79782 4.15234 9.0318 4.39228L9.03896 4.39951L13.2177 8.54797L4.4187 8.54798C4.07892 8.54798 3.80347 8.82343 3.80347 9.16321C3.80347 9.4996 4.07344 9.77293 4.40853 9.77837L4.4187 9.77845L13.2177 9.77844L9.03896 13.9269C8.80024 14.1639 8.79646 14.5481 9.02869 14.7897L9.0358 14.797C9.27279 15.0357 9.65695 15.0395 9.89859 14.8073L9.90586 14.8002L15.1441 9.59983C15.3841 9.36161 15.3865 8.97504 15.1513 8.73386L15.1441 8.7266L9.90586 3.52628C9.66473 3.28689 9.27519 3.2883 9.0358 3.52944Z" fill="#2369FF"/>
</svg>
