<?xml version="1.0" encoding="UTF-8"?>
<svg width="128px" height="67px" viewBox="0 0 128 67" version="1.1" xmlns="http://www.w3.org/2000/svg" xmlns:xlink="http://www.w3.org/1999/xlink">
    <title>ic_bling</title>
    <defs>
        <path d="M4.4,5.518 C3.52887579,5.51084861 2.8283459,4.79912815 2.835,3.928 C2.835,3.05 3.537,2.338 4.4,2.338 C5.264,2.338 5.965,3.05 5.965,3.928 C5.965,4.806 5.264,5.518 4.4,5.518 Z M4.4,0 C2.265,0 0.535,1.76 0.535,3.928 C0.535,6.097 2.265,7.855 4.4,7.855 C6.534,7.855 8.264,6.097 8.264,3.928 C8.264,1.759 6.534,0 4.4,0 Z" id="path-1"></path>
        <path d="M2.514,3.153 C2.01622462,3.14860011 1.6161174,2.74177968 1.62,2.244 C1.62,1.743 2.02,1.336 2.514,1.336 C3.008,1.336 3.409,1.743 3.409,2.244 C3.409,2.746 3.008,3.153 2.514,3.153 L2.514,3.153 Z M2.514,0 C1.294,0 0.306,1.005 0.306,2.244 C0.306,3.484 1.294,4.489 2.514,4.489 C3.734,4.489 4.722,3.484 4.722,2.244 C4.722,1.005 3.734,0 2.514,0 Z" id="path-3"></path>
        <path d="M2.514,3.153 C2.01622462,3.14860011 1.6161174,2.74177968 1.62,2.244 C1.62,1.743 2.02,1.336 2.514,1.336 C3.008,1.336 3.409,1.743 3.409,2.244 C3.409,2.746 3.008,3.153 2.514,3.153 L2.514,3.153 Z M2.514,0 C1.294,0 0.306,1.005 0.306,2.244 C0.306,3.484 1.294,4.489 2.514,4.489 C3.734,4.489 4.722,3.484 4.722,2.244 C4.722,1.005 3.734,0 2.514,0 Z" id="path-5"></path>
        <path d="M2.514,3.153 C2.01622462,3.14860011 1.6161174,2.74177968 1.62,2.244 C1.62,1.743 2.02,1.336 2.514,1.336 C3.008,1.336 3.409,1.743 3.409,2.244 C3.409,2.746 3.008,3.153 2.514,3.153 L2.514,3.153 Z M2.514,0 C1.294,0 0.306,1.005 0.306,2.244 C0.306,3.484 1.294,4.489 2.514,4.489 C3.734,4.489 4.722,3.484 4.722,2.244 C4.722,1.005 3.734,0 2.514,0 Z" id="path-7"></path>
        <path d="M1.836,0.15 L1.883,0.15 C2.159,0.156 2.433,0.265 2.643,0.478 L3.884,1.74 L5.126,0.478 C5.335,0.265 5.609,0.156 5.885,0.15 L5.932,0.15 C6.208,0.156 6.482,0.265 6.692,0.478 C7.122,0.916 7.122,1.631 6.692,2.069 L5.45,3.331 L6.692,4.593 C7.122,5.031 7.122,5.746 6.692,6.183 C6.48570808,6.39323269 6.20354056,6.51167715 5.909,6.51167715 C5.61445944,6.51167715 5.33229192,6.39323269 5.126,6.183 L3.884,4.923 L2.643,6.184 C2.43670808,6.39423269 2.15454056,6.51267715 1.86,6.51267715 C1.56545944,6.51267715 1.28329192,6.39423269 1.077,6.184 C0.646281784,5.74112024 0.646281784,5.03587976 1.077,4.593 L2.318,3.33 L1.078,2.068 C0.647281784,1.62512024 0.647281784,0.919879759 1.078,0.477 C1.286,0.264 1.56,0.155 1.836,0.149 L1.836,0.15 Z" id="path-9"></path>
        <path d="M1.836,0.15 L1.883,0.15 C2.159,0.156 2.433,0.265 2.643,0.478 L3.884,1.74 L5.126,0.478 C5.335,0.265 5.609,0.156 5.885,0.15 L5.932,0.15 C6.208,0.156 6.482,0.265 6.692,0.478 C7.122,0.916 7.122,1.631 6.692,2.069 L5.45,3.331 L6.692,4.593 C7.122,5.031 7.122,5.746 6.692,6.183 C6.48570808,6.39323269 6.20354056,6.51167715 5.909,6.51167715 C5.61445944,6.51167715 5.33229192,6.39323269 5.126,6.183 L3.884,4.923 L2.643,6.184 C2.43670808,6.39423269 2.15454056,6.51267715 1.86,6.51267715 C1.56545944,6.51267715 1.28329192,6.39423269 1.077,6.184 C0.646281784,5.74112024 0.646281784,5.03587976 1.077,4.593 L2.318,3.33 L1.078,2.068 C0.647281784,1.62512024 0.647281784,0.919879759 1.078,0.477 C1.286,0.264 1.56,0.155 1.836,0.149 L1.836,0.15 Z" id="path-11"></path>
        <path d="M0.918,0.075 L0.942,0.075 C1.08525737,0.0777869877 1.22170178,0.136673521 1.322,0.239 L1.942,0.87 L2.563,0.239 C2.66323634,0.136583386 2.79971949,0.0776801337 2.943,0.075 L2.966,0.075 C3.10923429,0.0778933871 3.24564019,0.136763303 3.346,0.239 C3.56129825,0.460270439 3.56129825,0.812729561 3.346,1.034 L2.725,1.665 L3.345,2.296 C3.56094771,2.51739481 3.56094771,2.87060519 3.345,3.092 C3.24182358,3.19668025 3.1009807,3.25561707 2.954,3.25561707 C2.8070193,3.25561707 2.66617642,3.19668025 2.563,3.092 L1.943,2.461 L1.321,3.091 C1.21782358,3.19568025 1.0769807,3.25461707 0.93,3.25461707 C0.783019297,3.25461707 0.642176418,3.19568025 0.539,3.091 C0.323701753,2.86972956 0.323701753,2.51727044 0.539,2.296 L1.159,1.666 L0.539,1.034 C0.323701753,0.812729561 0.323701753,0.460270439 0.539,0.239 C0.638990927,0.136823653 0.775068045,0.0779406787 0.918,0.075 Z" id="path-13"></path>
        <path d="M0.918,0.075 L0.942,0.075 C1.08525737,0.0777869877 1.22170178,0.136673521 1.322,0.239 L1.942,0.87 L2.563,0.239 C2.66323634,0.136583386 2.79971949,0.0776801337 2.943,0.075 L2.966,0.075 C3.10923429,0.0778933871 3.24564019,0.136763303 3.346,0.239 C3.56129825,0.460270439 3.56129825,0.812729561 3.346,1.034 L2.725,1.665 L3.345,2.296 C3.56094771,2.51739481 3.56094771,2.87060519 3.345,3.092 C3.24182358,3.19668025 3.1009807,3.25561707 2.954,3.25561707 C2.8070193,3.25561707 2.66617642,3.19668025 2.563,3.092 L1.943,2.461 L1.321,3.091 C1.21782358,3.19568025 1.0769807,3.25461707 0.93,3.25461707 C0.783019297,3.25461707 0.642176418,3.19568025 0.539,3.091 C0.323701753,2.86972956 0.323701753,2.51727044 0.539,2.296 L1.159,1.666 L0.539,1.034 C0.323701753,0.812729561 0.323701753,0.460270439 0.539,0.239 C0.638990927,0.136823653 0.775068045,0.0779406787 0.918,0.075 Z" id="path-15"></path>
    </defs>
    <g id="ic_bling" stroke="none" stroke-width="1" fill="none" fill-rule="evenodd">
        <g id="bling" transform="translate(-11.000000, -40.000000)">
            <g id="Group" transform="translate(79.042264, 76.974938) rotate(-58.000000) translate(-79.042264, -76.974938) translate(25.542264, 17.974938)">
                <g transform="translate(0.724000, 20.163000)" id="Clipped">
                    <mask id="mask-2" fill="white">
                        <use xlink:href="#path-1"></use>
                    </mask>
                    <g id="a"></g>
                    <polygon id="Path" fill="#6596FF" fill-rule="nonzero" mask="url(#mask-2)" points="-4.296 -4.91 13.095 -4.91 13.095 12.765 -4.295 12.765"></polygon>
                </g>
                <g transform="translate(75.968000, 100.994000)" id="Clipped">
                    <mask id="mask-4" fill="white">
                        <use xlink:href="#path-3"></use>
                    </mask>
                    <g id="c"></g>
                    <polygon id="Path" fill="#6596FF" fill-rule="nonzero" mask="url(#mask-4)" points="-2.455 -2.805 7.483 -2.805 7.483 7.295 -2.455 7.295"></polygon>
                </g>
                <g transform="translate(53.390000, 112.535000)" id="Clipped">
                    <mask id="mask-6" fill="white">
                        <use xlink:href="#path-5"></use>
                    </mask>
                    <g id="e"></g>
                    <polygon id="Path" fill="#A7C3FF" fill-rule="nonzero" mask="url(#mask-6)" points="-2.455 -2.805 7.483 -2.805 7.483 7.295 -2.455 7.295"></polygon>
                </g>
                <g transform="translate(64.338000, 20.072000)" id="Clipped">
                    <mask id="mask-8" fill="white">
                        <use xlink:href="#path-7"></use>
                    </mask>
                    <g id="g"></g>
                    <polygon id="Path" fill="#A7C3FF" fill-rule="nonzero" mask="url(#mask-8)" points="-2.455 -2.805 7.483 -2.805 7.483 7.295 -2.455 7.295"></polygon>
                </g>
                <g transform="translate(14.515834, 8.941293) rotate(28.000000) translate(-14.515834, -8.941293) translate(10.515834, 5.441293)" id="Clipped">
                    <g transform="translate(-0.000000, 0.000000)">
                        <mask id="mask-10" fill="white">
                            <use xlink:href="#path-9"></use>
                        </mask>
                        <g id="i"></g>
                        <polygon id="Path" fill="#A7C3FF" fill-rule="nonzero" mask="url(#mask-10)" points="-3.386 -4.058 11.155 -4.058 11.155 10.72 -3.386 10.72"></polygon>
                    </g>
                </g>
                <g transform="translate(101.093513, 79.259190) rotate(28.000000) translate(-101.093513, -79.259190) translate(97.093513, 75.759190)" id="Clipped">
                    <g transform="translate(-0.000000, 0.000000)">
                        <mask id="mask-12" fill="white">
                            <use xlink:href="#path-11"></use>
                        </mask>
                        <g id="k"></g>
                        <polygon id="Path" fill="#6596FF" fill-rule="nonzero" mask="url(#mask-12)" points="-3.386 -4.058 11.155 -4.058 11.155 10.72 -3.386 10.72"></polygon>
                    </g>
                </g>
                <g transform="translate(42.597256, 3.489300) rotate(28.000000) translate(-42.597256, -3.489300) translate(40.597256, 1.489300)" id="Clipped">
                    <g transform="translate(-0.000000, 0.000000)">
                        <mask id="mask-14" fill="white">
                            <use xlink:href="#path-13"></use>
                        </mask>
                        <g id="m"></g>
                        <polygon id="Path" fill="#6596FF" fill-rule="nonzero" mask="url(#mask-14)" points="-1.693 -2.03 5.577 -2.03 5.577 5.36 -1.693 5.36"></polygon>
                    </g>
                </g>
                <g transform="translate(90.190866, 52.815756) rotate(28.000000) translate(-90.190866, -52.815756) translate(88.190866, 50.815756)" id="Clipped">
                    <g transform="translate(-0.000000, 0.000000)">
                        <mask id="mask-16" fill="white">
                            <use xlink:href="#path-15"></use>
                        </mask>
                        <g id="o"></g>
                        <polygon id="Path" fill="#A7C3FF" fill-rule="nonzero" mask="url(#mask-16)" points="-1.693 -2.03 5.577 -2.03 5.577 5.36 -1.693 5.36"></polygon>
                    </g>
                </g>
                <ellipse id="Oval" fill="#6596FF" fill-rule="nonzero" cx="71.479" cy="116.12" rx="1.812" ry="1.828"></ellipse>
                <ellipse id="Oval" fill="#A7C3FF" fill-rule="nonzero" cx="91.696" cy="66.431" rx="1.208" ry="1.219"></ellipse>
                <ellipse id="Oval" fill="#A7C3FF" fill-rule="nonzero" cx="97.274" cy="97.507" rx="3.019" ry="3.047"></ellipse>
                <ellipse id="Oval" fill="#6596FF" fill-rule="nonzero" cx="57.947" cy="5.389" rx="3.019" ry="3.047"></ellipse>
                <ellipse id="Oval" fill="#A7C3FF" fill-rule="nonzero" cx="28.895" cy="10.477" rx="1.812" ry="1.828"></ellipse>
            </g>
        </g>
    </g>
</svg>