<?xml version="1.0" encoding="UTF-8"?>
<svg width="32px" height="32px" viewBox="0 0 32 32" version="1.1" xmlns="http://www.w3.org/2000/svg" xmlns:xlink="http://www.w3.org/1999/xlink">
    <title>ic_16/ic_cancel_16</title>
    <g id="Page-1" stroke="none" stroke-width="1" fill="none" fill-rule="evenodd">
        <g id="彈窗影片" transform="translate(-1519.000000, -152.000000)">
            <g id="ic_16/ic_cancel_16" transform="translate(1511.000000, 144.000000)">
                <rect id="icon_area" x="0" y="0" width="48" height="48"></rect>
                <path d="M38.8634088,9.13659123 C39.5297102,9.80289269 39.5988978,10.8369309 39.0649691,11.5604329 L38.8866911,11.7674891 L26.6541801,24 L38.8866911,36.2325109 C39.6067642,36.9525841 39.5963404,38.1304772 38.8634088,38.8634088 C38.1971073,39.5297102 37.1630691,39.5988978 36.4395671,39.0649691 L36.2325109,38.8866911 L24,26.6541801 L11.7674891,38.8866911 C11.0474159,39.6067642 9.86952284,39.5963404 9.13659123,38.8634088 C8.47028977,38.1971073 8.40110217,37.1630691 8.93503085,36.4395671 L9.11330895,36.2325109 L21.3458199,24 L9.11330895,11.7674891 C8.39323579,11.0474159 8.40365962,9.86952284 9.13659123,9.13659123 C9.80289269,8.47028977 10.8369309,8.40110217 11.5604329,8.93503085 L11.7674891,9.11330895 L24,21.3458199 L36.2325109,9.11330895 C36.9525841,8.39323579 38.1304772,8.40365962 38.8634088,9.13659123 Z" id="🎨Color" fill="#FFFFFF"></path>
            </g>
        </g>
    </g>
</svg>