<svg width="24" height="24" viewBox="0 0 24 24" fill="none" xmlns="http://www.w3.org/2000/svg">
<path fill-rule="evenodd" clip-rule="evenodd" d="M3.23033 19.1602C2.91976 19.4815 2.92331 19.9937 3.24069 20.3107C3.56128 20.6308 4.08067 20.6304 4.40079 20.3098L11.7636 12.9362L19.1264 20.3098L19.136 20.3194C19.4568 20.6304 19.9691 20.6276 20.2865 20.3107C20.607 19.9906 20.6074 19.4712 20.2873 19.1506L12.9228 11.7753L20.2873 4.39993L20.2968 4.39026C20.6074 4.06898 20.6038 3.55675 20.2864 3.23984C19.9659 2.91972 19.4465 2.9201 19.1263 3.24069L11.7636 10.6143L4.40079 3.24071L4.39112 3.23119C4.0703 2.92015 3.55807 2.92294 3.24069 3.23986C2.9201 3.55997 2.91972 4.07937 3.23984 4.39995L10.6043 11.7753L3.23984 19.1506L3.23033 19.1602Z" fill="#353D49"/>
</svg>
