<svg width="36" height="36" viewBox="0 0 36 36" fill="none" xmlns="http://www.w3.org/2000/svg">
<circle cx="17.8143" cy="17.8143" r="15.8288" fill="white" stroke="#91B4FF" stroke-width="1.97101"/>
<path fill-rule="evenodd" clip-rule="evenodd" d="M10.2992 24.7766C10.0169 25.0686 10.0201 25.5342 10.3086 25.8222C10.6 26.1132 11.072 26.1128 11.363 25.8215L18.0549 19.1197L24.7468 25.8215L24.7556 25.8301C25.0472 26.1128 25.5128 26.1103 25.8012 25.8223C26.0926 25.5313 26.0929 25.0592 25.802 24.7679L19.1085 18.0646L25.802 11.3612L25.8106 11.3524C26.0929 11.0604 26.0897 10.5949 25.8012 10.3069C25.5098 10.0159 25.0378 10.0162 24.7468 10.3076L18.0549 17.0094L11.363 10.3076L11.3542 10.299C11.0626 10.0163 10.5971 10.0188 10.3086 10.3069C10.0172 10.5978 10.0169 11.0699 10.3078 11.3613L17.0013 18.0646L10.3078 24.7678L10.2992 24.7766Z" fill="#91B4FF"/>
<path d="M10.3086 25.8222L10.6568 25.4736L10.6568 25.4736L10.3086 25.8222ZM10.2992 24.7766L9.94769 24.4313L9.9449 24.4342L10.2992 24.7766ZM11.363 25.8215L11.7117 26.1696H11.7117L11.363 25.8215ZM18.0549 19.1197L18.4036 18.7715L18.0549 18.4223L17.7062 18.7715L18.0549 19.1197ZM24.7468 25.8215L24.3981 26.1697L24.401 26.1725L24.7468 25.8215ZM24.7556 25.8301L24.4097 26.1811L24.4126 26.1839L24.7556 25.8301ZM25.8012 25.8223L26.1494 26.1709V26.1709L25.8012 25.8223ZM25.802 24.7679L26.1507 24.4197L25.802 24.7679ZM19.1085 18.0646L18.7598 17.7164L18.4122 18.0646L18.7598 18.4127L19.1085 18.0646ZM25.802 11.3612L26.1507 11.7094L26.1535 11.7066L25.802 11.3612ZM25.8106 11.3524L26.1621 11.6978L26.1649 11.6949L25.8106 11.3524ZM25.8012 10.3069L26.1494 9.95817L26.1494 9.95817L25.8012 10.3069ZM24.7468 10.3076L25.0955 10.6558V10.6558L24.7468 10.3076ZM18.0549 17.0094L17.7062 17.3576L18.0549 17.7068L18.4036 17.3576L18.0549 17.0094ZM11.363 10.3076L11.7117 9.95946L11.7088 9.95666L11.363 10.3076ZM11.3542 10.299L11.7001 9.94799L11.6972 9.94521L11.3542 10.299ZM10.3086 10.3069L9.96043 9.95818H9.96043L10.3086 10.3069ZM10.3078 11.3613L9.95914 11.7094H9.95914L10.3078 11.3613ZM17.0013 18.0646L17.35 18.4127L17.6976 18.0646L17.35 17.7164L17.0013 18.0646ZM10.3078 24.7678L9.95913 24.4197L9.95634 24.4225L10.3078 24.7678ZM10.6568 25.4736C10.559 25.3759 10.5579 25.218 10.6535 25.1191L9.9449 24.4342C9.47596 24.9193 9.48129 25.6925 9.96043 26.1709L10.6568 25.4736ZM11.0143 25.4733C10.9157 25.5721 10.7556 25.5722 10.6568 25.4736L9.96043 26.1709C10.4444 26.6542 11.2284 26.6536 11.7117 26.1696L11.0143 25.4733ZM17.7062 18.7715L11.0143 25.4733L11.7117 26.1696L18.4036 19.4679L17.7062 18.7715ZM25.0955 25.4733L18.4036 18.7715L17.7062 19.4679L24.3981 26.1697L25.0955 25.4733ZM25.1015 25.4792L25.0927 25.4705L24.401 26.1725L24.4097 26.1811L25.1015 25.4792ZM25.453 25.4736C25.3553 25.5712 25.1974 25.5721 25.0986 25.4764L24.4126 26.1839C24.897 26.6536 25.6702 26.6494 26.1494 26.1709L25.453 25.4736ZM25.4533 25.116C25.552 25.2148 25.5518 25.3749 25.453 25.4736L26.1494 26.1709C26.6333 25.6877 26.6339 24.9036 26.1507 24.4197L25.4533 25.116ZM18.7598 18.4127L25.4533 25.116L26.1507 24.4197L19.4572 17.7164L18.7598 18.4127ZM25.4533 11.0131L18.7598 17.7164L19.4572 18.4127L26.1507 11.7094L25.4533 11.0131ZM25.4591 11.0071L25.4505 11.0159L26.1535 11.7066L26.1621 11.6978L25.4591 11.0071ZM25.453 10.6555C25.5508 10.7532 25.5519 10.9111 25.4563 11.01L26.1649 11.6949C26.6338 11.2098 26.6285 10.4366 26.1494 9.95817L25.453 10.6555ZM25.0955 10.6558C25.1942 10.557 25.3542 10.5569 25.453 10.6555L26.1494 9.95817C25.6654 9.47493 24.8814 9.4755 24.3981 9.95945L25.0955 10.6558ZM18.4036 17.3576L25.0955 10.6558L24.3981 9.95945L17.7062 16.6612L18.4036 17.3576ZM11.0143 10.6558L17.7062 17.3576L18.4036 16.6612L11.7117 9.95947L11.0143 10.6558ZM11.0084 10.65L11.0171 10.6586L11.7088 9.95666L11.7001 9.948L11.0084 10.65ZM10.6568 10.6556C10.7546 10.5579 10.9125 10.557 11.0112 10.6528L11.6972 9.94521C11.2128 9.47555 10.4396 9.47974 9.96043 9.95818L10.6568 10.6556ZM10.6565 11.0131C10.5579 10.9143 10.558 10.7542 10.6568 10.6556L9.96043 9.95818C9.47648 10.4414 9.4759 11.2255 9.95914 11.7094L10.6565 11.0131ZM17.35 17.7164L10.6565 11.0131L9.95914 11.7094L16.6526 18.4127L17.35 17.7164ZM10.6565 25.116L17.35 18.4127L16.6526 17.7164L9.95914 24.4197L10.6565 25.116ZM10.6507 25.122L10.6593 25.1132L9.95634 24.4225L9.9477 24.4313L10.6507 25.122Z" fill="#91B4FF"/>
<path fill-rule="evenodd" clip-rule="evenodd" d="M17.8143 32.6577C26.0121 32.6577 32.6577 26.0121 32.6577 17.8143C32.6577 9.6166 26.0121 2.97101 17.8143 2.97101C9.6166 2.97101 2.97101 9.6166 2.97101 17.8143C2.97101 26.0121 9.6166 32.6577 17.8143 32.6577ZM17.8143 34.6287C27.1006 34.6287 34.6287 27.1006 34.6287 17.8143C34.6287 8.52804 27.1006 1 17.8143 1C8.52804 1 1 8.52804 1 17.8143C1 27.1006 8.52804 34.6287 17.8143 34.6287Z" fill="#91B4FF"/>
</svg>
