<svg width="164" height="43" viewBox="0 0 164 43" fill="none" xmlns="http://www.w3.org/2000/svg">
<g clip-path="url(#clip0_1092_65327)">
<path d="M48.6186 29.6153C50.9466 29.5553 52.6626 29.4833 53.7786 29.4233V38.4233H33.2466V29.4233C36.0426 29.5553 38.1546 29.6153 39.5706 29.6153V13.1873C38.6346 15.6953 36.7386 17.3153 33.8586 18.0473C33.7866 14.3033 33.4986 10.8953 33.0066 7.81128C35.0826 7.46328 36.5226 7.01928 37.3386 6.50328C38.1546 5.97528 38.7906 5.39928 39.2346 4.76328C39.6906 4.12728 39.9906 3.69528 40.1466 3.47928V3.38328H48.6066V29.6153H48.6186Z" fill="#FA1E50"/>
<path d="M89.3587 5.49527C91.6267 6.91126 93.3787 8.86727 94.6387 11.3753C95.8987 13.8833 96.5227 16.7393 96.5227 19.9433C96.5227 26.3273 95.0827 31.0793 92.1907 34.1993C89.3107 37.3313 85.4227 38.8913 80.5267 38.8913C74.5747 38.8913 69.8827 37.0553 66.4387 33.3713C67.9867 31.3433 69.4147 29.0993 70.7107 26.6633C71.7187 27.6833 73.1587 28.4633 75.0187 29.0153C76.8787 29.5673 78.5707 29.8433 80.1067 29.8433C82.3627 29.8433 84.2467 29.1473 85.7707 27.7673C87.2947 26.3873 88.2307 24.4073 88.5667 21.8393C88.5907 21.6833 88.6027 21.4553 88.6027 21.1673C87.3547 23.3873 85.7227 25.0193 83.6707 26.0513C81.6187 27.0833 79.5427 27.5993 77.4187 27.5993C75.2947 27.5993 73.4707 27.1433 71.7907 26.2193C70.1107 25.2953 68.7907 24.0353 67.8307 22.4393C66.8707 20.8433 66.3907 19.0313 66.3907 17.0393C66.3907 14.1473 67.0627 11.6753 68.3947 9.61127C69.7267 7.54727 71.5387 5.99926 73.8427 4.94326C76.1467 3.89926 78.7387 3.37126 81.6067 3.37126C84.4747 3.37126 87.0907 4.07927 89.3467 5.49527H89.3587ZM83.9587 19.5833C84.7987 19.2233 85.4707 18.7313 85.9747 18.1313C86.4787 17.5313 86.7307 16.8833 86.7307 16.1753C86.7307 15.0953 86.1907 14.1713 85.1227 13.4153C84.0427 12.6593 82.7467 12.2753 81.2227 12.2753C79.6987 12.2753 78.3907 12.6593 77.3227 13.4153C76.2427 14.1713 75.7147 15.0953 75.7147 16.1753C75.7147 17.2553 76.2547 18.2273 77.3227 18.9833C78.3907 19.7393 79.6987 20.1233 81.2227 20.1233C82.2067 20.1233 83.1187 19.9433 83.9587 19.5713V19.5833Z" fill="#FA1E50"/>
<path d="M122.575 5.49527C124.843 6.91126 126.595 8.86727 127.855 11.3753C129.115 13.8833 129.739 16.7393 129.739 19.9433C129.739 26.3273 128.299 31.0793 125.407 34.1993C122.527 37.3313 118.639 38.8913 113.743 38.8913C107.791 38.8913 103.099 37.0553 99.6546 33.3713C101.203 31.3433 102.631 29.0993 103.927 26.6633C104.935 27.6833 106.375 28.4633 108.235 29.0153C110.095 29.5673 111.787 29.8433 113.323 29.8433C115.579 29.8433 117.463 29.1473 118.987 27.7673C120.511 26.3873 121.447 24.4073 121.783 21.8393C121.807 21.6833 121.819 21.4553 121.819 21.1673C120.571 23.3873 118.939 25.0193 116.887 26.0513C114.835 27.0833 112.759 27.5993 110.635 27.5993C108.511 27.5993 106.687 27.1433 105.007 26.2193C103.327 25.2953 102.007 24.0353 101.047 22.4393C100.087 20.8433 99.6066 19.0313 99.6066 17.0393C99.6066 14.1473 100.279 11.6753 101.611 9.61127C102.943 7.54727 104.755 5.99926 107.059 4.94326C109.363 3.89926 111.955 3.37126 114.823 3.37126C117.691 3.37126 120.307 4.07927 122.563 5.49527H122.575ZM117.175 19.5833C118.015 19.2233 118.687 18.7313 119.191 18.1313C119.695 17.5313 119.947 16.8833 119.947 16.1753C119.947 15.0953 119.407 14.1713 118.339 13.4153C117.259 12.6593 115.963 12.2753 114.439 12.2753C112.915 12.2753 111.607 12.6593 110.539 13.4153C109.459 14.1713 108.931 15.0953 108.931 16.1753C108.931 17.2553 109.471 18.2273 110.539 18.9833C111.607 19.7393 112.915 20.1233 114.439 20.1233C115.423 20.1233 116.335 19.9433 117.175 19.5713V19.5833Z" fill="#FA1E50"/>
<path d="M155.803 5.49527C158.071 6.91126 159.823 8.86727 161.083 11.3753C162.343 13.8833 162.967 16.7393 162.967 19.9433C162.967 26.3273 161.527 31.0793 158.635 34.1993C155.755 37.3313 151.867 38.8913 146.971 38.8913C141.019 38.8913 136.327 37.0553 132.883 33.3713C134.431 31.3433 135.859 29.0993 137.155 26.6633C138.163 27.6833 139.603 28.4633 141.463 29.0153C143.323 29.5673 145.015 29.8433 146.551 29.8433C148.807 29.8433 150.691 29.1473 152.215 27.7673C153.739 26.3873 154.675 24.4073 155.011 21.8393C155.035 21.6833 155.047 21.4553 155.047 21.1673C153.799 23.3873 152.167 25.0193 150.115 26.0513C148.063 27.0833 145.987 27.5993 143.863 27.5993C141.739 27.5993 139.915 27.1433 138.235 26.2193C136.555 25.2953 135.235 24.0353 134.275 22.4393C133.315 20.8433 132.835 19.0313 132.835 17.0393C132.835 14.1473 133.507 11.6753 134.839 9.61127C136.171 7.54727 137.983 5.99926 140.287 4.94326C142.591 3.89926 145.183 3.37126 148.051 3.37126C150.919 3.37126 153.535 4.07927 155.791 5.49527H155.803ZM150.403 19.5833C151.243 19.2233 151.915 18.7313 152.419 18.1313C152.923 17.5313 153.175 16.8833 153.175 16.1753C153.175 15.0953 152.635 14.1713 151.567 13.4153C150.487 12.6593 149.191 12.2753 147.667 12.2753C146.143 12.2753 144.835 12.6593 143.767 13.4153C142.687 14.1713 142.159 15.0953 142.159 16.1753C142.159 17.2553 142.699 18.2273 143.767 18.9833C144.835 19.7393 146.143 20.1233 147.667 20.1233C148.651 20.1233 149.563 19.9433 150.403 19.5713V19.5833Z" fill="#FA1E50"/>
<path d="M17.8553 17.6028L16.9108 17.459V11.3536L17.3214 11.47C18.7383 11.867 19.6212 12.7157 19.9977 14.0436H27.5678C26.7739 8.97169 23.3173 6.26122 17.0271 5.7684L16.9176 5.76156V1.27148H13.6253V5.72049L13.42 5.72734C4.09076 6.11748 2.1332 10.9361 2.1332 14.906C2.1332 20.0121 5.17222 23.0306 11.1544 23.8656L13.6185 24.1941V30.8471L13.2147 30.7718C11.3118 30.4022 10.162 29.2044 9.79919 27.2126H1.63354C2.29063 32.9963 6.44532 36.405 13.4337 36.8567L13.6185 36.8704V41.2715H16.9108V36.8225L17.0203 36.8156C24.2208 36.2338 28.5192 32.4077 28.5192 26.5624C28.5192 21.4015 25.227 18.6432 17.8553 17.6028ZM13.201 16.932C12.5028 16.7814 10.3673 16.3091 10.3673 14.1941C10.3673 13.3523 10.7369 11.867 13.2215 11.3673L13.6253 11.2852V17.021L13.201 16.932ZM17.2598 30.7581L16.9176 30.8266V24.728L17.3488 24.8581C18.5603 25.2277 20.162 25.9395 20.162 27.8423C20.1551 28.9101 19.6554 30.279 17.2598 30.7581Z" fill="#FA1E50"/>
<path d="M60.0251 29.7197C61.1757 29.7197 62.1346 30.1672 62.9016 31.0621C63.6943 31.9314 64.0906 33.1459 64.0906 34.7056C64.0906 35.9841 63.8605 37.3264 63.4002 38.7327C62.9655 40.139 62.3519 41.2768 61.5593 42.1461H58.2993C59.3731 40.6887 60.0507 39.2569 60.332 37.8506C59.0024 37.8506 57.9413 37.4543 57.1487 36.6616C56.356 35.869 55.9597 34.9102 55.9597 33.7852C55.9597 32.6601 56.356 31.7013 57.1487 30.9087C57.9413 30.116 58.9001 29.7197 60.0251 29.7197Z" fill="#FA1E50"/>
</g>
<defs>
<clipPath id="clip0_1092_65327">
<rect width="163" height="42" fill="white" transform="translate(0.727295 0.146484)"/>
</clipPath>
</defs>
</svg>
