<svg width="154" height="84" viewBox="0 0 154 84" fill="none" xmlns="http://www.w3.org/2000/svg">
<g clip-path="url(#clip0_1284_55587)">
<path fill-rule="evenodd" clip-rule="evenodd" d="M22.7815 77.3829C22.6021 78.3042 23.6763 78.9427 24.3999 78.345L52.1621 55.412L27.0594 55.412L22.7815 77.3829Z" fill="#3978FF"/>
<path d="M112.765 72.5779L18.1774 63.6775C13.8788 63.273 10.5938 59.6643 10.5938 55.3467V9.33744C10.5938 4.46012 14.7483 0.61648 19.6109 0.995125L137.894 10.2057C143.868 10.6709 147.431 17.0804 144.673 22.3997L120.977 68.0988C119.408 71.1254 116.159 72.8973 112.765 72.5779Z" fill="#3978FF"/>
<path d="M38.0973 34.7466L38.8425 31.8932L37.102 31.6801L36.3567 34.5335L38.0973 34.7466ZM29.1187 30.7025L28.3735 33.5559L29.9516 33.7491L30.6968 30.8957L29.1187 30.7025ZM34.8045 31.3987L32.9943 31.1771L32.2491 34.0305L34.0592 34.2521L34.8045 31.3987ZM43.6696 32.4843L41.3953 32.2058L40.65 35.0592L43.4349 35.4003L42.8129 37.7819L22.1121 35.2469L22.7341 32.8653L25.9135 33.2546L26.6588 30.4012L24.1756 30.0971L24.7977 27.7155L27.2808 28.0196L27.809 25.9975L30.2689 26.2988L29.7408 28.3209L31.3189 28.5141L31.847 26.492L34.1445 26.7734L33.6164 28.7955L35.4265 29.0171L35.9547 26.995L38.2522 27.2764L37.724 29.2985L39.4646 29.5116L39.9927 27.4895L42.5455 27.8021L42.0174 29.8242L44.2917 30.1027L43.6696 32.4843ZM44.8977 27.2323L28.4902 25.223C27.3619 26.0587 26.228 26.8241 25.1236 27.3845C24.951 26.8532 24.4671 25.5883 24.1089 25.0343C26.3405 24.0091 28.6903 22.2565 30.3036 20.2977L32.4944 21.3543C32.0284 21.9465 31.4986 22.5076 30.9166 23.0856L45.5138 24.8731L44.8977 27.2323ZM23.0578 41.4376L20.6416 40.0519C21.7528 39.0982 23.3362 37.4372 24.3851 35.989L26.8778 36.9898C25.8173 38.483 24.2392 40.307 23.0578 41.4376ZM28.0723 37.368L30.7188 37.4138C30.6684 38.7988 30.46 40.605 30.2016 41.6863L27.3866 41.7358C27.6682 40.6573 27.987 38.7951 28.0723 37.368ZM32.7951 37.8999L35.5 37.8138C35.7398 39.188 35.8681 40.989 35.7835 42.138L32.8869 42.3166C33.0294 41.2211 32.9651 39.3583 32.7951 37.8999ZM37.5179 38.4319L40.3057 37.7531C40.9283 39.2205 41.6248 41.2303 41.8649 42.5117L38.8504 43.3251C38.6914 42.0999 38.088 40.0088 37.5179 38.4319Z" fill="white"/>
<path d="M64.8161 31.3872L62.1008 31.0547C61.8093 31.5291 61.5236 31.981 61.2206 32.4077C61.2158 34.0765 61.3447 35.6921 61.6712 37.1929C62.8598 35.5763 63.8926 33.6391 64.8161 31.3872ZM68.5524 31.8448L67.4617 31.7112C66.0301 35.0834 64.4261 37.8317 62.5162 40.0092C63.2309 41.7661 64.3003 43.2651 65.7074 44.388C64.9517 44.8056 63.8639 45.6694 63.2469 46.2894C61.9908 45.1386 61.0139 43.7437 60.3396 42.1077C58.6119 43.496 56.6646 44.5328 54.3815 45.2966C54.1625 44.7596 53.4287 43.6264 52.995 43.0864C55.6203 42.3876 57.7361 41.2556 59.5052 39.6173C59.1781 38.302 58.9733 36.8857 58.8556 35.4105C58.4307 35.8454 57.9767 36.2999 57.5171 36.6842C57.3968 36.1362 56.8486 35.0256 56.4557 34.4211L55.2588 34.8773C55.2422 34.5739 55.1852 34.2423 55.1166 33.8629C54.4457 35.056 53.6996 36.1703 52.9365 37.1666C53.768 38.6597 54.4778 40.0682 54.8459 41.2262L52.2011 42.6413C51.9541 41.7532 51.5219 40.6569 50.945 39.4733C49.2394 41.2353 47.2679 42.6401 45.1294 43.5839C44.9162 43.0245 44.2229 41.9194 43.8065 41.4047C46.0958 40.5257 48.079 39.076 49.7616 37.2184C49.1956 36.268 48.6296 35.3176 48.0632 34.4599C47.749 34.746 47.4639 35.0125 47.1846 35.2566C46.8842 34.7561 46.1963 33.8139 45.7449 33.3413C47.2398 32.2027 48.9339 30.393 50.1228 28.6836L52.2789 29.6896C51.1602 31.2221 49.6755 32.872 48.3484 34.1934L50.3885 33.168C50.7699 33.7248 51.1687 34.3069 51.5384 34.9087C52.0106 34.2013 52.4712 33.4462 52.874 32.6376L54.9731 33.312C54.6802 32.2328 54.2251 31.0409 53.7404 30.0541L55.6751 29.3404L47.7151 28.3656L48.343 25.9615L52.938 26.5242C52.8532 25.7487 52.6005 24.7903 52.3474 24.0173L54.9026 23.4955C55.2947 24.3783 55.6164 25.5306 55.6607 26.278L54.0519 26.6607L59.3896 27.3143L58.7617 29.7183L56.1161 29.3944C56.7395 30.5837 57.3042 31.9976 57.5968 33.1696C59.6054 30.981 61.2918 27.8255 62.6594 24.515L65.0833 25.2291C64.6098 26.4001 64.0435 27.5596 63.4658 28.6713L69.1979 29.3733L68.5524 31.8448Z" fill="white"/>
<path d="M87.6119 31.9528L87.9287 30.7396L82.0109 30.0149L81.694 31.2281L87.6119 31.9528ZM80.8725 34.3736L86.7903 35.0983L87.1072 33.8851L81.1894 33.1604L80.8725 34.3736ZM79.0709 41.2713L83.0761 41.0662C82.8652 41.7823 82.6534 42.7765 82.5995 43.3496C77.2763 43.7411 76.3066 43.8774 75.6211 44.1181C75.6227 43.5618 75.3762 42.4883 75.1222 41.9934C75.6219 41.8227 76.2266 41.4331 76.4613 40.5344L79.8767 27.4581L81.6172 27.6712L81.6231 27.6487L91.1844 28.8196L88.9134 37.5147L90.3365 39.1265C89.1102 39.6951 87.797 40.2299 86.6524 40.6694C87.5199 41.7494 88.3119 42.8434 88.7563 43.7094L86.3324 45.0124C85.4961 43.171 83.2466 40.3219 81.3372 38.2795L83.5109 37.2009C84.0839 37.758 84.6857 38.3881 85.2584 39.0379C86.2115 38.5982 87.2577 38.0771 88.0832 37.5753L80.2857 36.6204L79.0709 41.2713ZM76.2937 30.1727L73.4715 30.7082C73.4339 29.6602 73.2936 27.9967 73.181 26.7772L75.8984 26.368C76.0283 27.6128 76.1979 29.1639 76.2937 30.1727ZM75.3068 36.3353L76.338 36.9717C75.2815 39.0914 73.9405 41.1995 72.5604 42.8158C72.8093 43.055 73.0928 43.3448 73.4692 43.6459C74.8067 44.7604 76.9298 45.1595 79.645 45.492C82.3138 45.8188 86.5266 46.1028 89.1965 46.0588C88.6838 46.7379 87.9025 47.9871 87.6683 48.7004C85.7127 48.5768 81.6104 48.2368 78.8952 47.9043C75.8318 47.5291 73.947 47.0433 72.5226 45.895C71.6828 45.2589 71.0642 44.418 70.6001 44.3612C70.0663 44.2958 68.9014 45.7298 68.0332 46.9451L66.8688 44.1593C68.1255 43.1075 69.3928 42.3816 70.3512 42.1048C71.1898 41.0945 72.0352 39.7837 72.7527 38.5035L69.6429 38.1227C70.5053 36.9299 71.5955 35.2316 72.5926 33.6148L70.1327 33.3135L70.7547 30.9319L76.4636 31.631C75.5772 33.0992 74.5161 34.7778 73.5601 36.2374L74.8829 36.3994L75.3068 36.3353Z" fill="white"/>
<path d="M97.2048 44.373L96.9583 45.3166L106.937 46.5386L107.184 45.595L97.2048 44.373ZM105.309 37.5516L102.176 37.1679C101.786 37.6534 101.291 38.0798 100.716 38.4498L104.939 38.9671L105.309 37.5516ZM98.6619 34.1175L98.2413 35.0862L100.446 35.3562C100.621 35.053 100.755 34.7217 100.867 34.3875L98.6619 34.1175ZM104.036 32.2483L103.801 33.147L106.377 33.4624L106.612 32.5637L104.036 32.2483ZM111.648 33.1804L109.234 32.8848L108.999 33.7836L111.413 34.0791L111.648 33.1804ZM105.714 36.0013L105.972 35.0127L103.396 34.6973C103.285 35.0314 103.174 35.3656 103.045 35.6745L105.714 36.0013ZM111.621 38.3246L107.931 37.8727L107.562 39.2882L109.627 39.5411C109.605 39.2601 109.582 38.9791 109.496 38.7599C110.035 38.8955 110.517 38.9776 110.778 38.9864C110.987 39.012 111.126 39.0291 111.301 38.9113C111.399 38.8075 111.516 38.6363 111.621 38.3246ZM107.794 43.2583L97.8151 42.0363L97.5745 42.9575L107.554 44.1795L107.794 43.2583ZM108.399 40.9441L98.4195 39.7221L98.1848 40.6209L108.164 41.8429L108.399 40.9441ZM109.352 48.3879L106.799 48.0753C108.538 48.9374 110.242 49.8416 111.331 50.5315L108.895 51.8794C107.598 50.9786 105.28 49.5818 102.979 48.4885L104.084 47.7428L98.4217 47.0493L99.9163 48.0207C97.7258 48.8886 94.4621 49.5555 91.9483 49.8273C91.6655 49.2594 90.9431 48.1739 90.4571 47.6507C92.657 47.5723 95.0895 47.3369 96.9132 46.8646L93.8731 46.4923L95.616 39.8194C95.0529 39.8663 94.4433 39.9076 93.8165 39.9236C93.737 39.311 93.3513 38.2204 93.0394 37.6721C95.8891 37.6733 97.6777 37.3358 98.8575 36.7615L95.1211 36.304C95.6698 35.2119 96.3767 33.6058 96.8622 32.2973L101.295 32.8401L101.529 31.9413L96.2614 31.2962L96.6722 29.7235L101.94 30.3686L102.198 29.38L104.705 29.6869L104.447 30.6755L107.023 30.991L107.281 30.0024L109.903 30.3235L109.645 31.3121L114.565 31.9146L113.514 35.9363L108.595 35.3338L108.336 36.3224L114.742 37.1068C114.742 37.1068 114.607 37.5308 114.536 37.8004C114.057 39.1792 113.712 39.9486 113.212 40.3047C112.793 40.6244 112.265 40.722 111.748 40.6819C111.655 40.6706 111.51 40.676 111.371 40.6589L109.352 48.3879Z" fill="white"/>
<path d="M125.138 33.2808L120.921 45.4965L117.837 44.9753L120.75 32.5391L125.138 33.2808ZM121.025 46.3201L120.077 49.5963L116.341 48.9648L117.289 45.6887L121.025 46.3201Z" fill="white"/>
<path d="M151.773 12C152.94 13.8333 153.873 20.3 148.273 31.5" stroke="#3978FF" stroke-width="3" stroke-linecap="round" stroke-linejoin="round"/>
<path d="M146.273 36L144.273 39.5" stroke="#3978FF" stroke-width="3" stroke-linecap="round" stroke-linejoin="round"/>
<path d="M3.77235 46.5008C3.77352 51.5013 3.77197 56.5 5.58757 62.4289" stroke="#3978FF" stroke-width="3" stroke-linecap="round" stroke-linejoin="round"/>
<path d="M3.77344 37V41" stroke="#3978FF" stroke-width="3" stroke-linecap="round" stroke-linejoin="round"/>
</g>
<defs>
<clipPath id="clip0_1284_55587">
<rect width="154" height="84" fill="white"/>
</clipPath>
</defs>
</svg>
