<svg width="68" height="42" viewBox="0 0 68 42" fill="none" xmlns="http://www.w3.org/2000/svg">
<path d="M35.7566 36.3295C32.776 32.7798 31.2856 27.8617 31.2856 21.5482C31.2856 15.2347 32.776 10.3708 35.7837 6.8482C38.7779 3.32562 43.3979 1.55078 49.6573 1.55078C55.9166 1.55078 60.5231 3.31207 63.5037 6.8482C66.4844 10.3843 67.9747 15.2753 67.9747 21.5482C67.9747 27.8211 66.4844 32.7798 63.5037 36.3295C60.5231 39.8792 55.9031 41.654 49.6573 41.654C43.4115 41.654 38.7508 39.8792 35.7702 36.3295H35.7566ZM55.5644 29.203C56.7973 27.1843 57.4069 24.6237 57.4069 21.5482C57.4069 18.4727 56.7973 15.9663 55.5644 13.9476C54.3315 11.9288 52.3805 10.9127 49.6979 10.9127C47.0153 10.9127 44.9153 11.9288 43.6689 13.9476C42.4224 15.9663 41.8127 18.5134 41.8127 21.5482C41.8127 24.583 42.436 27.1437 43.6689 29.1759C44.9153 31.2217 46.9205 32.2379 49.6979 32.2379C52.4753 32.2379 54.345 31.2218 55.5644 29.203Z" fill="#FA1E50"/>
<path d="M17.0428 17.4221L16.0983 17.2784V11.173L16.5089 11.2893C17.9258 11.6863 18.8087 12.535 19.1852 13.8629H26.7553C25.9614 8.79103 22.5048 6.08055 16.2146 5.58774L16.1051 5.5809V1.09082H12.8128V5.53983L12.6075 5.54667C3.27826 5.93682 1.3207 10.7554 1.3207 14.7253C1.3207 19.8314 4.35972 22.8499 10.3419 23.6849L12.806 24.0135V30.6665L12.4022 30.5912C10.4993 30.2216 9.34945 29.0237 8.98669 27.032H0.821045C1.47813 32.8157 5.63282 36.2243 12.6212 36.676L12.806 36.6897V41.0908H16.0983V36.6418L16.2078 36.635C23.4083 36.0532 27.7067 32.227 27.7067 26.3817C27.7067 21.2209 24.4145 18.4625 17.0428 17.4221ZM12.3885 16.7513C11.6903 16.6007 9.55479 16.1285 9.55479 14.0135C9.55479 13.1716 9.9244 11.6863 12.409 11.1866L12.8128 11.1045V16.8403L12.3885 16.7513ZM16.4473 30.5775L16.1051 30.6459V24.5474L16.5363 24.6774C17.7478 25.047 19.3495 25.7589 19.3495 27.6617C19.3426 28.7294 18.8429 30.0984 16.4473 30.5775Z" fill="#FA1E50"/>
</svg>
