<svg width="142" height="33" viewBox="0 0 142 33" fill="none" xmlns="http://www.w3.org/2000/svg">
<path d="M26.3 8.8L23.8 3.8H19.5L18.7 5.4H24L25.2 9.9H31.4V21.9H18V27.8L16.3 31.9H9.6L11.6 27.2V9.8H19L18.3 6.4L17 8.9H10.2L10.4 8.4H8.8V13.9L10.8 12.6V16.8L8.8 18.1V32H1.6L0 28.5H2.7V22L0.5 23.4V19.3L2.7 17.9V8.4H0.4V4.9H2.7V0H8.8V4.8H10.6V8L14.5 0.4H28.7L33 8.8H26.3ZM25 13.2H18V14.6H25V13.2ZM25 17.2H18V18.6H25V17.2ZM19 31.9V23.2H31.5V31.9H19ZM26 26.5H24.4V28.7H26V26.5Z" fill="#262626"/>
<path d="M44.4 31.9H36.2L44.1 19.7H52.1L44.4 31.9ZM67.9 31.9H53V18.4H37V14.9H49.2V8.8H44.5L43.2 13.4H36.3L39.6 1.3H46.5L45.5 5.2H49.2V0.1H56.3V5.2H67V8.8H56.3V14.9H68.5V18.4H60.1V28.3H69.2L67.9 31.9Z" fill="#262626"/>
<path d="M81.2 31.8L79.9 29.3L79.1 31.8H72.4L74.8 24V8.4H72.7V4.8H74.8V0H81.2V4.8H88.7V31.8H81.2ZM83 8.4H81.4V24.7L80.4 28.1H83V8.4ZM90.8 31.8V1.7H104.7V31.8H90.8ZM98.6 5.4H96.9V28.2H98.6V5.4Z" fill="#262626"/>
<path d="M134.2 32.1L125.2 11.2L115.7 32.1H108.3L118.8 9H124.3L122.2 4.1H115.2V0.4H128.3L141.9 32.2H134.2V32.1Z" fill="#262626"/>
</svg>
