<svg width="278" height="54" viewBox="0 0 278 54" fill="none" xmlns="http://www.w3.org/2000/svg">
<rect width="278" height="54" fill="white"/>
<path fill-rule="evenodd" clip-rule="evenodd" d="M258.963 53.9999C261.788 44.64 267.88 41.3723 277.24 44.1967C267.88 41.3723 264.612 35.2799 267.437 25.9199C264.612 35.2799 258.52 38.5482 249.16 35.7225C258.52 38.5482 261.788 44.64 258.963 53.9999Z" fill="#FA3461"/>
<path fill-rule="evenodd" clip-rule="evenodd" d="M7.1631 20.52C9.2275 13.68 13.6793 11.2922 20.5195 13.3561C13.6793 11.2922 11.2914 6.83995 13.3558 0C11.2914 6.83995 6.83949 9.22834 -0.000469208 7.1634C6.83949 9.22834 9.2275 13.68 7.1631 20.52Z" fill="#2369FF"/>
<path fill-rule="evenodd" clip-rule="evenodd" d="M126.551 11C127.957 11 129.102 11.6821 129.802 12.6675L129.921 12.8444L129.976 12.935L138.828 12.9343C141.095 12.9343 142.88 14.8069 142.827 17.0217L142.818 17.2239L142.798 17.422L142.457 20.198L143.108 20.1983C144.405 20.1983 145.544 20.8115 146.272 21.7511L146.212 21.6207C146 21.1242 145.886 20.5783 145.893 20.009L145.904 19.7636L145.923 19.5656L146.316 16.3672C146.554 14.4286 148.154 12.9558 150.085 12.8598L150.286 12.8548L156.379 12.855L156.422 12.7891C157.07 11.8623 158.098 11.2297 159.266 11.1024L159.502 11.0837L159.703 11.0787H166.652C166.902 11.0787 167.146 11.1016 167.383 11.1451L167.62 11.197L167.797 11.1567C167.925 11.1311 168.054 11.1116 168.186 11.0985L168.385 11.0837L168.586 11.0787H175.613C176.869 11.0787 177.977 11.6537 178.707 12.5433L178.839 12.7137L178.937 12.855L183.646 12.8548C185.913 12.8548 187.697 14.7273 187.645 16.9421L187.635 17.1443L187.616 17.3423L186.815 23.863L186.909 23.8615L192.662 23.861L192.704 23.7575C193.263 22.4698 194.483 21.5149 195.966 21.3642L196.179 21.3482L196.378 21.3434H202.079C203.631 21.3434 205.003 22.2345 205.663 23.5661L205.749 23.7504L205.794 23.861L211.649 23.8615C211.89 23.8615 212.127 23.8828 212.356 23.9235C213.016 23.3144 213.88 22.9281 214.826 22.8723L215.064 22.8653L221.224 22.865L221.301 22.7792C221.936 22.099 222.807 21.6354 223.8 21.5316L224.031 21.5141L224.224 21.5096H229.731C230.821 21.5096 231.831 21.9507 232.563 22.685L232.732 22.865L239.139 22.8653C241.406 22.8653 243.19 24.7375 243.138 26.9521L243.128 27.1543L243.109 27.3523L242.647 31.116L242.618 31.3148L242.579 31.5102L242.544 31.651L242.541 31.7209L242.521 31.919L242.205 34.4926C242.1 35.3505 241.728 36.1171 241.178 36.7136L241.024 36.872L240.957 36.934L241.093 37.0433C242.914 38.586 242.811 41.428 241.219 42.9814L241.081 44.0949C240.942 45.2278 240.338 46.2016 239.474 46.8345L240.071 47.8865C241.553 50.4986 239.735 53.7263 236.778 53.8569L236.592 53.861H231.196C230.405 53.861 229.649 53.628 229.01 53.211C228.496 53.5466 227.902 53.7667 227.265 53.8368L227.025 53.8561L226.824 53.861H221.733C220.945 53.861 220.215 53.635 219.601 53.247C219.041 53.5994 218.396 53.8105 217.724 53.853L217.471 53.861H211.964C211.117 53.861 210.366 53.6143 209.75 53.2034C209.195 53.5592 208.548 53.7805 207.856 53.8253L207.595 53.8337H197.66C196.152 53.8337 194.778 52.9856 194.097 51.6517L194.009 51.4668L193.91 51.245L193.392 52.0322C192.739 53.0244 191.685 53.6682 190.521 53.806L190.287 53.8267L190.05 53.8337H184.212C183.61 53.8337 183.053 53.707 182.558 53.4834C182.251 53.5986 181.921 53.6786 181.57 53.7163L181.303 53.7364L181.108 53.7407H171.396C170.521 53.7407 169.672 53.4537 168.978 52.9272L168.793 52.7777L166.416 50.74H161.775L157.695 53.1754C157.213 53.4631 156.677 53.6452 156.123 53.712L155.885 53.7335L155.645 53.7407H145.933C144.792 53.7407 143.855 53.318 143.174 52.6638C142.502 53.2935 141.622 53.6784 140.682 53.7339L140.446 53.7409H124.259C122.459 53.7409 120.964 52.5612 120.45 50.9671L120.388 50.753L118.08 52.7596C117.473 53.2869 116.725 53.6168 115.934 53.7121L115.696 53.7336L115.455 53.7409H105.625C104.422 53.7409 103.429 53.2559 102.733 52.518C102.097 53.1961 101.228 53.6487 100.261 53.7559L100.018 53.7754L99.8169 53.7804H91.0531C89.5692 53.7804 88.2265 52.9617 87.5358 51.6856L87.4416 51.5003L87.3846 51.372L84.8738 51.3721C84.3662 51.3721 83.8775 51.2768 83.4265 51.1016C82.7413 52.0705 81.6383 52.7138 80.3944 52.7862L80.1596 52.793H67.5261C66.9707 52.793 66.4443 52.6806 65.9668 52.4784C65.3337 53.1938 64.4417 53.6892 63.408 53.7975L63.167 53.8156L62.9786 53.8199H55.951C55.2657 53.8199 54.6102 53.6452 54.0351 53.3312L53.8234 53.207L53.7386 53.151L53.6396 53.2178C53.149 53.5225 52.5931 53.7207 52.0082 53.7911L51.7559 53.8134L51.5291 53.8199H42.9236C40.7483 53.8199 39.0174 52.0959 38.9268 49.9999H38.0476L38.0101 50.3076C37.7801 52.1793 36.2811 53.6167 34.4395 53.8001L34.2409 53.8149L34.0399 53.8199H28.0006C25.6648 53.8199 23.8414 51.8322 24.0109 49.5304L24.0304 49.3324L28.2378 15.0648C28.4759 13.1261 30.0755 11.6533 32.0071 11.5572L32.208 11.5523H45.67C45.9211 11.5523 46.1663 11.5752 46.4038 11.6191C46.5607 11.5897 46.7212 11.5698 46.8843 11.5598L47.1307 11.5523H65.8829C67.1847 11.5523 68.3273 12.1697 69.0545 13.1148C69.6745 12.6277 70.4404 12.3223 71.2696 12.2709L71.5202 12.2631H84.1537C85.7334 12.2631 87.0787 13.1722 87.7317 14.4728L87.9246 14.474L87.9427 14.3531C88.2505 12.5789 89.7079 11.2358 91.4839 11.059L91.6825 11.0442L91.8835 11.0392H99.0681C101.001 11.0392 102.583 12.4007 102.975 14.1748L103.013 14.3664L103.028 14.474L104.568 14.4737C106.835 14.4737 108.62 16.346 108.568 18.5606L108.558 18.7628L108.539 18.9609L108.378 20.269L114.724 12.4748C115.436 11.6 116.482 11.0692 117.601 11.0063L117.826 11H126.551ZM115.267 24.4786L114.948 24.87L115.004 25.0313C115.072 25.2419 115.122 25.4596 115.154 25.6828C115.24 25.5697 115.335 25.4615 115.435 25.3587C115.368 25.1455 115.32 24.9258 115.29 24.7028L115.267 24.4786Z" fill="#FA3461"/>
<path fill-rule="evenodd" clip-rule="evenodd" d="M117.825 15L108.667 26.251H111.193L109.787 37.6997H119.617L105.625 49.7409H115.455L125.31 41.1737L124.258 49.7409H140.445L142.622 45.8328H132.397L133.216 39.1604H127.61L129.211 37.6997H141.449L143.107 24.1983H135.567L138.372 20.6447L138.827 16.9343H125.01L126.55 15H117.825ZM121.875 20.9213H129.336L126.644 24.1983H119.262L121.875 20.9213ZM130.424 28.1459H135.358L134.665 33.7913H129.73L130.424 28.1459ZM118.303 28.1459H123.199L122.505 33.7913H117.61L118.303 28.1459ZM91.4614 18.4737L91.8829 15.0392H99.0676L98.6457 18.4737H104.568L104.132 22.0269H98.2097L97.6955 26.2117H104.842L104.391 29.8833H83.3094L83.7603 26.2117H90.5108L91.025 22.0269H85.4585L85.8949 18.4737H91.4614ZM67.5255 48.793L71.5196 16.2631H84.1531L80.159 48.793H67.5255ZM78.2344 20.0922H76.5767L75.2821 30.6336H76.9401L78.2344 20.0922ZM76.4747 34.4236H74.817L73.5079 45.0826H75.1663L76.4747 34.4236ZM94.8006 33.3967L95.0772 31.1463H102.104L101.828 33.3967H103.999L103.539 37.1473H101.368L99.8164 49.7804H91.0526L90.2025 47.3721H84.8732L83.1906 38.5685H90.4941L91.8334 45.9904H93.2546L94.3403 37.1473H82.4176L82.8782 33.3967H94.8006ZM42.923 49.8199L47.1301 15.5523H65.8823L63.6721 33.5542H51.6313L51.4809 34.7788H57.4026L58.4154 37.463L59.5838 34.6991H64.7552L62.5033 40.8189H59.6616L62.978 49.8199H55.9505L51.2288 36.8311L50.0947 46.0689H53.6476L51.5286 49.8199H42.923ZM58.7996 19.2239H53.391L52.9643 22.6982H58.3726L58.7996 19.2239ZM57.922 26.3691H52.5138L52.0871 29.8438H57.4957L57.922 26.3691ZM28 49.8199L32.2074 15.5523H45.6694L44.1328 28.067L41.1518 30.1592L43.6286 32.1728L42.0145 45.319H34.5923L34.0394 49.8199H28ZM39.3318 19.2634H37.7914L36.6428 28.6195H38.1828L39.3318 19.2634ZM37.7125 32.4491H36.1725L35.0525 41.5684H36.5929L37.7125 32.4491ZM168.367 16.8548L168.585 15.0787H175.612L175.394 16.8548H183.645L182.7 24.5537H174.449L174.255 26.1324H183.414L182.551 33.1596H181.249L179.582 46.7403H177.528L181.107 49.7407H171.395L167.895 46.7403H160.671L155.644 49.7407H145.932L150.88 46.7403H148.116L149.745 33.4757H147.534L154.7 29.1331H149.41L150.326 21.6714H158.892L159.091 20.0532H149.893L150.286 16.8548H159.484L159.702 15.0787H166.651L166.433 16.8548H168.367ZM176.936 20.0532H175.001L174.803 21.6714H176.737L176.936 20.0532ZM167.974 20.0532H166.04L165.842 21.6714H167.776L167.974 20.0532ZM167.421 24.5537H165.488L165.294 26.1324H167.228L167.421 24.5537ZM158.539 24.5537H156.605L156.411 26.1324H158.345L158.539 24.5537ZM176.69 29.1331H173.886L173.581 31.62H175.239L174.882 30.357H176.539L176.69 29.1331ZM166.859 29.1331H164.215L160.238 31.62H166.554L166.859 29.1331ZM173.628 34.7785H157.007L156.862 35.963H173.482L173.628 34.7785ZM173.163 38.5686H156.542L156.396 39.753H173.017L173.163 38.5686ZM172.702 42.3184H156.081L155.936 43.5036H172.557L172.702 42.3184ZM196.377 25.3434L196.788 27.8615H186.909L186.559 30.7122H190.046L188.527 43.0817L184.211 49.8337H190.05L193.691 44.2992L194.588 36.9936L203.947 36.9384L202.704 47.0665H196.422L197.66 49.8337H207.595L209.521 34.1433H194.938L195.359 30.7122H211.298L211.648 27.8615H202.488L202.078 25.3434H196.377ZM224.5 26.8653L224.224 25.5096H229.73L230.117 26.8653H239.138L238.677 30.6289H236.13L236.032 31.4313H238.55L238.234 34.0049H235.716L235.438 36.274L231.158 37.547L238.431 40.0651H228.967L225.606 39.0416L221.966 40.0651H212.723L220.774 37.6021L216.42 36.3294L216.705 34.0049H214.187L214.503 31.4313H217.022L217.123 30.6014H214.605L215.064 26.8653H224.5ZM233.675 29.4389H219.922L219.841 30.1028H222.359L222.196 31.4313H230.913L231.076 30.1028H233.594L233.675 29.4389ZM221.88 34.0049L221.818 34.5031L226.212 35.9143L230.525 34.5858L230.597 34.0049H221.88ZM222.812 41.0611L222.938 40.038H228.029L227.904 41.0611H237.423L237.11 43.6072H227.591L226.823 49.861H221.732L222.5 43.6072H213.036L213.348 41.0611H222.812ZM231.195 49.861L228.184 44.41H233.497L236.591 49.861H231.195ZM211.963 49.861L216.451 44.41H221.903L217.471 49.861H211.963Z" fill="white"/>
</svg>
