<svg width="300" height="70" viewBox="0 0 300 70" fill="none" xmlns="http://www.w3.org/2000/svg">
<g clip-path="url(#clip0_1337_15679)">
<path d="M70.7388 42.9492C70.7388 48.7369 67.4035 52.2684 62.1063 53.3474C60.6349 53.6417 58.1825 53.6417 56.5149 53.6417L43.6643 53.5436V58.4484L32.2852 49.1293L43.6643 39.8102V44.715L58.0844 44.8131C59.4577 44.8131 60.0463 44.0283 60.0463 43.2435C60.0463 41.7721 58.673 41.2816 54.5529 39.3197C47.9805 36.1806 42.8795 33.9244 42.8795 26.7634C42.8795 21.1719 46.9015 17.3462 52.7872 16.5614C53.9644 16.3652 56.2206 16.3652 57.5939 16.3652C60.5368 16.3652 68.7769 16.5614 68.7769 16.5614V25.4882L55.2396 25.292C54.0625 25.292 53.4739 26.0767 53.4739 26.8615C53.4739 28.0387 54.4549 28.5291 58.2806 30.2949C66.3245 34.0225 70.7388 36.0825 70.7388 42.9492ZM92.0256 42.2626C92.0256 43.9302 90.5542 45.3035 87.9056 45.3035C85.0608 45.3035 83.7856 43.9302 83.7856 42.2626V16.4633H72.7007V43.1454C72.7007 49.0312 77.6055 54.6227 87.8075 54.6227C97.519 54.6227 102.914 49.1293 102.914 43.1454V16.4633H92.0256V42.2626ZM136.954 42.4588C136.954 49.816 131.951 53.8379 124.692 53.8379H106.348V16.4633H124.005C131.951 16.4633 135.973 20.8776 135.973 26.6653C135.973 29.6082 134.599 32.1587 131.853 34.0225C135.09 35.7882 136.954 38.5349 136.954 42.4588ZM117.236 31.2758H122.337C124.299 31.2758 125.182 29.9025 125.182 27.9406C125.182 25.8805 124.299 24.6053 122.337 24.6053H117.236V31.2758ZM125.869 41.9683C125.869 39.7121 124.79 38.4368 122.828 38.4368H117.236V45.4997H122.828C124.888 45.4997 125.869 44.1264 125.869 41.9683Z" fill="white"/>
<path d="M173.64 16.4614H184.529V42.7512C184.529 48.8331 180.213 54.3265 171.09 54.3265C167.166 54.3265 164.125 53.1493 161.967 51.3836C159.809 53.1493 156.866 54.3265 153.236 54.3265C143.525 54.3265 139.503 48.8331 139.503 42.7512V16.4614H150.392V42.555C150.392 43.634 150.98 45.0074 153.433 45.0074C155.885 45.0074 156.572 43.7321 156.572 42.555V16.4614H167.46V42.555C167.46 43.634 168.049 45.0074 170.501 45.0074C172.954 45.0074 173.64 43.7321 173.64 42.555V16.4614ZM231.419 31.1758V16.4614H220.628V32.1568C220.628 37.3559 224.16 41.2797 230.144 42.9474V53.7379H241.228V42.9474C247.31 41.2797 250.646 37.3559 250.646 32.1568V26.3691C250.646 25.7806 250.94 25.4863 251.529 25.4863H256.335V30.1949L267.714 20.8758L256.335 11.5566V16.2652H248.782C242.406 16.2652 239.757 19.9929 239.757 25.2901V31.1758C239.757 32.5492 238.776 34.2168 235.539 34.2168C232.4 34.2168 231.419 32.5492 231.419 31.1758ZM217.882 27.1539V53.836H206.993V42.9474H198.753V53.7379H187.864V27.1539C187.864 20.4834 193.358 15.3824 202.873 15.3824C212.29 15.3824 217.882 20.3853 217.882 27.1539ZM206.993 34.413V27.7425C206.993 25.9767 205.718 24.7015 202.873 24.7015C199.93 24.7015 198.753 25.9767 198.753 27.7425V34.413H206.993Z" fill="white"/>
<path d="M247.993 51.4851C247.993 51.1908 247.699 50.9946 247.405 50.9946H246.424V52.9566H246.816V52.2699H247.307C247.503 52.2699 247.699 52.368 247.699 52.6623V53.0546H248.091V52.5642C248.091 52.368 247.993 52.2699 247.797 52.1718C247.993 51.8775 247.993 51.7794 247.993 51.4851ZM247.307 51.8775H246.816V51.2889H247.307C247.503 51.2889 247.601 51.387 247.601 51.5832C247.601 51.7794 247.503 51.8775 247.307 51.8775ZM247.209 50.0137C246.129 50.0137 245.247 50.8965 245.247 51.9756C245.247 53.0547 246.129 53.9375 247.209 53.9375C248.288 53.9375 249.17 53.0547 249.17 51.9756C249.17 50.8965 248.288 50.0137 247.209 50.0137ZM247.209 53.6432C246.326 53.6432 245.541 52.8585 245.541 51.9756C245.541 51.0927 246.326 50.308 247.209 50.308C248.091 50.308 248.876 51.0927 248.876 51.9756C248.778 52.8585 248.091 53.6432 247.209 53.6432Z" fill="white"/>
</g>
<defs>
<clipPath id="clip0_1337_15679">
<rect width="235.43" height="46.8899" fill="white" transform="translate(32.2852 11.5557)"/>
</clipPath>
</defs>
</svg>
