<svg width="18" height="18" viewBox="0 0 18 18" fill="none" xmlns="http://www.w3.org/2000/svg">
<path fill-rule="evenodd" clip-rule="evenodd" d="M12.4688 15.4453C13.9584 14.6624 15.1283 13.3571 15.7681 11.7641C16.4079 10.1711 16.4755 8.39484 15.9589 6.75495C15.4423 5.11505 14.3753 3.71908 12.9498 2.81814C11.5244 1.9172 9.83401 1.57041 8.18278 1.84015C6.53154 2.10989 5.02781 2.97845 3.94205 4.28962C2.85629 5.60078 2.25976 7.26849 2.25976 8.99278C2.25976 9.25399 2.46507 9.46574 2.71833 9.46574C2.97159 9.46574 3.1769 9.25399 3.1769 8.99278C3.1769 7.49372 3.69551 6.04384 4.63944 4.90394C5.58338 3.76405 6.8907 3.00893 8.32625 2.77443C9.7618 2.53992 11.2314 2.84141 12.4706 3.62467C13.7099 4.40793 14.6375 5.62156 15.0867 7.04725C15.5358 8.47295 15.477 10.0171 14.9208 11.4021C14.3646 12.7871 13.3475 13.9219 12.0524 14.6024C10.7574 15.283 9.26944 15.4646 7.85615 15.1147C6.44287 14.7647 5.19702 13.9062 4.34271 12.6934C4.19385 12.4821 3.90707 12.4352 3.70218 12.5888C3.49729 12.7423 3.45187 13.0381 3.60073 13.2494C4.5834 14.6444 6.01643 15.632 7.64205 16.0345C9.26768 16.437 10.9792 16.2281 12.4688 15.4453Z" fill="#2369FF"/>
<path fill-rule="evenodd" clip-rule="evenodd" d="M1.50965 6.64763C1.73345 6.52537 2.01098 6.61338 2.12952 6.84421L2.82512 8.19871L3.89175 7.0986C4.07083 6.9139 4.36118 6.9139 4.54026 7.0986C4.71935 7.2833 4.71935 7.58276 4.54026 7.76747L3.03469 9.3203C2.9318 9.42642 2.78618 9.47588 2.64229 9.45357C2.4984 9.43127 2.37331 9.33986 2.3052 9.20724L1.31905 7.28696C1.20051 7.05613 1.28584 6.76989 1.50965 6.64763Z" fill="#2369FF"/>
<path fill-rule="evenodd" clip-rule="evenodd" d="M9.16149 4.64411C9.41875 4.64411 9.62731 4.85267 9.62731 5.10993V9.33564L11.4381 11.2032C11.6172 11.388 11.6126 11.6829 11.4279 11.8619C11.2432 12.041 10.9483 12.0365 10.7692 11.8518L8.82705 9.84864C8.74279 9.76173 8.69567 9.64544 8.69567 9.52439V5.10993C8.69567 4.85267 8.90422 4.64411 9.16149 4.64411Z" fill="#2369FF"/>
</svg>
