<svg width="188" height="97" viewBox="0 0 188 97" fill="none" xmlns="http://www.w3.org/2000/svg">
<g clip-path="url(#clip0_1109_28267)">
<path d="M34.9715 7.335H50.2522L49.7103 11.7189H16.0229L14.2713 26.0223C13.9036 28.9739 13.1777 31.9255 12.0842 34.8772C11.1745 37.2965 9.64546 39.6675 7.49705 41.9901C6.3164 43.2772 4.63252 44.574 2.45508 45.8901L3.04541 41.0514C4.10993 39.4933 4.88413 37.9933 5.35833 36.5804C6.12285 34.3449 6.80995 30.7642 7.40996 25.8384L9.68417 7.34468H27.5392C27.665 5.97048 27.5972 4.43176 27.3456 2.72852H33.636C34.3328 4.28659 34.7779 5.82531 34.9715 7.34468V7.335ZM39.5199 27.8319C40.5167 27.8319 41.2231 27.9287 41.6393 28.1319C42.5296 28.519 43.0909 29.1868 43.3425 30.1545C43.4683 30.6287 43.4683 31.3836 43.3425 32.4288L41.8522 44.5934H14.0584L16.11 27.8416H24.6456L26.4553 13.1028H33.665L33.0166 18.3577H47.2232L46.6812 22.7416H32.4747L31.8456 27.8319H39.5199ZM36.7812 32.2158H22.1585L21.181 40.1998H35.8037L36.7812 32.2158Z" fill="white"/>
<path d="M64.6812 28.1513L63.1812 40.3837H72.1039L70.3523 44.7676H60.4135C59.3393 44.7676 58.5844 44.6708 58.1296 44.4966C57.2005 44.1095 56.6005 43.4321 56.3392 42.4546C56.2134 41.9998 56.2134 41.2353 56.3392 40.1804L57.8199 28.1513H51.8973L52.4392 23.7674H59.1167L61.449 4.74144H93.3266L92.7847 9.12534H67.7877L67.5555 11.0125H90.4621L89.9202 15.3964H67.0135L66.7813 17.3028H89.6879L89.146 21.6867H66.2393L65.978 23.7771H95.2815L94.7396 28.161H64.6522L64.6812 28.1513ZM80.2233 35.0126C82.3717 33.4933 84.1717 31.6642 85.6524 29.5062H92.3782C90.5976 32.0804 88.6621 34.0546 86.5717 35.4481C85.5846 36.1062 84.375 36.7836 82.9233 37.4707C83.7266 38.003 84.6556 38.5159 85.6911 39.0095C87.1137 39.6482 89.5524 40.3643 93.0073 41.1482L92.5331 45.0289C86.2911 44.1579 81.1814 42.2514 77.1943 39.3095C74.6104 37.3836 72.5103 34.7804 70.8748 31.5094C70.391 30.5029 69.9845 29.6997 69.6845 29.0997H76.962C78.1523 31.8578 79.2459 33.832 80.233 35.0223L80.2233 35.0126Z" fill="white"/>
<path d="M112.411 10.635H117.143L116.601 15.0189H111.869L110.901 22.8674L115.556 21.9287L115.034 26.1481L110.311 27.619L108.743 40.403C108.472 42.6192 107.64 44.0708 106.256 44.7385C105.298 45.1934 103.827 45.4256 101.853 45.4256H98.185L97.6915 41.0417H102.395L103.798 29.632L97.9334 31.4417L98.6883 25.3158L104.475 24.1448L105.598 15.0093H100.411L100.953 10.6254H106.14L107.098 2.84465H113.359L112.401 10.6254L112.411 10.635ZM114.317 44.4192L116.65 25.3932H135.356C136.392 25.3932 137.147 25.4803 137.592 25.6642C138.492 26.061 139.082 26.7481 139.363 27.7061C139.489 28.1707 139.489 28.9255 139.363 29.9804L137.592 44.4192H114.317ZM130.189 8.79631C129.782 12.0092 128.776 14.7286 127.188 16.9641C125.863 18.8125 124.082 20.419 121.866 21.7835C120.608 22.5674 118.769 23.3803 116.359 24.2416L116.853 20.2254C119.582 18.5609 121.479 16.4996 122.543 14.0512C123.095 12.7834 123.53 11.0318 123.83 8.79631H118.44L118.982 4.4124H138.26C139.295 4.4124 140.05 4.50918 140.495 4.68337C141.414 5.08015 142.005 5.76725 142.285 6.72532C142.411 7.18017 142.411 7.94469 142.285 8.99954L141.134 18.4061C141.008 19.4512 140.824 20.2061 140.582 20.6803C140.098 21.648 139.372 22.3255 138.405 22.7222C137.94 22.9061 137.205 23.0029 136.189 23.0029H128.959L128.253 18.619H134.843L136.053 8.79631H130.189ZM121.121 40.0353H131.863L133.121 29.7771H122.379L121.121 40.0353Z" fill="white"/>
<path d="M150.579 22.5964C149.554 23.3513 147.918 24.29 145.663 25.4222L146.263 20.5061C148.005 19.1416 149.524 17.5738 150.812 15.8028C153.512 12.0383 155.379 7.7221 156.444 2.85432H162.734C161.979 5.67047 161.331 7.78017 160.808 9.1834C160.044 11.206 159.028 13.1705 157.77 15.077L153.976 45.9482H147.715L150.579 22.5867V22.5964ZM156.328 39.8514L156.705 36.0385C158.631 34.0352 160.102 31.8578 161.108 29.5158C162.096 27.2223 162.763 24.5513 163.121 21.5029H168.792C168.241 25.8964 167.021 29.5255 165.134 32.3804C163.838 34.3546 162.231 36.0481 160.305 37.4707C159.376 38.1482 158.05 38.932 156.318 39.832L156.328 39.8514ZM168.889 13.0447C167.989 14.3899 167.012 15.5706 165.957 16.577C164.292 18.1641 162.047 19.7028 159.221 21.1932L159.792 16.5093C161.505 14.8835 162.899 13.0157 163.973 10.8866C164.805 9.23179 165.744 6.53177 166.779 2.75755H173.302C172.721 4.99305 172.044 6.95758 171.27 8.66082H185.863C186.86 8.66082 187.567 8.74792 187.983 8.93179C188.854 9.32857 189.415 10.0157 189.657 10.9737C189.783 11.4479 189.783 12.2028 189.657 13.248L188.776 20.4093H182.515L183.415 13.0447H168.889ZM162.647 45.3869L162.154 41.003H168.676L171.86 15.048H178.121L174.831 41.8546C174.541 44.2063 173.157 45.3869 170.679 45.3869H162.647ZM183.086 21.5609C185.186 26.661 186.628 32.3707 187.431 38.7094H181.209C180.976 32.8642 180.241 27.1545 178.992 21.59L183.086 21.5706V21.5609Z" fill="white"/>
<path d="M12.9478 84.0794C9.20296 88.1499 3.88987 91.252 -3 93.3687L-2.58866 90.018C1.79891 88.1327 5.32955 85.9561 7.98609 83.5052C9.32293 82.2712 10.7026 80.763 12.1166 78.972H8.67165C8.47455 77.5408 8.27745 76.4782 8.08035 75.7927C6.34932 78.1407 3.55566 79.9489 -0.30918 81.2343L0.0164607 78.5521C1.36187 77.6265 2.3645 76.7782 3.03292 76.0155C4.06983 74.7901 4.70397 73.2647 4.92678 71.4222L5.25242 68.7914H10.0685L9.69142 71.825L9.66571 72.0478C11.3282 74.0702 12.5108 75.8955 13.2135 77.5237C13.3592 77.3266 13.5734 77.0267 13.8648 76.6153L14.9617 67.7116H1.44757L1.88461 64.181H15.3987L15.8957 60.1619H21.4488L20.9517 64.181H34.5001L34.063 67.7116H20.5147L19.3407 77.2409C19.6406 77.7979 20.0519 78.4664 20.5747 79.2376L20.8232 77.2409C21.723 76.5639 22.4342 75.8698 22.9656 75.1671C23.7197 74.1645 24.1824 72.9133 24.371 71.4137L24.6966 68.7828H29.4869L29.1099 71.8164C29.0927 71.9621 29.067 72.1078 29.0413 72.2449C30.8152 74.2587 32.2292 76.4697 33.2747 78.8863H28.133C27.893 77.5066 27.6445 76.4268 27.3788 75.6641C26.5819 76.6411 25.425 77.558 23.9168 78.4235C22.897 79.0148 21.9029 79.469 20.9517 79.7775C21.5516 80.643 22.4942 81.7913 23.7882 83.2224C25.4079 85.0135 27.0446 86.4788 28.7071 87.6271C29.5126 88.1842 30.7638 88.964 32.452 89.9752L32.0406 93.3259C25.8192 91.0549 21.2945 88.0299 18.4751 84.2593L17.1726 94.8684H11.6196L12.9478 84.0794Z" fill="white"/>
<path d="M70.2096 71.3623L69.7725 74.8929H57.3896L56.8155 72.0392L54.5874 90.1637H70.2438L69.8068 93.7029H35.1175L35.5546 90.1637H48.5116L52.1794 60.2733H58.2466L56.884 71.3623H70.2096Z" fill="white"/>
<path d="M77.3738 86.3931L78.5135 77.121H75.3085L75.7456 73.5646H78.9506L79.9189 65.6807H76.5511L76.9882 62.15H88.3513L87.9143 65.6807H84.4693L83.501 73.5646H86.646L86.2089 77.121H83.0639L82.0613 85.2448L85.9947 84.3022L85.5748 87.7471L73.1747 92.2632L73.7832 87.2844L77.3738 86.3931ZM98.172 60.1619L96.3724 74.8243C95.7639 79.8118 94.1957 83.9851 91.6677 87.3529C90.6651 88.6726 89.5168 89.8809 88.2056 90.9607C87.023 91.9376 85.2063 93.2316 82.7469 94.8512L83.1839 91.3206C85.3434 89.6838 86.8688 88.227 87.7514 86.9673C89.234 84.8421 90.2966 82.6226 90.9393 80.3002C91.1878 79.4004 91.4792 77.5237 91.8305 74.6701L93.613 60.1619H98.172ZM92.0705 66.6233C91.3164 71.8679 90.5537 76.444 89.7739 80.3602H85.7033C87.1344 76.1783 88.2999 71.6022 89.2254 66.6233H92.079H92.0705ZM99.166 90.0523L100.571 78.5949H97.1265L97.5635 75.0643H101.008L102.165 65.6464H98.3005L98.7375 62.1072H111.232L110.795 65.6464H106.724L105.567 75.0643H109.012L108.575 78.5949H105.13L103.725 90.0523H108.241L107.804 93.5915H94.0329L94.4699 90.0523H99.1746H99.166Z" fill="white"/>
<path d="M121.585 88.784L120.282 94.0371L115.106 93.3858L116.409 88.1327L121.585 88.784ZM127.824 63.6411L124.473 77.1295L121.148 86.0589L118.132 85.6819L119.297 76.4868L122.648 62.9984L127.824 63.6497V63.6411Z" fill="white"/>
</g>
<defs>
<clipPath id="clip0_1109_28267">
<rect width="188" height="96" fill="white" transform="translate(0 0.728516)"/>
</clipPath>
</defs>
</svg>
