<svg xmlns="http://www.w3.org/2000/svg" width="18" height="18" viewBox="0 0 18 18">
    <g fill="none" fill-rule="evenodd">
        <g>
            <g>
                <g>
                    <path d="M0 0H18V18H0z" transform="translate(-339 -387) translate(0 370) matrix(1 0 0 -1 339 35)"/>
                    <path fill="#2B3340" d="M5.77 2.289c.175-.167.45-.162.62.01l.005.005 5.66 5.94c.405.423.409 1.088.012 1.517l-.012.012-5.66 5.924c-.17.176-.449.183-.625.014-.175-.167-.183-.443-.02-.62l.006-.004 5.66-5.924c.082-.085.083-.22.004-.306l-.004-.005-5.66-5.939c-.169-.177-.162-.456.014-.624z" transform="translate(-339 -387) translate(0 370) matrix(1 0 0 -1 339 35)"/>
                </g>
            </g>
        </g>
    </g>
</svg>
