<?xml version="1.0" encoding="UTF-8"?>
<svg width="160px" height="41px" viewBox="0 0 160 41" version="1.1" xmlns="http://www.w3.org/2000/svg" xmlns:xlink="http://www.w3.org/1999/xlink">
    <title>82645504-F27D-4304-97DA-4551D3552646</title>
    <g id="Page-1" stroke="none" stroke-width="1" fill="none" fill-rule="evenodd">
        <g id="PC_企業轉職潮活動主頁--v-全展開" transform="translate(-1033.000000, -6944.000000)">
            <g id="1-01)-Icon/3)-Social/3)-Store/ic_appstore" transform="translate(1033.000000, 6944.000000)">
                <rect id="button-area" fill="#000000" x="0" y="0" width="159.418786" height="41" rx="20.5"></rect>
                <g id="obj-app-store-icon" transform="translate(17.436430, 5.000000)" fill="#FFFFFF" fill-rule="nonzero">
                    <g>
                        <g id="Group">
                            <path d="M18.4327971,15.0087697 C18.4736481,12.8652522 19.5799497,10.8885533 21.372081,9.75696577 C20.2290714,8.09801948 18.3823497,7.08474739 16.3902439,7.02349676 C14.2978723,6.79570768 12.2677737,8.28899167 11.2091334,8.28899167 C10.150493,8.28899167 8.48157758,7.02349676 6.71302543,7.02349676 C4.37632312,7.11579953 2.26054374,8.45282146 1.14582252,10.5415726 C-1.24545926,14.7809806 0.535547483,21.0072155 2.83964712,24.4240518 C3.99792423,26.10716 5.33056565,27.9800925 7.11157239,27.9041628 C8.89257914,27.8282331 9.49039958,26.7905273 11.5703166,26.7905273 C13.6502335,26.7905273 14.2355994,27.9041628 16.0415153,27.866198 C17.8474312,27.8282331 19.0679813,26.1830897 20.1764401,24.4873265 C21.0056025,23.2929359 21.6444618,21.9733094 22.0695381,20.5769473 C19.8667163,19.631478 18.434434,17.438525 18.4327971,15.0087697 Z" id="_路徑_"></path>
                            <path d="M15.0326933,4.77091582 C16.0414958,3.53755924 16.5374194,1.95322045 16.4151531,0.354338575 C14.8846878,0.532714882 13.4736117,1.281164 12.4545926,2.45506013 C11.4321151,3.61937286 10.9077948,5.14933578 10.9974053,6.70712303 C12.5635583,6.7246898 14.0510184,6.01097845 15.0326933,4.77091582 Z" id="_路徑_2"></path>
                        </g>
                        <path d="M40.8492555,23.6714976 L34.8620096,23.6714976 L33.4189948,28 L30.8873897,28 L36.558185,12 L39.1657382,12 L44.8365335,28 L42.3049284,28 L40.8492555,23.6714976 Z M35.4822529,21.6747182 L40.2290123,21.6747182 L37.8999357,14.6666667 L37.8366455,14.6666667 L35.4822529,21.6747182 Z" id="Shape"></path>
                        <path d="M56.7929424,22.209648 C56.7929424,25.6811758 54.8527709,27.9172845 51.9360893,27.9172845 C50.4273956,27.9946088 49.0053064,27.2365721 48.2741762,25.9653222 L48.2741762,25.9653222 L48.2741762,31.5 L45.8329009,31.5 L45.8329009,16.6131993 L48.1456881,16.6131993 L48.1456881,18.4786822 L48.1456881,18.4786822 C48.906621,17.2149948 50.3282456,16.4556071 51.8461476,16.5020115 C54.8399221,16.5020115 56.7929424,18.7504744 56.7929424,22.209648 Z M54.3388182,22.209648 C54.3388182,19.948831 53.1181805,18.5033906 51.2679508,18.5033906 C49.417721,18.5033906 48.222781,20.0229561 48.222781,22.209648 C48.222781,24.3963399 49.5076628,25.9159054 51.2807996,25.9159054 C53.0539364,25.9159054 54.3388182,24.4951734 54.3388182,22.209648 Z" id="Shape"></path>
                        <path d="M69.247535,22.209648 C69.247535,25.6811758 67.3073636,27.9172845 64.3906819,27.9172845 C62.8819882,27.9946088 61.459899,27.2365721 60.7287689,25.9653222 L60.7287689,25.9653222 L60.7287689,31.5 L58.2874935,31.5 L58.2874935,16.6131993 L60.6002807,16.6131993 L60.6002807,18.4786822 L60.6002807,18.4786822 C61.3612137,17.2149948 62.7828383,16.4556071 64.3007402,16.5020115 C67.3073636,16.5020115 69.247535,18.7504744 69.247535,22.209648 Z M66.7934108,22.209648 C66.7934108,19.948831 65.5727732,18.5033906 63.7225434,18.5033906 C61.8723137,18.5033906 60.6773736,20.0229561 60.6773736,22.209648 C60.6773736,24.3963399 61.9622554,25.9159054 63.7353922,25.9159054 C65.5085291,25.9159054 66.7934108,24.4951734 66.7934108,22.209648 Z" id="Shape"></path>
                        <path d="M77.1012546,23.7893916 C77.2770842,25.3724649 78.7716353,26.3634945 80.8690305,26.3634945 C82.9664258,26.3634945 84.2474696,25.3209828 84.2474696,23.8923557 C84.2474696,22.4637285 83.3934404,21.9102964 81.3714007,21.3954758 L79.3116832,20.9578783 C76.4481735,20.25 75.1168926,18.8728549 75.1168926,16.6462559 C75.1168926,13.8919657 77.465473,12 80.793675,12 C84.1218771,12 86.3448649,13.8919657 86.4202204,16.6462559 L84.0716401,16.6462559 C83.9334883,15.050312 82.6398852,14.0721529 80.7685565,14.0721529 C78.8972278,14.0721529 77.6036247,15.050312 77.6036247,16.4660686 C77.6036247,17.5986739 78.4199762,18.2550702 80.4294567,18.7698908 L82.1500744,19.2074883 C85.3526839,19.9797192 86.6839647,21.3053822 86.6839647,23.6349454 C86.6839647,26.6209048 84.3605029,28.5 80.6680825,28.5 C77.2142879,28.5 74.8782668,26.6723869 74.7275558,23.7765211 L77.1012546,23.7893916 Z" id="Shape"></path>
                        <path d="M91.5521631,14 L91.5521631,16.6678067 L93.6585366,16.6678067 L93.6585366,18.5003654 L91.5521631,18.5003654 L91.5521631,24.7335586 C91.5521631,25.7059367 91.9661325,26.1547266 92.8914757,26.1547266 C93.1388748,26.1680425 93.3867863,26.1680425 93.6341854,26.1547266 L93.6341854,27.8875543 C93.2329253,27.9658665 92.8250972,28.0034477 92.4166285,27.9997518 C90.1884994,27.9997518 89.3118584,27.1395711 89.3118584,24.9579535 L89.3118584,18.5128318 L87.6803321,18.5128318 L87.6803321,16.6678067 L89.2875073,16.6678067 L89.2875073,14 L91.5521631,14 Z" id="Shape"></path>
                        <path d="M95.1530877,22.25 C95.1530877,18.7182112 97.2991098,16.5 100.633108,16.5 C103.967107,16.5 106.113129,18.7182112 106.113129,22.25 C106.113129,25.7817888 103.979881,28 100.645882,28 C97.3118838,28 95.1530877,25.794181 95.1530877,22.25 Z M103.711628,22.25 C103.711628,19.7715517 102.561974,18.3960129 100.645882,18.3960129 C98.7297912,18.3960129 97.5929105,19.8459052 97.5929105,22.25 C97.5929105,24.6540948 98.7297912,26.1039871 100.658656,26.1039871 C102.587521,26.1039871 103.711628,24.6788793 103.711628,22.25 Z" id="Shape"></path>
                        <path d="M107.60768,16.6276936 L109.928935,16.6276936 L109.928935,18.5628706 L109.928935,18.5628706 C110.247752,17.3132524 111.428521,16.4524916 112.755939,16.5020328 C113.035117,16.5010973 113.313516,16.5306038 113.585885,16.5899953 L113.585885,18.776494 C113.237168,18.674376 112.873678,18.6276952 112.509549,18.6382671 C111.800686,18.6081052 111.113752,18.8802958 110.629794,19.3831007 C110.145836,19.8859057 109.91341,20.5688772 109.993775,21.2520127 L109.993775,28 L107.60768,28 L107.60768,16.6276936 Z" id="Shape"></path>
                        <path d="M124.419423,24.5673491 C124.103163,26.5996767 122.079104,28 119.485777,28 C116.15873,28 114.084069,25.8189655 114.084069,22.299569 C114.084069,18.7801724 116.15873,16.5 119.384574,16.5 C122.610419,16.5 124.545926,18.6314655 124.545926,22.0393319 L124.545926,22.8324353 L116.462338,22.8324353 L116.462338,22.96875 C116.389219,23.8039113 116.685434,24.6296613 117.275805,25.236428 C117.866176,25.8431946 118.693945,26.1726442 119.549029,26.1411638 C120.693239,26.2670028 121.779885,25.6201702 122.192957,24.5673491 L124.419423,24.5673491 Z M116.474961,21.221444 L122.205607,21.221444 C122.248,20.4708659 121.969222,19.7369258 121.436287,19.196052 C120.903351,18.6551782 120.164458,18.3562874 119.397225,18.3712284 C118.622338,18.3645913 117.877038,18.6623487 117.327902,19.1979511 C116.778766,19.7335535 116.471575,20.4623468 116.474961,21.221444 L116.474961,21.221444 Z" id="Shape"></path>
                        <path d="M34.4617624,0.509078533 C35.4165759,0.435190416 36.3522055,0.815230773 37.0067328,1.5428118 C37.6612602,2.27039282 37.9643498,3.26732879 37.8311554,4.25453927 C37.8311554,6.63914927 36.6320832,8 34.4617624,8 L31.8837571,8 L31.8837571,0.509078533 L34.4617624,0.509078533 Z M32.9988943,6.91381639 L34.3538459,6.91381639 C35.0368587,6.96702069 35.7060579,6.69401617 36.1725606,6.1718589 C36.6390634,5.64970164 36.8522656,4.93503297 36.7519904,4.22956953 C36.8442371,3.52806596 36.6274151,2.82069077 36.1619317,2.30452114 C35.6964483,1.78835152 35.032052,1.518553 34.3538459,1.57029241 L32.9988943,1.57029241 L32.9988943,6.91381639 Z" id="Shape"></path>
                        <path d="M39.8546964,5.16859871 C39.8546964,3.69477234 41.0800076,2.5 42.5915054,2.5 C44.1030033,2.5 45.3283145,3.69477234 45.3283145,5.16859871 C45.3978496,6.15639497 44.8968247,7.0995944 44.0292647,7.61411189 C43.1617047,8.12862937 42.0723422,8.12862937 41.2047822,7.61411189 C40.3372222,7.0995944 39.8361973,6.15639497 39.9057325,5.16859871 L39.8546964,5.16859871 Z M44.0524128,5.16859871 C44.0524128,3.92449675 43.4910161,3.24024067 42.5085718,3.24024067 C41.5261276,3.24024067 41.0285259,3.92449675 41.0285259,5.16859871 C41.0285259,6.41270067 41.5771636,7.09695675 42.5723669,7.09695675 C43.5675702,7.09695675 44.0524128,6.41270067 44.0524128,5.16859871 Z" id="Shape"></path>
                        <polygon id="Shape" points="52.2096523 8 51.03633 8 49.8502543 3.94222222 49.7609798 3.94222222 48.574904 8 47.4143352 8 45.8329009 2.5 46.9807161 2.5 48.0137499 6.70444444 48.1030244 6.70444444 49.2891002 2.5 50.3731479 2.5 51.5592237 6.70444444 51.6484982 6.70444444 52.6687784 2.5 53.8038402 2.5"></polygon>
                        <path d="M54.838768,2.11073229 L55.9441659,2.11073229 L55.9441659,3.05301513 L56.0341401,3.05301513 C56.3319091,2.3672596 57.0223542,1.9475558 57.7565044,2.0060342 C58.3266415,1.95982226 58.8863549,2.18086397 59.2767788,2.60642012 C59.6672027,3.03197628 59.8457139,3.61558821 59.7616448,4.19160688 L59.7616448,8 L58.6176865,8 L58.6176865,4.47952664 C58.6176865,3.5372438 58.2192291,3.06610239 57.33234,3.06610239 C56.940364,3.02986012 56.5536857,3.17847213 56.2829971,3.46939626 C56.0123084,3.7603204 55.8874506,4.16148456 55.9441659,4.55805021 L55.9441659,8 L54.8002076,8 L54.838768,2.11073229 Z" id="Shape"></path>
                        <polygon id="Shape" points="61.2877909 0 62.2729632 0 62.2729632 8 61.2765957 8"></polygon>
                        <path d="M64.2721533,5.25 C64.2020471,4.29060236 64.7071862,3.37451941 65.5818703,2.87479403 C66.4565544,2.37506866 67.5548623,2.37506866 68.4295464,2.87479403 C69.3042305,3.37451941 69.8093696,4.29060236 69.7392634,5.25 C69.8093696,6.20939764 69.3042305,7.12548059 68.4295464,7.62520597 C67.5548623,8.12493134 66.4565544,8.12493134 65.5818703,7.62520597 C64.7071862,7.12548059 64.2020471,6.20939764 64.2721533,5.25 L64.2721533,5.25 Z M68.5557949,5.25 C68.5557949,4.04166531 67.9897882,3.37708124 66.9992765,3.37708124 C66.0087647,3.37708124 65.442758,4.04166531 65.442758,5.25 C65.442758,6.45833469 65.9959009,7.12291876 66.9992765,7.12291876 C68.002652,7.12291876 68.5557949,6.45833469 68.5557949,5.25 Z" id="Shape"></path>
                        <path d="M70.2439024,6.27175264 C70.2439024,5.23267768 71.0346702,4.62975763 72.4448728,4.55278912 L74.0527673,4.46299252 L74.0527673,3.93704099 C74.0527673,3.32129286 73.6442039,2.98776262 72.8402567,2.98776262 C72.0363094,2.98776262 71.7331818,3.21866817 71.6013871,3.62916692 L70.4679533,3.62916692 C70.5865685,2.6414043 71.5486693,2 72.8929745,2 C74.2372798,2 75.2257395,2.71837282 75.2257395,3.93704099 L75.2257395,7.88809148 L74.0923057,7.88809148 L74.0923057,7.07992206 L74.0000494,7.07992206 C73.6177299,7.67215206 72.9388019,8.01969818 72.2208219,7.99071617 C71.7189359,8.04129393 71.2183928,7.88363092 70.842105,7.55644251 C70.4658171,7.22925411 70.2486397,6.76284756 70.2439024,6.27175264 L70.2439024,6.27175264 Z M74.0527673,5.78428538 L74.0527673,5.28399002 L72.6030263,5.37378662 C71.7858996,5.37378662 71.4168747,5.69448877 71.4168747,6.20761221 C71.4168747,6.72073565 71.8781559,7.02860972 72.5107701,7.02860972 C72.8901318,7.06782231 73.269467,6.9543248 73.5606949,6.71447105 C73.8519229,6.4746173 74.0297074,6.12927406 74.0527673,5.7586292 L74.0527673,5.78428538 Z" id="Shape"></path>
                        <path d="M77.2184743,5.04660486 C77.2184743,3.25506014 78.1686917,2.11957404 79.6525928,2.11957404 C80.4002882,2.08534721 81.1007513,2.47400956 81.4488941,3.1162785 L81.5400109,3.1162785 L81.5400109,0 L82.6984951,0 L82.6984951,7.89793661 L81.5920776,7.89793661 L81.5920776,7.00216425 L81.5009608,7.00216425 C81.1282736,7.6396205 80.421108,8.02365329 79.6656095,7.99886871 C78.155675,7.9862522 77.2184743,6.8507661 77.2184743,5.04660486 Z M78.4160085,5.04660486 C78.4160085,6.30825608 79.001759,6.97693122 79.9780097,6.97693122 C80.9542604,6.97693122 81.5530275,6.30825608 81.5530275,5.04660486 C81.5530275,3.78495365 80.9412438,3.1162785 79.9780097,3.1162785 C79.0147757,3.1162785 78.4029919,3.86065272 78.4029919,5.04660486 L78.4160085,5.04660486 Z" id="Shape"></path>
                        <path d="M86.69042,5.25 C86.6203138,4.29060236 87.125453,3.37451941 88.0001371,2.87479403 C88.8748211,2.37506866 89.973129,2.37506866 90.8478131,2.87479403 C91.7224972,3.37451941 92.2276363,4.29060236 92.1575302,5.25 C92.2276363,6.20939764 91.7224972,7.12548059 90.8478131,7.62520597 C89.973129,8.12493134 88.8748211,8.12493134 88.0001371,7.62520597 C87.125453,7.12548059 86.6203138,6.20939764 86.69042,5.25 L86.69042,5.25 Z M90.9740616,5.25 C90.9740616,4.04166531 90.4080549,3.37708124 89.4175432,3.37708124 C88.4270315,3.37708124 87.8738886,4.04166531 87.8738886,5.25 C87.8738886,6.45833469 88.4270315,7.12291876 89.430407,7.12291876 C90.4337825,7.12291876 90.9740616,6.45833469 90.9740616,5.25 Z" id="Shape"></path>
                        <path d="M93.1603529,2.12572147 L94.2657508,2.12572147 L94.2657508,3.06560604 L94.3557251,3.06560604 C94.6539764,2.36186757 95.3657636,1.9344657 96.1166497,2.0082359 C96.6867868,1.96214157 97.2465002,2.1826207 97.6369241,2.60709374 C98.027348,3.03156678 98.2058592,3.61369333 98.1217901,4.18824593 L98.1217901,8 L96.9778318,8 L96.9778318,4.48848683 C96.9778318,3.54860227 96.5793744,3.07865999 95.6924853,3.07865999 C95.3005093,3.04250996 94.913831,3.19074373 94.6431424,3.48092741 C94.3724537,3.7711111 94.2475959,4.17125423 94.3043112,4.56681055 L94.3043112,8 L93.1603529,8 L93.1603529,2.12572147 Z" id="Shape"></path>
                        <path d="M103.962668,0.5 L103.962668,2.01868253 L105.116762,2.01868253 L105.116762,3.01781578 L103.962668,3.01781578 L103.962668,6.09514617 C103.962668,6.72126967 104.181946,7.00102698 104.701288,7.00102698 L105.09368,7.00102698 L105.09368,7.98683845 C104.909338,8.00438718 104.724057,8.00438718 104.539715,7.98683845 C103.385622,7.98683845 102.947066,7.52057627 102.947066,6.3615817 L102.947066,3.01781578 L102.12766,3.01781578 L102.12766,2.01868253 L102.947066,2.01868253 L102.947066,0.5 L103.962668,0.5 Z" id="Shape"></path>
                        <path d="M107.160281,0 L108.277537,0 L108.277537,3.16932907 L108.36641,3.16932907 C108.673155,2.49125498 109.367692,2.07791715 110.105775,2.1341853 C110.666661,2.10212761 111.212376,2.32436593 111.593325,2.73997986 C111.974274,3.15559379 112.15049,3.72097869 112.073669,4.28115016 L112.073669,8 L110.943717,8 L110.943717,4.56230032 C110.943717,3.64217252 110.524746,3.18210863 109.674107,3.18210863 C109.282542,3.15041528 108.897022,3.2941727 108.620476,3.57500004 C108.34393,3.85582738 108.204514,4.24513258 108.239449,4.63897764 L108.239449,8 L107.109497,8 L107.160281,0 Z" id="Shape"></path>
                        <path d="M118.999121,6.3073986 C118.66003,7.42342299 117.524919,8.13366242 116.327731,7.97888916 C115.537074,7.99896389 114.777823,7.68073939 114.25444,7.10991235 C113.731057,6.53908531 113.497356,5.77434625 113.61627,5.02163663 C113.511898,4.25440907 113.757846,3.48127179 114.290607,2.90185594 C114.823368,2.3224401 115.590717,1.99354559 116.394516,2.00009601 C118.064134,2.00009601 119.065906,3.10585131 119.065906,4.91877568 L119.065906,5.31736189 L114.818396,5.31736189 L114.818396,5.31736189 C114.780708,5.74718178 114.933245,6.17234752 115.238447,6.48817495 C115.54365,6.80400238 115.973162,6.98114791 116.42123,6.97599482 C116.9937,7.04855416 117.555966,6.78551855 117.850423,6.3073986 L118.999121,6.3073986 Z M114.818396,4.49447423 L117.850423,4.49447423 C117.880612,4.10078766 117.736922,3.71310116 117.454674,3.42671878 C117.172427,3.1403364 116.777799,2.98181835 116.367802,2.99013273 C115.953434,2.98660349 115.555163,3.14438357 115.263409,3.42765137 C114.971656,3.71091917 114.811173,4.09564196 114.818396,4.49447423 Z" id="Shape"></path>
                    </g>
                </g>
            </g>
        </g>
    </g>
</svg>