<svg width="18" height="18" viewBox="0 0 18 18" fill="none" xmlns="http://www.w3.org/2000/svg">
<path fill-rule="evenodd" clip-rule="evenodd" d="M14.6459 2.23883L14.6507 2.23763C15.662 1.99108 16.6508 2.6793 16.8678 3.74598C16.8959 3.8846 16.9102 4.02604 16.9102 4.16787V10.6672C16.9102 11.7516 16.0924 12.6468 15.0616 12.6468C14.9232 12.6468 14.7854 12.6302 14.6507 12.5974L14.6411 12.5949L8.10352 10.8528V13.9564C8.10352 14.98 7.28204 15.8117 6.2624 15.8282L6.23145 15.8285H6.00293C4.97935 15.8285 4.14764 15.007 4.13111 13.9874L4.13086 13.9564V10.7047C2.42126 10.5822 1.07227 9.1573 1.07227 7.41735C1.07227 5.61521 2.51942 4.151 4.31551 4.12189L4.37005 4.12145H7.5812L14.6459 2.23883ZM5.0625 10.7132V13.9564C5.0625 14.4706 5.47517 14.8884 5.98738 14.8967L6.00293 14.8968H6.23145C6.74564 14.8968 7.16344 14.4842 7.17175 13.972L7.17188 13.9564V10.7132H5.0625ZM7.17188 9.78161V8.47204V5.05309H4.37005C3.06319 5.05309 2.00391 6.11168 2.00391 7.41735C2.00391 8.70997 3.04211 9.76041 4.33092 9.78129L4.37005 9.78161H7.17188ZM8.10352 8.47204V9.88861L14.875 11.6931L14.8848 11.6954C14.9386 11.7076 14.9931 11.7141 15.0479 11.7151L15.0616 11.7152C15.5581 11.7152 15.9785 11.2549 15.9785 10.6672V4.16787C15.9785 4.08835 15.9706 4.00911 15.9548 3.93167L15.9512 3.91478C15.83 3.3594 15.3461 3.02703 14.8713 3.14276L14.8745 3.142L8.10352 4.94639V8.47204Z" fill="#353D49"/>
</svg>
