<?xml version="1.0" encoding="UTF-8"?>
<svg width="512px" height="512px" viewBox="0 0 512 512" version="1.1" xmlns="http://www.w3.org/2000/svg" xmlns:xlink="http://www.w3.org/1999/xlink">
    <title>playstore_512</title>
    <defs>
        <rect id="path-1" x="0" y="0" width="512" height="512" rx="102"></rect>
        <rect id="path-3" x="5.93044786" y="5.26729581e-14" width="403.270455" height="250.067218"></rect>
        <polygon id="path-5" points="0 0.610176664 146.010007 0.610176664 146.010007 411.78218 0 411.78218"></polygon>
        <polygon id="path-7" points="1.47429495 0.00694099618 96.9439471 0.00694099618 96.9439471 100.959944 1.47429495 100.959944"></polygon>
    </defs>
    <g id="playstore_512" stroke="none" stroke-width="1" fill="none" fill-rule="evenodd">
        <g id="APP-Icon-/-Hire">
            <mask id="mask-2" fill="white">
                <use xlink:href="#path-1"></use>
            </mask>
            <use id="Mask" fill="#FFFFFF" xlink:href="#path-1"></use>
            <g id="Group" mask="url(#mask-2)">
                <g id="APP-Icon-/-Hire">
                    <g id="APP-Icon-/-X-/-work_background" fill="#FA1E50">
                        <rect id="Mask" x="0" y="0" width="512" height="512"></rect>
                    </g>
                    <g id="APP-Icon-/-X-/-work_foreground">
                        <path d="M373.32142,93.8666667 C373.186252,97.176228 373.131949,105.869075 373.127344,117.153179 L373.127422,120.613356 C373.13144,130.032904 373.16527,140.932167 373.212955,151.881628 L373.225155,154.619211 C373.310371,173.321872 373.432139,191.823369 373.510899,202.996688 C373.560671,210.087874 372.70583,217.150047 370.96646,224.034726 L370.96646,224.034726 L360.73369,264.532992 L330.04848,264.532992 L340.227986,224.06118 C341.933302,217.280607 342.779411,210.323394 342.749723,203.341434 C342.704706,192.702451 342.634757,175.318315 342.58187,157.50629 L342.576462,155.662399 C342.575571,155.354916 342.574686,155.04737 342.573806,154.739794 L342.5686,152.894239 C342.560898,150.126141 342.553694,147.360853 342.547146,144.621978 L342.547146,144.621978 L331.966852,144.621978 C328.591147,144.621978 325.854608,141.948491 325.854608,138.648657 L325.854608,138.648657 L325.854608,127.555346 L342.514838,127.555346 C342.512593,125.84752 342.510817,124.175243 342.509556,122.545905 L342.508792,121.466122 C342.508678,121.287245 342.50857,121.108919 342.508468,120.931154 L342.507733,119.34667 C342.507672,119.172359 342.507617,118.998639 342.507568,118.825519 L342.507575,115.281849 C342.507625,115.117641 342.507682,114.954106 342.507746,114.791252 L342.508522,113.344264 C342.515463,103.189438 342.552951,95.9533344 342.637083,94.2933325 L342.637083,94.2933325 L342.637083,93.8666667 Z M149.039794,238.933043 L149.039794,264.532992 L118.354584,264.532992 L118.354584,238.933043 L149.039794,238.933043 Z M192.706537,238.933043 L192.706537,264.532992 L162.145318,264.532992 L162.145318,238.933043 L192.706537,238.933043 Z M443.733333,93.9783678 L443.733333,105.071679 C443.733333,108.370659 440.996794,111.045 437.62109,111.045 L437.62109,111.045 L427.470399,111.045 L427.470399,161.30026 L443.733333,161.30026 L443.733333,178.366892 L427.470399,178.366892 L427.470399,247.354488 L437.62109,247.354488 C440.996794,247.354488 443.733333,250.027976 443.733333,253.327809 L443.733333,253.327809 L443.733333,264.42112 L372.086485,264.532907 L376.418319,247.354488 L396.90918,247.354488 L396.90918,178.366892 L385.230428,178.366892 L385.230428,161.30026 L396.90918,161.30026 L396.90918,111.045 L385.230428,111.045 L385.230428,93.9783678 L443.733333,93.9783678 Z M105.386585,238.933043 L100.095128,259.984734 C99.4236548,262.655662 96.9735182,264.532992 94.1592665,264.532992 L94.1592665,264.532992 L68.2669286,264.532992 L74.701375,238.933043 L105.386585,238.933043 Z M236.468194,238.933043 L242.90264,264.532992 L217.010302,264.532992 C214.196924,264.532992 211.745914,262.655662 211.075314,259.984734 L211.075314,259.984734 L205.783857,238.933043 L236.468194,238.933043 Z M330.417572,93.867008 L330.417572,110.933641 L315.92195,110.933641 L315.92195,161.299833 L330.049091,161.299833 L330.049091,178.366466 L315.92195,178.366466 L315.92195,247.354914 L322.101428,247.354914 L317.770467,264.533333 L269.097796,264.421547 L269.097796,253.328236 C269.097796,250.028402 271.835208,247.354914 275.21004,247.354914 L275.21004,247.354914 L285.360731,247.354914 L285.360731,178.366466 L269.097796,178.366466 L269.097796,161.299833 L285.360731,161.299833 L285.360731,110.933641 L275.21004,110.933641 C271.835208,110.933641 269.097796,108.259299 269.097796,104.960319 L269.097796,104.960319 L269.097796,93.867008 L330.417572,93.867008 Z M149.038921,139.093243 L149.038921,227.839732 L118.477702,227.839732 L118.477702,214.185573 L98.8285842,214.185573 L98.8285842,221.866411 C98.8285842,225.165391 96.0920453,227.839732 92.7163404,227.839732 L92.7163404,227.839732 L68.2673652,227.839732 L68.2673652,139.093243 L149.038921,139.093243 Z M186.594118,166.399428 C189.969823,166.399428 192.706362,169.07377 192.706362,172.37275 L192.706362,172.37275 L192.706362,177.902339 L242.902728,177.902339 L238.599708,194.968118 L192.706362,194.968118 L192.706362,207.359346 L242.902728,207.359346 L237.738755,227.839305 L162.145143,227.839305 L162.145143,166.399428 Z M118.478575,185.172297 L98.8285842,185.172297 L98.8285842,197.120647 L118.478575,197.120647 L118.478575,185.172297 Z M118.477702,156.159875 L98.827711,156.159875 L98.827711,168.106518 L118.477702,168.106518 L118.477702,156.159875 Z M186.594468,93.8666667 C189.969299,93.8666667 192.706711,96.541008 192.706711,99.8399881 L192.706711,99.8399881 L192.706711,105.368724 L242.902204,105.368724 L238.600057,122.435356 L192.706711,122.435356 L192.706711,134.826585 L242.902204,134.826585 L237.738231,155.306544 L162.145492,155.306544 L162.145492,93.8666667 Z M105.813307,93.8666667 L102.358143,110.933299 L118.957251,110.933299 L118.957251,106.666641 C118.957251,103.367661 121.69379,100.69332 125.069495,100.69332 L125.069495,100.69332 L149.51847,100.69332 L149.51847,127.999932 L68.2666667,127.999932 L75.1769949,93.8666667 L105.813307,93.8666667 Z" id="Combined-Shape" fill="#FFFFFF"></path>
                        <g id="Group-51" transform="translate(51.200000, 261.973333)">
                            <mask id="mask-4" fill="white">
                                <use xlink:href="#path-3"></use>
                            </mask>
                            <g id="Mask"></g>
                            <g mask="url(#mask-4)">
                                <g transform="translate(-49.420399, 23.721791)">
                                    <path d="M402.101058,221.79764 C402.101058,221.79764 489.51975,379.252561 513.09232,500.568554 C523.243526,552.804283 523.418629,598.655872 513.09232,621.886125 C513.09232,621.886125 505.125949,640.334977 487.281279,629.62849 C474.374181,621.886125 484.70049,606.398238 484.70049,606.398238 C484.70049,606.398238 475.74345,631.999472 458.887872,621.886125 C445.980774,614.142181 456.307083,596.073506 456.307083,596.073506 C456.307083,596.073506 445.982351,626.036525 421.461705,604.601467 C421.461705,604.601467 417.216655,590.146842 420.483656,559.937734 C423.749079,529.727048 395.172682,338.903288 374.759843,299.191325" id="Fill-1" fill="#D7E1EE"></path>
                                    <path d="M460.624541,584.815053 C461.238188,586.386242 461.42591,588.110449 461.252385,589.77471 C461.077283,591.437394 460.645048,593.084303 459.938329,594.586082 C459.248961,596.098904 458.345054,597.501301 457.253425,598.73806 C456.146021,599.955889 454.890331,601.066449 453.330185,601.777901 C454.500689,598.627635 455.849451,595.999522 457.068858,593.279913 C457.703012,591.937461 458.263024,590.580812 458.848277,589.197345 C459.468234,587.810724 459.920976,586.383087 460.624541,584.815053" id="Fill-3" fill="#B2BAC4"></path>
                                    <path d="M482.157246,611.937469 C482.933376,610.369435 483.57384,608.929178 484.195375,607.481034 C484.818487,606.039199 485.386387,604.605253 485.960596,603.161841 L487.646943,598.760618 C488.24797,597.271459 488.804827,595.746018 489.648789,594.185871 C490.118884,595.88326 490.205647,597.605889 490.066827,599.311166 C489.912232,601.014865 489.524167,602.702789 488.896322,604.31026 C488.259013,605.912999 487.404008,607.443174 486.295026,608.787203 C485.171847,610.102837 483.83886,611.328554 482.157246,611.937469" id="Fill-5" fill="#B2BAC4"></path>
                                    <g id="Group-9" stroke-width="1" fill="none" transform="translate(0.000000, 221.187463)">
                                        <mask id="mask-6" fill="white">
                                            <use xlink:href="#path-5"></use>
                                        </mask>
                                        <g id="Clip-8"></g>
                                        <path d="M118.670369,0.610176664 C118.670369,0.610176664 31.2516775,158.065097 7.67753052,279.381091 C-2.47209889,331.616819 -2.64720129,377.468409 7.67753052,400.698661 C7.67753052,400.698661 15.6454786,419.147514 33.4901488,408.441027 C46.3956692,400.698661 36.0709374,385.210775 36.0709374,385.210775 C36.0709374,385.210775 45.0264,410.812008 61.8835557,400.698661 C74.7890761,392.954718 64.4643443,374.886043 64.4643443,374.886043 C64.4643443,374.886043 74.7890761,404.849062 99.3097226,383.414003 C99.3097226,383.414003 103.554773,368.959379 100.287772,338.750271 C97.0223488,308.539585 125.598746,117.715825 146.010007,78.0038616" id="Fill-7" fill="#D7E1EE" mask="url(#mask-6)"></path>
                                    </g>
                                    <path d="M60.1465714,584.815053 C60.8517135,586.383087 61.3028783,587.810724 61.9228354,589.197345 C62.5080876,590.580812 63.0680998,591.937461 63.7038319,593.279913 C64.9232388,595.999522 66.2720005,598.627635 67.4409274,601.777901 C65.8807807,601.066449 64.6250914,599.955889 63.517687,598.73806 C62.4260576,597.501301 61.5221506,596.098904 60.8327835,594.586082 C60.1276414,593.084303 59.6938291,591.437394 59.5187267,589.77471 C59.3452018,588.110449 59.5329242,586.386242 60.1465714,584.815053" id="Fill-10" fill="#B2BAC4"></path>
                                    <path d="M38.6141815,611.937469 C36.9309899,611.328554 35.5995807,610.102837 34.4764013,608.787203 C33.3674194,607.443174 32.5124149,605.912999 31.8735277,604.31026 C31.245683,602.702789 30.8591958,601.014865 30.7046008,599.311166 C30.5657809,597.605889 30.6509659,595.88326 31.1226381,594.185871 C31.9666002,595.746018 32.5218798,597.271459 33.1244845,598.760618 L34.8108311,603.161841 C35.3850408,604.605253 35.9529405,606.039199 36.5760526,607.481034 C37.1975873,608.929178 37.8380519,610.369435 38.6141815,611.937469" id="Fill-12" fill="#B2BAC4"></path>
                                    <g id="Group-16" stroke-width="1" fill="none" transform="translate(129.354929, 636.069735)">
                                        <mask id="mask-8" fill="white">
                                            <use xlink:href="#path-7"></use>
                                        </mask>
                                        <g id="Clip-15"></g>
                                        <path d="M95.0856532,14.5719905 C94.1675487,14.5719905 93.4387441,15.2503151 93.2888816,16.1258271 L10.9923294,2.1807348 L10.9860195,1.82895249 C10.9670895,0.803578058 10.1168174,0.0542659701 9.09459799,0.00694099618 C8.06764606,0.0258709858 7.25207901,0.872988019 7.271009,1.89993995 L8.27745344,55.5822354 C5.96326222,58.4611713 -3.10420279,71.3682692 4.37945309,88.8280296 C8.40207587,98.2157269 26.0732211,100.960575 47.0539596,100.960575 C58.5791683,100.960575 71.1060889,100.130811 82.9073599,99.1212114 C90.910013,98.4349993 96.9439471,91.8694479 96.9439471,83.8478648 L96.9439471,16.4302845 C96.9439471,15.4033325 96.1110276,14.5719905 95.0856532,14.5719905" id="Fill-14" fill="#D7E1EE" mask="url(#mask-8)"></path>
                                    </g>
                                    <path d="M382.913778,691.719803 L383.9218,633.396505 C383.939153,632.37113 383.122008,631.525591 382.096634,631.506661 C381.019202,631.465646 380.22572,632.306453 380.208367,633.331827 L380.20048,633.779837 L297.884998,652.104067 C297.698853,651.274302 296.993711,650.641725 296.107156,650.641725 C295.081782,650.641725 294.248862,651.473067 294.248862,652.500019 L294.248862,719.9176 C294.248862,727.939183 300.284374,734.504734 308.28545,735.190946 C319.769643,736.173728 331.944782,736.976675 343.176575,736.976675 C363.849701,736.976675 381.317349,734.252334 385.325775,724.897764 C392.801543,707.456934 384.89985,694.543526 382.913778,691.719803" id="Fill-17" fill="#D7E1EE"></path>
                                    <path d="M453.891301,468.770273 C447.322595,442.511222 426.849811,338.224332 414.854508,276.438424 L414.854508,276.438424 L414.849775,276.417916 C409.508363,248.906331 405.848565,229.821747 405.848565,229.821747 L405.465233,229.929017 L404.599186,225.636642 C402.682524,218.488993 399.680543,207.790394 398.476912,202.999529 C391.013763,173.307841 371.037892,98.1794445 371.037892,98.1794445 L368.050108,77.5299808 C368.050108,77.5299808 394.556826,38.8118421 362.748134,25.9063217 C334.110215,14.2864631 325.640622,51.71894 325.640622,51.71894 L318.884193,51.71894 L312.138807,51.71894 C285.632089,49.136574 240.572404,-2.48708513 232.62023,0.0937034484 C224.668057,2.67449203 237.922205,28.4871103 237.922205,28.4871103 C237.922205,28.4871103 224.668057,18.163956 216.715884,18.163956 C208.763711,18.163956 227.318256,51.71894 227.318256,51.71894 L184.908769,51.71894 C184.908769,51.71894 175.874432,12.9818714 147.79968,25.9063217 C115.19435,40.9146485 145.599068,81.831821 145.599068,81.831821 L142.22322,98.1794445 C142.22322,98.1794445 118.992968,193.684397 113.829813,214.333861 L106.08587,240.146479 C106.08587,240.146479 81.6030836,316.891812 61.2233723,444.656621 C61.2233723,444.659776 61.2217948,444.662931 61.2202173,444.666086 C58.5589763,455.039721 57.5052068,464.200258 57.1660445,471.272187 C55.0632382,487.668713 46.3759505,581.069281 113.094699,631.792188 C143.16341,654.651728 201.002415,653.179921 265.927547,654.976693 C460.36378,660.35281 457.380729,542.35272 456.399525,523.918065 C458.043279,507.455284 458.436076,486.936753 453.891301,468.770273" id="Fill-19" fill="#D7E1EE"></path>
                                    <path d="M136.879442,693.663913 C139.772575,692.225233 142.851854,691.225099 145.978457,690.441082 C149.108215,689.652332 152.312116,689.16173 155.544412,688.899865 C158.783017,688.718453 162.050018,688.781553 165.272849,689.26269 C168.484637,689.800617 171.653833,690.750272 174.475979,692.315151 C171.305205,691.676264 168.210152,691.285044 165.085126,691.100477 C161.955368,691.007404 158.833497,691.045264 155.706894,691.261381 C149.447377,691.701504 143.230453,692.660623 136.879442,693.663913" id="Fill-21" fill="#B2BAC4"></path>
                                    <path d="M345.643942,693.663913 C348.537075,692.225233 351.616353,691.225099 354.742957,690.441082 C357.872715,689.652332 361.076616,689.16173 364.308911,688.899865 C367.547517,688.718453 370.814518,688.781553 374.037349,689.26269 C377.249137,689.800617 380.418333,690.750272 383.240479,692.315151 C380.069705,691.676264 376.974652,691.285044 373.849626,691.100477 C370.719868,691.007404 367.597997,691.045264 364.471394,691.261381 C358.211877,691.701504 351.994953,692.660623 345.643942,693.663913" id="Fill-23" fill="#B2BAC4"></path>
                                    <path d="M156.012771,40.3729353 C154.563049,38.6676587 152.420806,37.7400892 150.133432,37.8363167 C147.776648,37.9325441 145.645447,39.0746535 144.284065,40.9692299 C143.099363,42.619294 142.315346,44.3308806 141.955676,46.0582421 C141.414594,48.6548057 141.506089,51.5463616 142.230161,54.6556124 C142.928993,57.6591708 145.235297,59.866092 148.246743,60.4166392 C148.719993,60.5034017 149.193242,60.5459942 149.658605,60.5459942 C152.179448,60.5459942 154.520457,59.3045024 155.982799,57.1196661 C157.997265,54.1113752 159.017907,51.0936194 159.017907,48.1484285 C159.017907,45.3357475 158.00673,42.720254 156.012771,40.3729353" id="Fill-25" fill="#FF004A"></path>
                                    <path d="M368.463332,45.821775 C368.061069,43.8972261 367.160317,41.9916071 365.783161,40.1617081 C364.377609,38.2923717 362.236943,37.1613048 359.910131,37.0619223 C357.635378,36.9688499 355.493134,37.8743344 353.992932,39.551216 C351.724488,42.0925671 350.572914,44.939953 350.572914,48.0176538 C350.572914,51.4155869 351.861731,54.89555 354.404659,58.3565831 C355.870156,60.353697 358.1386,61.4816089 360.549019,61.4816089 C361.023846,61.4816089 361.504983,61.4374389 361.984543,61.349099 C364.872944,60.8111718 367.144542,58.7257179 367.911207,55.9051495 C368.908186,52.237464 369.092754,48.8458409 368.463332,45.821775" id="Fill-27" fill="#FF004A"></path>
                                    <path d="M431.319182,366.625627 C433.917323,376.756326 436.559634,386.866518 439.2682,396.965667 C441.910511,407.082169 444.516539,417.211291 446.938,427.392471 C449.408364,437.564185 451.528523,447.827394 453.301632,458.155281 C455.062121,468.484746 456.554435,478.882042 457.28324,489.361369 C458.794484,510.318445 457.341607,531.496371 452.894637,552.014902 C450.577291,562.249716 447.59424,572.385148 443.251385,581.957413 C441.113874,586.753011 438.610383,591.384548 435.802434,595.811011 C433.005528,600.245361 429.859995,604.457283 426.353214,608.337931 C432.942428,600.215388 438.263333,591.135303 442.186573,581.495206 C446.275451,571.919786 449.032919,561.825369 451.113641,551.641035 C453.13284,541.434615 454.465826,531.087799 455.180433,520.701544 C455.898196,510.32791 455.659993,499.905373 454.924879,489.530162 C454.274949,479.140752 452.863087,468.801823 451.181473,458.514951 C450.365906,453.364416 449.354729,448.247009 448.38299,443.121715 C447.302403,438.01535 446.300691,432.894788 445.171201,427.794733 C442.969013,417.586736 440.560171,407.416599 438.148175,397.244885 C435.818209,387.051085 433.398325,376.874639 431.319182,366.625627" id="Fill-29" fill="#B2BAC4"></path>
                                    <path d="M84.8655095,366.625627 C80.5053019,387.267203 75.2569623,407.713169 70.7390048,428.2948 C68.492646,438.586405 66.4529397,448.920601 64.7760581,459.306856 C63.0676265,469.685222 61.7393723,480.126689 61.0642026,490.607593 C60.3685255,501.085343 60.3369755,511.600952 61.1967126,522.047151 C62.0107021,532.51228 63.3815489,542.942705 65.6389501,553.185406 C67.9342114,563.407601 70.8383873,573.530413 75.0550424,583.14527 C79.1928227,592.786945 84.5042622,601.933285 90.8978662,610.328735 C77.0127189,594.343936 68.2355137,574.274992 63.5960887,553.642881 C61.23615,543.303952 59.6996659,532.78992 58.8557039,522.233296 C58.0464468,511.651432 58.1332092,501.019088 58.8919863,490.460886 C59.6286784,479.896374 61.0216102,469.393385 62.7931417,458.975581 C64.5930682,448.557777 66.842582,438.233045 69.2482681,427.955638 C74.0533305,407.396092 79.8033148,387.101565 84.8655095,366.625627" id="Fill-31" fill="#B2BAC4"></path>
                                    <path d="M109.675627,226.909999 C109.675627,226.909999 207.523166,299.739979 264.186935,299.739979 C320.849126,299.739979 404.598555,226.909999 404.598555,226.909999 L418.074907,252.183901 C418.074907,252.183901 372.302415,388.79296 262.063621,388.79296 C161.333991,388.79296 99.5039127,252.183901 99.5039127,252.183901 L109.675627,226.909999 Z" id="Fill-33" fill="#FF004A"></path>
                                    <path d="M257.241566,141.45766 L257.241566,141.45766 C299.182536,140.39127 314.927554,176.150021 315.482834,197.990496 L315.473369,197.583501 C316.028649,219.425554 298.613058,237.748207 276.771005,238.303487 L242.656009,239.169534 C220.815534,239.724813 202.491304,222.309223 201.936024,200.468747 L201.947067,200.875742 C201.391787,179.035267 214.895179,142.535092 257.241566,141.45766" id="Fill-35" fill="#FFFFFF"></path>
                                    <g id="Group-23" stroke-width="1" fill="none" transform="translate(220.545295, 154.904717)">
                                        <path d="M46.1910819,0.00222687296 C50.552867,-0.0861130784 54.5186999,2.45997052 56.1734964,6.55358077 C57.6764229,10.2736105 56.9617245,14.3886669 54.3766645,17.3496956 L53.5453829,18.2018344 L43.9999356,26.9632645 C43.227641,27.6725272 42.3713073,28.2452856 41.4633517,28.680711 L41.4333753,47.222802 C41.4328728,47.5854564 41.3900782,47.9381713 41.309664,48.2762869 C47.548336,47.5156069 53.8959624,44.8788817 60.229245,39.9085374 C62.2117628,38.3526624 65.080197,38.6985247 66.6360721,40.6810425 C68.1919471,42.6635604 67.8460848,45.5319946 65.863567,47.0878696 C49.9394149,59.5851044 33.3358875,60.0884561 18.3390665,53.2992889 C14.5434189,51.5809723 11.7450322,49.8019641 10.1230951,48.5195688 C8.14621556,46.956536 7.8107265,44.0868701 9.37375931,42.1099906 C10.9367921,40.133111 13.8064581,39.797622 15.7833376,41.3606548 C16.0909863,41.6038992 16.4890897,41.8910299 16.9721669,42.2094 L18.6708388,43.2455819 C19.6421544,43.7978854 20.7923287,44.3920226 22.1028633,44.985311 C25.4718355,46.5104686 28.9094758,47.5817648 32.3954337,48.1159142 L32.3658345,47.950402 L32.3071364,47.2101576 L32.3304096,28.6682668 C31.8359745,28.4290657 31.3564728,28.1486762 30.8970552,27.8269885 L30.2236357,27.3134693 L20.2475312,19.0473739 C16.8480206,16.2331154 15.5860213,11.7183129 17.029433,7.54898272 C18.3525604,3.72565066 21.6414598,1.0807214 25.5777739,0.580180379 L26.6663752,0.4975616 L46.1910819,0.00222687296 Z" id="Path" fill="#262626"></path>
                                    </g>
                                    <path d="M305.896059,147.213008 C305.896059,139.808227 311.898443,133.804265 319.304802,133.804265 C326.709583,133.804265 332.711967,139.808227 332.711967,147.213008 C332.711967,154.616211 326.709583,160.620173 319.304802,160.620173 C311.898443,160.620173 305.896059,154.616211 305.896059,147.213008" id="Fill-43" fill="#262626"></path>
                                    <path d="M181.344769,147.213008 C181.344769,139.808227 187.347154,133.804265 194.753512,133.804265 C202.158293,133.804265 208.160677,139.808227 208.160677,147.213008 C208.160677,154.616211 202.158293,160.620173 194.753512,160.620173 C187.347154,160.620173 181.344769,154.616211 181.344769,147.213008" id="Fill-45" fill="#262626"></path>
                                    <path d="M294.249651,654.86122 C299.947578,654.630905 305.602912,654.182895 311.244049,653.689138 C316.883609,653.166986 322.505815,652.531254 328.096472,651.693602 C333.696594,650.92536 339.263589,649.929958 344.803766,648.787848 C350.361295,647.694641 355.84626,646.28909 361.389592,644.921398 C356.152294,647.158292 350.7746,649.175913 345.231268,650.58462 C342.487997,651.409652 339.673739,651.923917 336.889453,652.586466 C334.075194,653.095998 331.267246,653.644968 328.43248,654.03461 C322.770835,654.834403 317.069753,655.375485 311.356052,655.525347 C305.647082,655.711492 299.917605,655.545855 294.249651,654.86122" id="Fill-47" fill="#B2BAC4"></path>
                                    <path d="M226.29856,654.047704 C220.630606,654.732338 214.901129,654.897976 209.19216,654.711831 C203.478458,654.561968 197.777376,654.020886 192.115732,653.221094 C189.280966,652.831452 186.47144,652.282482 183.658759,651.77295 C180.874473,651.108823 178.058637,650.596136 175.316943,649.769526 C169.773612,648.362397 164.395917,646.344775 159.157042,644.107882 C164.701952,645.475573 170.186916,646.881125 175.744446,647.972755 C181.284623,649.116441 186.851617,650.111843 192.451739,650.880085 C198.042396,651.717737 203.664603,652.35347 209.304162,652.875622 C214.945299,653.369379 220.600634,653.817389 226.29856,654.047704" id="Fill-49" fill="#B2BAC4"></path>
                                </g>
                            </g>
                        </g>
                    </g>
                </g>
            </g>
        </g>
    </g>
</svg>