<?xml version="1.0" encoding="UTF-8"?>
<svg width="24px" height="24px" viewBox="0 0 24 24" version="1.1" xmlns="http://www.w3.org/2000/svg" xmlns:xlink="http://www.w3.org/1999/xlink">
    <title>ic_search</title>
    <defs>
        <path d="M0.344,9.475 C0.344,14.446 4.374,18.475 9.344,18.475 L9.344,18.475 C14.315,18.475 18.344,14.446 18.344,9.475 L18.344,9.475 C18.344,4.504 14.315,0.475 9.344,0.475 L9.344,0.475 C4.374,0.475 0.344,4.504 0.344,9.475" id="path-1"></path>
        <path d="M0.345,0.155 C0.345,1.259 1.24,2.155 2.344,2.155 L2.344,2.155 C3.45,2.155 4.345,1.259 4.345,0.155 L4.345,0.155 L0.345,0.155 Z" id="path-3"></path>
    </defs>
    <g id="ic_search" stroke="none" stroke-width="1" fill="none" fill-rule="evenodd">
        <g id="Group-11" transform="translate(-3.000000, -3.000000)">
            <circle id="Oval" fill="#FBFB42" cx="15.5419075" cy="15.0419075" r="8"></circle>
            <g id="Group-3" transform="translate(13.500000, 13.500000) rotate(-45.000000) translate(-13.500000, -13.500000) translate(4.000000, 4.000000)">
                <mask id="mask-2" fill="white">
                    <use xlink:href="#path-1"></use>
                </mask>
                <g id="Clip-2"></g>
                <path d="M9.3449,1.9753 C5.2089,1.9753 1.8449,5.3393 1.8449,9.4753 C1.8449,13.6113 5.2089,16.9753 9.3449,16.9753 C13.4809,16.9753 16.8449,13.6113 16.8449,9.4753 C16.8449,5.3393 13.4809,1.9753 9.3449,1.9753 M9.3449,19.9753 C3.5549,19.9753 -1.1551,15.2653 -1.1551,9.4753 C-1.1551,3.6853 3.5549,-1.0247 9.3449,-1.0247 C15.1349,-1.0247 19.8449,3.6853 19.8449,9.4753 C19.8449,15.2653 15.1349,19.9753 9.3449,19.9753" id="Fill-1" fill="#353D49" mask="url(#mask-2)"></path>
            </g>
            <polygon id="Fill-4" fill="#353D49" transform="translate(20.747845, 22.734815) rotate(-45.000000) translate(-20.747845, -22.734815) " points="19.9978445 25.7348146 21.4978445 25.7348146 21.4978445 19.7348146 19.9978445 19.7348146"></polygon>
            <polygon id="Fill-5" fill="#353D49" transform="translate(22.515611, 20.967048) rotate(-45.000000) translate(-22.515611, -20.967048) " points="21.7656115 23.9670476 23.2656115 23.9670476 23.2656115 17.9670476 21.7656115 17.9670476"></polygon>
            <g id="Group-8" transform="translate(24.813708, 24.813708) rotate(-45.000000) translate(-24.813708, -24.813708) translate(22.313708, 23.313708)">
                <mask id="mask-4" fill="white">
                    <use xlink:href="#path-3"></use>
                </mask>
                <g id="Clip-7"></g>
                <path d="M2.3449,2.155 C3.4489,2.155 4.3449,1.259 4.3449,0.155 C4.3449,-0.949 3.4489,-1.845 2.3449,-1.845 C1.2409,-1.845 0.3449,-0.949 0.3449,0.155 C0.3449,1.259 1.2409,2.155 2.3449,2.155 Z" id="Stroke-6" stroke="#353D49" stroke-width="3" mask="url(#mask-4)"></path>
            </g>
            <g id="Group-13" transform="translate(13.853553, 9.610913) rotate(-45.000000) translate(-13.853553, -9.610913) translate(10.353553, 6.610913)">
                <path d="M0.3449,0.1745 C2.3679,0.1745 4.1269,1.3085 5.0199,2.9745" id="Stroke-9" stroke="#353D49" stroke-width="1.5" stroke-linecap="round"></path>
                <path d="M6.5197,5.0788 C6.5197,5.4928 6.1837,5.8288 5.7697,5.8288 C5.3557,5.8288 5.0197,5.4928 5.0197,5.0788 C5.0197,4.6638 5.3557,4.3288 5.7697,4.3288 C6.1837,4.3288 6.5197,4.6638 6.5197,5.0788" id="Fill-11" fill="#353D49"></path>
            </g>
        </g>
    </g>
</svg>