<svg width="85" height="74" viewBox="0 0 85 74" fill="none" xmlns="http://www.w3.org/2000/svg">
<path d="M10.0996 72.4744L9.19961 71.1744L8.89961 72.6744L5.19961 73.2744L6.19961 68.5744L5.49961 59.6744L4.29961 59.8744L4.09961 57.8744L5.29961 57.6744L4.99961 54.9744L8.59961 54.3744L8.79961 57.1744L12.9996 56.4744L14.2996 71.7744L10.0996 72.4744ZM9.89961 58.9744L8.99961 59.1744L9.79961 68.4744L9.39961 70.4744L10.8996 70.2744L9.89961 58.9744ZM15.3996 71.6744L13.9996 54.5744L21.7996 53.3744L23.1996 70.4744L15.3996 71.6744ZM18.4996 55.9744L17.4996 56.1744L18.5996 69.1744L19.5996 68.9744L18.4996 55.9744Z" fill="#FA3461"/>
<path d="M29.0996 53.8744L28.5996 58.1744L31.2996 57.7744L32.1996 68.6744L26.0996 69.6744L25.4996 62.4744L24.7996 62.5744L25.7996 54.3744L24.3996 54.5744L24.1996 52.6744L30.8996 51.6744L31.0996 53.5744L29.0996 53.8744ZM28.7996 60.1744L28.2996 60.2744L28.1996 61.1744L28.6996 67.1744L29.3996 67.0744L28.7996 60.1744ZM39.5996 67.9744L39.2996 67.5744L38.2996 67.7744L38.3996 62.2744L39.6996 62.0744L39.5996 66.0744L40.1996 65.9744L39.7996 61.3744L32.4996 62.4744L31.4996 51.0744L41.7996 49.4744L41.9996 51.4744L39.7996 51.7744L39.8996 52.9744L41.5996 52.6744L41.7996 54.5744L40.0996 54.8744L40.1996 56.1744L41.8996 55.8744L42.0996 57.7744L40.3996 58.0744L40.4996 59.2744L42.8996 58.8744L43.5996 67.3744L39.5996 67.9744ZM34.1996 68.3744L32.5996 68.6744L32.6996 63.1744L34.2996 62.8744L34.1996 68.3744ZM36.0996 68.0744L34.6996 68.2744L34.7996 62.7744L36.2996 62.5744L36.0996 68.0744ZM36.5996 52.2744L35.1996 52.4744L35.2996 53.6744L36.6996 53.4744L36.5996 52.2744ZM36.7996 55.3744L35.3996 55.5744L35.4996 56.8744L36.8996 56.6744L36.7996 55.3744ZM37.0996 58.4744L35.6996 58.6744L35.7996 59.8744L37.1996 59.6744L37.0996 58.4744ZM37.8996 67.7744L36.4996 67.9744L36.5996 62.4744L37.9996 62.2744L37.8996 67.7744Z" fill="#FA3461"/>
<path d="M63.4996 64.1744L51.7996 65.9744L50.6996 64.8744L49.8996 66.2744L45.8996 66.8744L48.0996 62.8744V62.4744L44.9996 59.5744L47.5996 59.1744L47.7996 59.3744L47.5996 57.5744L45.3996 57.8744L45.2996 56.2744L46.8996 51.0744L44.6996 51.3744L44.4996 49.3744L50.2996 48.4744L50.4996 50.7744L49.0996 55.3744L50.8996 55.0744L51.5996 62.9744L52.5996 63.8744L64.0996 62.0744L63.4996 64.1744ZM62.1996 48.7744L59.3996 49.1744L59.6996 52.8744L62.6996 52.3744L62.8996 54.3744L59.8996 54.8744L60.2996 59.4744L63.6996 58.9744L63.0996 60.9744L52.3996 62.6744L51.4996 52.4744L54.7996 51.9744L55.4996 60.2744L56.4996 60.0744L55.5996 49.7744L50.9996 50.4744L50.7996 48.4744L58.0996 47.3744L58.2996 46.6744L62.6996 45.9744L62.1996 48.7744Z" fill="#FA3461"/>
<path d="M70.8996 55.9744L71.2996 60.9744L76.2996 60.1744L75.3996 62.3744L67.3996 63.5744L66.7996 56.4744L65.5996 56.6744L65.3996 54.6744L66.7996 54.4744L65.9996 45.4744L82.3996 42.9744L82.5996 44.9744L70.1996 46.8744L70.2996 47.9744L81.9996 46.2744L82.1996 48.1744L70.4996 49.9744L70.5996 51.0744L82.2996 49.2744L82.4996 51.1744L70.7996 52.9744L70.8996 54.0744L83.7996 52.0744L83.9996 54.0744L70.8996 55.9744ZM79.1996 61.8744L71.2996 56.5744L76.7996 55.6744L78.2996 56.6744L79.2996 55.2744L83.7996 54.5744L80.9996 58.4744L84.6996 60.9744L79.1996 61.8744Z" fill="#FA3461"/>
<path d="M19.0718 23.9103C20.3166 24.23 21.307 24.8329 22.0428 25.7188C22.7774 26.5912 23.3095 28.8524 23.6391 32.5025C23.8793 35.162 23.8 37.1588 23.4013 38.4928C23.0025 39.8267 22.0979 41.0051 20.6873 42.0278C19.2755 43.0369 17.3217 43.7169 14.8257 44.0677C12.3972 44.409 10.4397 44.2925 8.95328 43.7181C7.46681 43.1438 6.35568 42.2625 5.61988 41.0742C4.89758 39.8841 4.40225 37.8032 4.13391 34.8316C3.95378 32.8369 3.94596 31.086 4.11044 29.5788C4.28842 28.0698 5.14033 26.7614 6.66619 25.6538C5.6102 25.3075 4.77808 24.6412 4.16983 23.6549C3.57383 22.6531 3.20171 21.3313 3.05344 19.6894C2.79735 16.8535 3.3881 14.62 4.8257 12.9888C6.26207 11.3441 8.53854 10.3028 11.6551 9.86479C15.2574 9.35852 17.8146 9.76177 19.3267 11.0745C20.8389 12.3873 21.7212 14.4413 21.9736 17.2365C22.1341 19.014 22.0206 20.3285 21.6329 21.18C21.2588 22.0296 20.405 22.9397 19.0718 23.9103ZM13.8382 17.4729C13.7378 16.3603 13.5704 15.6417 13.3362 15.3174C13.1142 14.9776 12.7266 14.8465 12.1735 14.9243C11.6338 15.0001 11.2873 15.2481 11.134 15.6681C10.9794 16.0746 10.9499 16.807 11.0455 17.8654L11.2715 20.3689C11.361 21.3594 11.5308 22.0295 11.781 22.3791C12.0311 22.7287 12.4126 22.8675 12.9253 22.7954C13.4649 22.7196 13.8127 22.4852 13.9685 22.0923C14.123 21.6858 14.1476 20.8991 14.0422 19.7322L13.8382 17.4729ZM15.2371 31.1481C15.1231 29.8862 14.9196 29.0697 14.6265 28.6986C14.3322 28.314 13.9084 28.1606 13.3553 28.2383C12.8156 28.3142 12.4427 28.5727 12.2367 29.0139C12.0428 29.4396 12.0041 30.297 12.1205 31.5861L12.5065 35.8603C12.6352 37.2851 12.846 38.183 13.1391 38.554C13.4457 38.9232 13.8824 39.0679 14.449 38.9883C15.0291 38.9067 15.402 38.6482 15.5676 38.2127C15.732 37.7636 15.7487 36.8131 15.6176 35.3613L15.2371 31.1481Z" fill="#FA3461"/>
<path d="M38.9959 6.02229L32.3716 41.6018L26.1789 42.4721L32.864 6.88408L38.9959 6.02229Z" fill="#FA3461"/>
<path d="M57.4033 18.5438C58.6826 18.79 59.6692 19.3521 60.3633 20.2302C61.0562 21.0947 61.562 23.2909 61.8806 26.8188C62.1171 29.4377 62.004 31.5147 61.5415 33.0501C61.0778 34.5718 60.1517 35.815 58.7632 36.7796C57.3735 37.7307 55.5386 38.3665 53.2585 38.6869C50.6681 39.051 48.5916 38.9031 47.0291 38.2432C45.4789 37.5679 44.4107 36.6325 43.8245 35.4369C43.2507 34.2259 42.8222 32.0532 42.5391 28.9188L42.3039 26.3135L50.4798 25.1645L50.9632 30.5174C51.0918 31.9422 51.2549 32.8399 51.4523 33.2107C51.662 33.566 52.057 33.7028 52.6371 33.6213C53.2712 33.5322 53.6674 33.2292 53.8256 32.7122C53.9839 32.1953 53.9699 30.9056 53.7837 28.8431L53.5778 26.5635C53.4639 25.3016 53.2389 24.3988 52.9029 23.8552C52.5668 23.3115 52.1143 22.9904 51.5452 22.8917C50.9749 22.7795 49.8925 22.8217 48.298 23.0183L47.8661 18.2352C49.8089 17.9621 51.0029 17.7188 51.4482 17.505C51.8934 17.2913 52.1945 16.9192 52.3516 16.3887C52.5086 15.8582 52.5387 15.057 52.4419 13.985L52.2765 12.1532C52.1724 10.9998 51.9823 10.257 51.7064 9.92481C51.4439 9.59068 51.0631 9.4587 50.5639 9.52885C49.9973 9.60849 49.6238 9.86023 49.4435 10.2841C49.2754 10.6924 49.2483 11.5276 49.3623 12.7895L49.6068 15.4965L41.4308 16.6456L41.1772 13.8368C40.8929 10.6888 41.4162 8.46474 42.7471 7.16466C44.0767 5.85101 46.2998 4.97518 49.4164 4.53717C53.3154 3.98919 56.029 4.3842 57.5571 5.7222C59.0852 7.0602 59.9724 9.09288 60.2187 11.8203C60.3854 13.6656 60.2565 15.0373 59.832 15.9351C59.4064 16.8194 58.5968 17.689 57.4033 18.5438Z" fill="#FA3461"/>
<path d="M75.3387 1.55361L78.3144 34.506L70.1384 35.655L68.5431 17.9882C68.3127 15.4372 68.1135 13.9124 67.9455 13.4139C67.7775 12.9153 67.4053 12.576 66.8289 12.3959C66.2647 12.2004 65.0382 12.2353 63.1494 12.5008L62.3399 12.6146L61.9925 8.76776C65.8684 7.35734 68.7116 5.17827 70.5221 2.23053L75.3387 1.55361Z" fill="#FA3461"/>
</svg>
