<svg width="116" height="44" viewBox="0 0 116 44" fill="none" xmlns="http://www.w3.org/2000/svg">
<rect x="7" y="11" width="109" height="26" rx="13" fill="#3978FF"/>
<g clip-path="url(#clip0_1453_128583)">
<path d="M71.8544 29.2375C70.7506 27.4782 70.4443 25.0406 70.9376 21.9114C71.4309 18.7822 72.5014 16.3715 74.1703 14.6256C75.8329 12.8797 78.1123 12 81.0126 12C83.9128 12 85.9097 12.873 87.0145 14.6256C88.1193 16.3782 88.4277 18.8023 87.9376 21.9114C87.4475 25.0205 86.3695 27.4782 84.7111 29.2375C83.0527 30.9969 80.7733 31.8765 77.8793 31.8765C74.9853 31.8765 72.9644 30.9969 71.8607 29.2375H71.8544ZM81.5892 25.7054C82.3182 24.7049 82.8007 23.4357 83.041 21.9114C83.2813 20.3871 83.1946 19.1448 82.7811 18.1443C82.3675 17.1437 81.5429 16.6401 80.2999 16.6401C79.057 16.6401 78.0045 17.1437 77.2693 18.1443C76.534 19.1448 76.0525 20.4072 75.8154 21.9114C75.5783 23.4156 75.667 24.6847 76.0795 25.692C76.4972 26.7059 77.3469 27.2096 78.6338 27.2096C79.9207 27.2096 80.8665 26.706 81.5892 25.7054Z" fill="#FFFF00"/>
<path fill-rule="evenodd" clip-rule="evenodd" d="M69.3074 31.2275C69.2697 31.1769 69.2338 31.1245 69.2 31.0705C67.6585 28.6136 67.3806 25.444 67.9376 21.9105C68.4949 18.3752 69.7704 15.2228 72.1097 12.7742C74.6415 10.1171 77.952 9.01758 81.4825 9.01758C85.0086 9.01758 87.9779 10.1082 89.6661 12.7863C91.2102 15.2357 91.4921 18.3927 90.9376 21.9105C90.3842 25.4212 89.1047 28.6121 86.7873 31.0705C84.256 33.7558 80.9352 34.8571 77.4093 34.8571C73.9604 34.8571 71.012 33.8033 69.3074 31.2275ZM71.8606 29.2366C72.9644 30.9959 74.9853 31.8756 77.8793 31.8756C80.7733 31.8756 83.0527 30.9959 84.7111 29.2366C86.3695 27.4772 87.4475 25.0195 87.9376 21.9105C88.4277 18.8014 88.1193 16.3773 87.0145 14.6246C85.9096 12.872 83.9128 11.9991 81.0125 11.9991C78.1122 11.9991 75.8329 12.8787 74.1703 14.6246C72.5014 16.3706 71.4309 18.7813 70.9376 21.9105C70.4443 25.0397 70.7506 27.4772 71.8544 29.2366H71.8606ZM81.5891 25.7045C82.3181 24.7039 82.8007 23.4348 83.041 21.9105C83.2813 20.3862 83.1946 19.1439 82.7811 18.1433C82.3675 17.1428 81.5429 16.6392 80.2999 16.6392C79.0569 16.6392 78.0045 17.1428 77.2692 18.1433C76.534 19.1439 76.0525 20.4063 75.8154 21.9105C75.5782 23.4146 75.667 24.6838 76.0794 25.691C76.4972 26.705 77.3469 27.2086 78.6338 27.2086C79.9207 27.2086 80.8664 26.705 81.5891 25.7045ZM78.919 24.2155C78.9578 24.2214 79.0179 24.2272 79.1038 24.2272C79.1502 24.2272 79.1884 24.2255 79.2191 24.2231C79.5259 23.7979 79.8566 23.0802 80.041 21.9105C80.2236 20.7521 80.1198 20.0574 79.9444 19.6256C79.916 19.6228 79.8783 19.6206 79.8299 19.6206C79.7331 19.6206 79.6684 19.6293 79.6303 19.6369C79.3223 20.06 78.9957 20.7667 78.8154 21.9105C78.637 23.0419 78.7393 23.7687 78.919 24.2155ZM79.5868 19.6484C79.5868 19.6483 79.5878 19.6479 79.5899 19.6472C79.5879 19.648 79.5869 19.6484 79.5868 19.6484Z" fill="#3978FF"/>
<path d="M36.3781 30.7738L36.4809 29.3938C37.4897 29.0186 38.3328 28.5229 39.0111 27.8931C39.6318 27.317 40.1311 26.5667 40.5224 25.6422H43.1558C42.754 26.5265 42.3115 27.2366 41.8128 27.7993C41.1254 28.5497 40.3261 29.1794 39.4148 29.6885C38.6449 30.1039 37.6372 30.4657 36.3916 30.7738H36.3781ZM39.2185 16.8125H48.1532C48.6369 16.8125 48.9832 16.8527 49.1778 16.9465C49.6082 17.1207 49.8943 17.4288 50.036 17.871C50.1141 18.0854 50.1294 18.4203 50.0935 18.9027L49.6593 24.7311H38.6286L39.2185 16.8125ZM47.7862 18.3131H41.4579L41.0907 23.2438H47.4054L47.7727 18.3131H47.7862ZM46.9188 25.6288C48.5825 27.1026 49.8436 28.7506 50.7136 30.5996H47.8652C47.3172 28.9382 46.4188 27.2902 45.1443 25.6422H46.9043L46.9188 25.6288Z" fill="white"/>
<path d="M62.4815 28.2175C62.4815 28.2175 62.6241 28.2437 62.7527 28.2831C64.3787 28.6895 65.4118 28.9385 65.8773 29.0434L65.7484 30.7738C65.0673 30.5641 64.5663 30.4068 64.2323 30.3019C63.0503 29.9348 62.1769 29.6595 61.5849 29.4891L60.6326 29.2138C58.7994 30.0004 56.0684 30.4854 52.466 30.6689L52.5441 29.6202C55.4649 29.4105 57.4875 29.0827 58.6117 28.637C57.3236 28.2831 56.0475 27.9422 54.7574 27.6145C55.2877 27.0246 55.69 26.5658 55.9773 26.238L56.0489 26.1594H52.8808L52.9902 24.6911H57.223C57.4266 24.429 57.6302 24.1668 57.863 23.8653H60.4921L59.9243 24.429L59.6691 24.678H66.9386L66.8292 26.1463H64.5813C64.3052 26.5002 64.1026 26.7493 63.9735 26.8935C63.5723 27.3392 63.08 27.7718 62.4966 28.1913L62.4815 28.2175ZM57.655 19.4212L57.74 18.2807H53.5991L53.7085 16.8125H67.393L67.2836 18.2807H62.9456L62.8607 19.4212H64.9771C65.424 19.4212 65.7327 19.513 65.9284 19.7096C66.125 19.8932 66.1946 20.1947 66.1633 20.6142L65.9427 23.5769H54.0065L54.3151 19.4343H57.654L57.655 19.4212ZM57.5535 20.7846H56.0943L55.9889 22.2004H57.448L57.5535 20.7846ZM60.3335 27.7587C60.9008 27.3785 61.4384 26.8673 61.9575 26.2511L62.0291 26.1725H58.1249C57.8434 26.4216 57.5337 26.6969 57.1685 27.0115C58.3423 27.313 59.4017 27.5621 60.3467 27.7587H60.3335ZM59.548 19.4212H60.9546L61.0395 18.2807H59.6329L59.548 19.4212ZM59.4464 20.7846L59.341 22.2004H60.7475L60.853 20.7846H59.4464ZM62.746 20.7846L62.6405 22.2004H64.1391L64.2445 20.7846H62.746Z" fill="white"/>
<path d="M101.732 22.3916L101.245 28.9411H103.393L103.603 26.1245L105.51 26.6501L105.344 28.8737C105.308 29.3588 105.201 29.7092 105.036 29.9248C104.842 30.1674 104.601 30.3291 104.324 30.41C104.228 30.4369 104.024 30.4504 103.74 30.4504H100.794C100.335 30.4504 100 30.41 99.8033 30.3291C99.3954 30.1809 99.1047 29.9113 98.9581 29.5205C98.8911 29.3319 98.8726 29.0354 98.9037 28.6176L99.3675 22.3916H97.4486L97.4104 22.9037C97.308 24.2783 97.1527 25.2755 96.9318 25.882C96.388 27.3778 95.2986 28.5772 93.6608 29.5205C92.9125 29.9518 91.8138 30.3695 90.3783 30.7738L90.4867 29.3184C92.2085 28.6985 93.4535 27.7686 94.1935 26.5423C94.4874 26.0437 94.7297 25.3294 94.9216 24.3861C94.9637 24.184 95.0039 23.6449 95.0701 22.7555L95.0982 22.3782H91.2334L91.3458 20.8688H105.792L105.679 22.3782H101.733L101.732 22.3916ZM92.8058 18.3218L92.9182 16.8125H104.824L104.711 18.3218H92.8058Z" fill="white"/>
</g>
<path fill-rule="evenodd" clip-rule="evenodd" d="M61.5 44L66 37H57L61.5 44Z" fill="#3978FF"/>
<g clip-path="url(#clip1_1453_128583)">
<path fill-rule="evenodd" clip-rule="evenodd" d="M15.6457 9.15294C15.7416 8.23997 16.0736 7.40578 16.4324 6.57463C16.8732 5.48055 17.2361 4.351 17.8591 3.33062C18.7449 1.87595 19.9769 0.484831 21.7786 1.67904C22.4796 2.13809 22.8774 2.71407 23.0322 3.33629C22.7588 3.30694 22.4588 3.36443 22.1886 3.45966C20.6061 4.05367 19.4406 5.58753 18.4615 6.89643C18.0504 7.45062 17.6181 7.94819 17.183 8.47275C17.0421 8.64267 16.7913 8.94907 16.6627 9.24371C16.3667 9.25837 16.0698 9.25178 15.7743 9.22073L15.6457 9.15294Z" fill="#A7C3FF"/>
<path fill-rule="evenodd" clip-rule="evenodd" d="M18.5037 6.84507C19.4781 5.54453 20.638 4.0206 22.2131 3.43062C22.4821 3.33604 22.7807 3.27896 23.0528 3.30811C23.2897 4.25819 22.9504 5.31737 22.2154 6.23696C20.9074 7.85174 18.8288 9.07321 16.7136 9.17718C16.8415 8.88442 17.0911 8.57999 17.2313 8.41123C17.6643 7.88998 18.0946 7.3957 18.5037 6.84507Z" fill="#6596FF"/>
<path fill-rule="evenodd" clip-rule="evenodd" d="M16.3454 9.06966C16.1698 8.17177 15.766 7.37267 15.3357 6.57875C14.8007 5.53103 14.3401 4.44133 13.6301 3.48239C12.6199 2.11536 11.2707 0.841579 9.58051 2.18297C8.92261 2.69963 8.57682 3.30584 8.47719 3.93689C8.74682 3.88409 9.05061 3.91499 9.32835 3.98637C10.9569 4.43865 12.2524 5.85992 13.3427 7.07421C13.8008 7.58869 14.2748 8.04507 14.7546 8.52805C14.9096 8.68421 15.1865 8.96688 15.3403 9.24803C15.6365 9.23691 15.9317 9.20452 16.2233 9.14813L16.3454 9.06966Z" fill="#A7C3FF"/>
<path fill-rule="evenodd" clip-rule="evenodd" d="M13.3994 7.06131C12.3089 5.84303 11.0133 4.41708 9.38407 3.96371C9.10621 3.89217 8.80221 3.86125 8.53243 3.91433C8.37882 4.88753 8.81206 5.91966 9.629 6.777C11.0813 8.28119 13.2703 9.32348 15.3973 9.24228C15.2435 8.96018 14.9665 8.67657 14.8115 8.51991C14.3315 8.03536 13.8575 7.57749 13.3994 7.06131Z" fill="#6596FF"/>
<path fill-rule="evenodd" clip-rule="evenodd" d="M31.9979 29.9995L16.2467 29.9995L16.2467 8.60156L31.9979 8.60156L31.9979 29.9995Z" fill="#FB6184"/>
<path fill-rule="evenodd" clip-rule="evenodd" d="M19.5156 29.9995L1.28775 29.9995L1.28775 8.60156L19.5156 8.60156L19.5156 29.9995Z" fill="#FDA5B9"/>
<path fill-rule="evenodd" clip-rule="evenodd" d="M16.186 8.60156L19.5692 8.60156L31.8987 8.60156L31.8987 16.0314L19.5692 16.0314L16.186 16.0314L1.28781 16.0314L1.28781 8.60156L16.186 8.60156Z" fill="#FC8EA7"/>
<path fill-rule="evenodd" clip-rule="evenodd" d="M33.2857 14.2482L16.2466 14.2482L16.2466 8.60156L33.2857 8.60156L33.2857 14.2482Z" fill="#FB6184"/>
<path fill-rule="evenodd" clip-rule="evenodd" d="M20.011 14.2482L1.66725e-05 14.2482L1.71661e-05 8.60156L20.011 8.60156L20.011 14.2482Z" fill="#FDA5B9"/>
<path fill-rule="evenodd" clip-rule="evenodd" d="M13.5719 29.9995L6.73645 29.9995L6.73645 8.60156L13.5719 8.60156L13.5719 29.9995Z" fill="#A7C3FF"/>
</g>
<defs>
<clipPath id="clip0_1453_128583">
<rect width="72.9367" height="26.072" fill="white" transform="matrix(1 0 -0.0742825 0.997237 35.5 9)"/>
</clipPath>
<clipPath id="clip1_1453_128583">
<rect width="34" height="30" fill="white"/>
</clipPath>
</defs>
</svg>
